SplineFontDB: 3.0
FontName: Vazir-Medium
FullName: Vazir Medium
FamilyName: Vazir
Weight: Medium
Copyright: Copyright (c) 2003 by Bitstream, Inc. All Rights Reserved.\nDejaVu changes are in public domain\nChanges by Saber Rastikerdar are in public domain.\nNon-Arabic(Latin) glyphs and data in extended version are imported from Roboto font under the Apache License, Version 2.0.
Version: 19.1.0
ItalicAngle: 0
UnderlinePosition: -500
UnderlineWidth: 100
Ascent: 1638
Descent: 410
InvalidEm: 0
LayerCount: 2
Layer: 0 1 "Back" 1
Layer: 1 1 "Fore" 0
PreferredKerning: 4
XUID: [1021 502 1027637223 8169002]
UniqueID: 4184003
UseUniqueID: 1
FSType: 0
OS2Version: 1
OS2_WeightWidthSlopeOnly: 0
OS2_UseTypoMetrics: 1
CreationTime: 1431850356
ModificationTime: 1546954817
PfmFamily: 33
TTFWeight: 500
TTFWidth: 5
LineGap: 0
VLineGap: 0
Panose: 2 11 6 3 3 8 4 2 2 4
OS2TypoAscent: 2100
OS2TypoAOffset: 0
OS2TypoDescent: -1100
OS2TypoDOffset: 0
OS2TypoLinegap: 0
OS2WinAscent: 2100
OS2WinAOffset: 0
OS2WinDescent: 1100
OS2WinDOffset: 0
HheadAscent: 2100
HheadAOffset: 0
HheadDescent: -1100
HheadDOffset: 0
OS2SubXSize: 1331
OS2SubYSize: 1433
OS2SubXOff: 0
OS2SubYOff: 286
OS2SupXSize: 1331
OS2SupYSize: 1433
OS2SupXOff: 0
OS2SupYOff: 983
OS2StrikeYSize: 102
OS2StrikeYPos: 530
OS2CapHeight: 1638
OS2XHeight: 1082
OS2Vendor: '    '
OS2CodePages: 00000041.20080000
OS2UnicodeRanges: 80002003.80000000.00000008.00000000
Lookup: 1 9 0 "'fina' Terminal Forms in Arabic lookup 9" { "'fina' Terminal Forms in Arabic lookup 9 subtable"  } ['fina' ('arab' <'KUR ' 'SND ' 'URD ' 'dflt' > ) ]
Lookup: 1 9 0 "'medi' Medial Forms in Arabic lookup 11" { "'medi' Medial Forms in Arabic lookup 11 subtable"  } ['medi' ('arab' <'KUR ' 'SND ' 'URD ' 'dflt' > ) ]
Lookup: 1 9 0 "'init' Initial Forms in Arabic lookup 13" { "'init' Initial Forms in Arabic lookup 13 subtable"  } ['init' ('arab' <'KUR ' 'SND ' 'URD ' 'dflt' > ) ]

StartChar: exclam
Encoding: 33 33 1
GlifName: exclam
Width: 641
VWidth: 2784
GlyphClass: 2
Flags: W
LayerCount: 2
Fore
SplineSet
165.091796875 160.493164062 m 0,0,1
 165.091796875 224.65234375 165.091796875 224.65234375 210.60546875 270.165039062 c 128,-1,2
 256.119140625 315.6796875 256.119140625 315.6796875 320.278320312 315.6796875 c 128,-1,3
 384.438476562 315.6796875 384.438476562 315.6796875 429.952148438 270.165039062 c 128,-1,4
 475.463867188 224.65234375 475.463867188 224.65234375 475.463867188 160.493164062 c 128,-1,5
 475.463867188 96.333984375 475.463867188 96.333984375 429.952148438 50.8212890625 c 128,-1,6
 384.438476562 5.306640625 384.438476562 5.306640625 320.278320312 5.306640625 c 0,7,8
 301.837890625 5.306640625 301.837890625 5.306640625 284.638671875 9.2197265625 c 128,-1,9
 267.439453125 13.1328125 267.439453125 13.1328125 251.71484375 20.9345703125 c 128,-1,10
 235.990234375 28.736328125 235.990234375 28.736328125 222.126953125 40.2861328125 c 0,11,12
 206.693359375 53.1435546875 206.693359375 53.1435546875 195.208007812 68.3876953125 c 128,-1,13
 183.72265625 83.6318359375 183.72265625 83.6318359375 176.513671875 100.998046875 c 0,14,15
 165.091796875 128.512695312 165.091796875 128.512695312 165.091796875 160.493164062 c 0,0,1
213.161132812 1407.07128906 m 5,16,-1
 430.612304688 1407.07128906 l 5,17,-1
 451.130859375 1407.07128906 l 5,18,-1
 450.60546875 1386.55957031 l 5,19,-1
 426.087890625 468.8125 l 1,20,-1
 425.588867188 449.32421875 l 1,21,-1
 406.094726562 449.32421875 l 1,22,-1
 238.90234375 449.32421875 l 1,23,-1
 219.432617188 449.32421875 l 1,24,-1
 218.909179688 468.787109375 l 1,25,-1
 193.16796875 1386.53417969 l 5,26,-1
 192.616210938 1407.07128906 l 5,27,-1
 213.161132812 1407.07128906 l 5,16,-1
EndSplineSet
EndChar

StartChar: period
Encoding: 46 46 2
GlifName: period
Width: 641
VWidth: 2784
GlyphClass: 2
Flags: W
LayerCount: 2
Fore
SplineSet
165.091796875 160.493164062 m 0,0,1
 165.091796875 224.65234375 165.091796875 224.65234375 210.60546875 270.165039062 c 128,-1,2
 256.119140625 315.6796875 256.119140625 315.6796875 320.278320312 315.6796875 c 128,-1,3
 384.438476562 315.6796875 384.438476562 315.6796875 429.952148438 270.165039062 c 128,-1,4
 475.463867188 224.65234375 475.463867188 224.65234375 475.463867188 160.493164062 c 128,-1,5
 475.463867188 96.333984375 475.463867188 96.333984375 429.952148438 50.8212890625 c 128,-1,6
 384.438476562 5.306640625 384.438476562 5.306640625 320.278320312 5.306640625 c 0,7,8
 301.837890625 5.306640625 301.837890625 5.306640625 284.638671875 9.2197265625 c 128,-1,9
 267.439453125 13.1328125 267.439453125 13.1328125 251.71484375 20.9345703125 c 128,-1,10
 235.990234375 28.736328125 235.990234375 28.736328125 222.126953125 40.2861328125 c 0,11,12
 206.693359375 53.1435546875 206.693359375 53.1435546875 195.208007812 68.3876953125 c 128,-1,13
 183.72265625 83.6318359375 183.72265625 83.6318359375 176.513671875 100.998046875 c 0,14,15
 165.091796875 128.512695312 165.091796875 128.512695312 165.091796875 160.493164062 c 0,0,1
EndSplineSet
EndChar

StartChar: colon
Encoding: 58 58 3
GlifName: colon
Width: 641
VWidth: 2784
GlyphClass: 2
Flags: W
LayerCount: 2
Fore
SplineSet
165.091796875 1030.49316406 m 0,0,1
 165.091796875 1094.65234375 165.091796875 1094.65234375 210.60546875 1140.16503906 c 128,-1,2
 256.119140625 1185.6796875 256.119140625 1185.6796875 320.278320312 1185.6796875 c 0,3,4
 336.087890625 1185.6796875 336.087890625 1185.6796875 351.020507812 1182.77441406 c 128,-1,5
 365.953125 1179.86914062 365.953125 1179.86914062 379.729492188 1174.15039062 c 128,-1,6
 393.505859375 1168.43066406 393.505859375 1168.43066406 406.125 1159.90136719 c 128,-1,7
 418.744140625 1151.37304688 418.744140625 1151.37304688 429.952148438 1140.16503906 c 0,8,9
 452.404296875 1117.71289062 452.404296875 1117.71289062 463.93359375 1089.93652344 c 128,-1,10
 475.463867188 1062.16113281 475.463867188 1062.16113281 475.463867188 1030.49316406 c 0,11,12
 475.463867188 966.333984375 475.463867188 966.333984375 429.952148438 920.821289062 c 0,13,14
 407.499023438 898.368164062 407.499023438 898.368164062 379.72265625 886.836914062 c 128,-1,15
 351.946289062 875.306640625 351.946289062 875.306640625 320.278320312 875.306640625 c 0,16,17
 309.220703125 875.306640625 309.220703125 875.306640625 298.583007812 876.719726562 c 128,-1,18
 287.9453125 878.131835938 287.9453125 878.131835938 277.80078125 880.952148438 c 128,-1,19
 267.65625 883.772460938 267.65625 883.772460938 258.069335938 887.966796875 c 128,-1,20
 248.481445312 892.162109375 248.481445312 892.162109375 239.46484375 897.7578125 c 128,-1,21
 230.44921875 903.353515625 230.44921875 903.353515625 222.126953125 910.286132812 c 0,22,23
 206.693359375 923.143554688 206.693359375 923.143554688 195.208007812 938.387695312 c 128,-1,24
 183.72265625 953.631835938 183.72265625 953.631835938 176.513671875 970.998046875 c 0,25,26
 165.091796875 998.512695312 165.091796875 998.512695312 165.091796875 1030.49316406 c 0,0,1
165.091796875 160.493164062 m 0,27,28
 165.091796875 224.65234375 165.091796875 224.65234375 210.60546875 270.165039062 c 128,-1,29
 256.119140625 315.6796875 256.119140625 315.6796875 320.278320312 315.6796875 c 128,-1,30
 384.438476562 315.6796875 384.438476562 315.6796875 429.952148438 270.165039062 c 128,-1,31
 475.463867188 224.65234375 475.463867188 224.65234375 475.463867188 160.493164062 c 128,-1,32
 475.463867188 96.333984375 475.463867188 96.333984375 429.952148438 50.8212890625 c 128,-1,33
 384.438476562 5.306640625 384.438476562 5.306640625 320.278320312 5.306640625 c 0,34,35
 301.837890625 5.306640625 301.837890625 5.306640625 284.638671875 9.2197265625 c 128,-1,36
 267.439453125 13.1328125 267.439453125 13.1328125 251.71484375 20.9345703125 c 128,-1,37
 235.990234375 28.736328125 235.990234375 28.736328125 222.126953125 40.2861328125 c 0,38,39
 206.693359375 53.1435546875 206.693359375 53.1435546875 195.208007812 68.3876953125 c 128,-1,40
 183.72265625 83.6318359375 183.72265625 83.6318359375 176.513671875 100.998046875 c 0,41,42
 165.091796875 128.512695312 165.091796875 128.512695312 165.091796875 160.493164062 c 0,27,28
EndSplineSet
EndChar

StartChar: afii57388
Encoding: 1548 1548 5
GlifName: afii57388
Width: 739
VWidth: 2792
GlyphClass: 2
Flags: W
LayerCount: 2
Fore
SplineSet
215.892578125 313.9453125 m 0,0,1
 266.893554688 566.372070312 266.893554688 566.372070312 470.081054688 720.37890625 c 2,2,-1
 481.044921875 728.689453125 l 1,3,-1
 492.725585938 721.422851562 l 1,4,-1
 540.959960938 691.418945312 l 1,5,-1
 563.559570312 677.361328125 l 1,6,-1
 543.76953125 659.565429688 l 2,7,8
 399.161132812 529.52734375 399.161132812 529.52734375 377.8203125 329.026367188 c 1,9,10
 504.287109375 325.057617188 504.287109375 325.057617188 540.494140625 253.907226562 c 0,11,12
 562.11328125 210.474609375 562.11328125 210.474609375 561.083007812 167.609375 c 0,13,14
 560.510742188 129.45703125 560.510742188 129.45703125 549.276367188 99.7138671875 c 128,-1,15
 538.041992188 69.970703125 538.041992188 69.970703125 517.079101562 49.904296875 c 128,-1,16
 496.116210938 29.837890625 496.116210938 29.837890625 465.546875 19.3857421875 c 128,-1,17
 434.9765625 8.9326171875 434.9765625 8.9326171875 396.047851562 8.9072265625 c 0,18,19
 365.9609375 8.78125 365.9609375 8.78125 340.470703125 13.802734375 c 0,20,21
 251.349609375 31.3603515625 251.349609375 31.3603515625 220.854492188 108.931640625 c 128,-1,22
 190.359375 186.501953125 190.359375 186.501953125 215.892578125 313.9453125 c 0,0,1
EndSplineSet
EndChar

StartChar: uni0615
Encoding: 1557 1557 6
GlifName: uni0615
Width: -29
VWidth: 2714
GlyphClass: 4
Flags: W
AnchorPoint: "Anchor-10" 658.199 1624.46 mark 0
AnchorPoint: "Anchor-9" 658.199 1624.46 mark 0
AnchorPoint: "Anchor-1" 672.366 2447.86 basemark 0
AnchorPoint: "Anchor-1" 658.199 1624.46 mark 0
LayerCount: 2
Fore
SplineSet
912.769755624 1920.01350395 m 0,0,1
 912.769755624 1994.96856117 912.769755624 1994.96856117 836.782727051 1994.96856117 c 4,2,3
 730.412315598 1994.96856117 730.412315598 1994.96856117 541.2421875 1790.00390625 c 1,4,-1
 677.703125 1790.00390625 l 2,5,6
 781.798204784 1790.00390625 781.798204784 1790.00390625 845.899102392 1824.50195312 c 0,7,8
 912.769755624 1860.49063684 912.769755624 1860.49063684 912.769755624 1920.01350395 c 0,0,1
991.1328125 1928.79980469 m 0,9,10
 991.00004589 1714.07421875 991.00004589 1714.07421875 668.384765625 1714.07421875 c 2,11,-1
 354.936523438 1714.07421875 l 1,12,-1
 354.936523438 1790.00390625 l 1,13,-1
 462.987304688 1790.00390625 l 1,14,-1
 462.987304688 2322.15039062 l 1,15,-1
 540.234375 2321.18359375 l 1,16,-1
 539.275390625 1893.90234375 l 1,17,18
 703.078829305 2080.07964876 703.078829305 2080.07964876 840.555998274 2080.07964876 c 4,19,20
 990.947121021 2080.07964876 990.947121021 2080.07964876 991.1328125 1928.79980469 c 0,9,10
EndSplineSet
EndChar

StartChar: uni061B
Encoding: 1563 1563 7
GlifName: uni061B_
Width: 739
VWidth: 2792
GlyphClass: 2
Flags: W
LayerCount: 2
Fore
SplineSet
242.091796875 160.493164062 m 0,0,1
 242.091796875 224.65234375 242.091796875 224.65234375 287.60546875 270.165039062 c 128,-1,2
 333.119140625 315.6796875 333.119140625 315.6796875 397.278320312 315.6796875 c 128,-1,3
 461.438476562 315.6796875 461.438476562 315.6796875 506.952148438 270.165039062 c 128,-1,4
 552.463867188 224.65234375 552.463867188 224.65234375 552.463867188 160.493164062 c 128,-1,5
 552.463867188 96.333984375 552.463867188 96.333984375 506.952148438 50.8212890625 c 128,-1,6
 461.438476562 5.306640625 461.438476562 5.306640625 397.278320312 5.306640625 c 0,7,8
 341.115234375 5.306640625 341.115234375 5.306640625 299.126953125 40.2861328125 c 0,9,10
 267.924804688 66.2802734375 267.924804688 66.2802734375 253.513671875 100.998046875 c 0,11,12
 242.091796875 128.512695312 242.091796875 128.512695312 242.091796875 160.493164062 c 0,0,1
215.892578125 753.9453125 m 0,13,14
 266.893554688 1006.37207031 266.893554688 1006.37207031 470.081054688 1160.37890625 c 2,15,-1
 481.044921875 1168.68945312 l 1,16,-1
 492.725585938 1161.42285156 l 1,17,-1
 540.959960938 1131.41894531 l 1,18,-1
 563.559570312 1117.36132812 l 1,19,-1
 543.76953125 1099.56542969 l 2,20,21
 399.161132812 969.52734375 399.161132812 969.52734375 377.8203125 769.026367188 c 1,22,23
 504.287109375 765.057617188 504.287109375 765.057617188 540.494140625 693.907226562 c 0,24,25
 562.11328125 650.474609375 562.11328125 650.474609375 561.083007812 607.609375 c 0,26,27
 559.93359375 531.041015625 559.93359375 531.041015625 517.122070312 489.999023438 c 128,-1,28
 474.309570312 448.958007812 474.309570312 448.958007812 396.047851562 448.907226562 c 0,29,30
 365.9609375 448.78125 365.9609375 448.78125 340.470703125 453.802734375 c 0,31,32
 280.759765625 465.56640625 280.759765625 465.56640625 246.90234375 505.291015625 c 128,-1,33
 213.044921875 545.015625 213.044921875 545.015625 206.454101562 607.55859375 c 128,-1,34
 199.86328125 670.1015625 199.86328125 670.1015625 215.892578125 753.9453125 c 0,13,14
EndSplineSet
EndChar

StartChar: uni061F
Encoding: 1567 1567 8
GlifName: uni061F_
Width: 974
VWidth: 2784
GlyphClass: 2
Flags: W
LayerCount: 2
Fore
SplineSet
398.091796875 160.493164062 m 0,0,1
 398.091796875 224.65234375 398.091796875 224.65234375 443.60546875 270.165039062 c 128,-1,2
 489.119140625 315.6796875 489.119140625 315.6796875 553.278320312 315.6796875 c 0,3,4
 584.9453125 315.6796875 584.9453125 315.6796875 612.721679688 304.149414062 c 128,-1,5
 640.498046875 292.619140625 640.498046875 292.619140625 662.952148438 270.165039062 c 0,6,7
 677.897460938 255.219726562 677.897460938 255.219726562 688.041992188 237.841796875 c 128,-1,8
 698.1875 220.463867188 698.1875 220.463867188 703.325195312 201.020507812 c 128,-1,9
 708.463867188 181.576171875 708.463867188 181.576171875 708.463867188 160.493164062 c 0,10,11
 708.463867188 96.333984375 708.463867188 96.333984375 662.952148438 50.8212890625 c 128,-1,12
 617.438476562 5.306640625 617.438476562 5.306640625 553.278320312 5.306640625 c 0,13,14
 497.115234375 5.306640625 497.115234375 5.306640625 455.126953125 40.2861328125 c 0,15,16
 423.924804688 66.2802734375 423.924804688 66.2802734375 409.513671875 100.998046875 c 0,17,18
 398.091796875 128.512695312 398.091796875 128.512695312 398.091796875 160.493164062 c 0,0,1
695.799804688 976.248046875 m 1,19,-1
 695.799804688 1004.88574219 l 2,20,21
 696 1181 696 1181 517.583007812 1180.89453125 c 0,22,23
 369 1181 369 1181 329.809570312 1070.17285156 c 4,24,25
 318 1036 318 1036 318.392578125 998.234375 c 0,26,27
 318 909 318 909 453.021484375 787.544921875 c 0,28,29
 674.98046875 586.017733357 674.98046875 586.017733357 674.98046875 476.999023438 c 2,30,-1
 674.98046875 466.33203125 l 1,31,-1
 674.979492188 446.333007812 l 1,32,-1
 654.98046875 446.333007812 l 1,33,-1
 452.350585938 446.330078125 l 1,34,-1
 432.350585938 446.330078125 l 1,35,-1
 432.349609375 466.329101562 l 1,36,-1
 432.349609375 473.959960938 l 2,37,38
 432 542 432 542 267.203125 671.428710938 c 0,39,40
 85 814 85 814 84.912061853 1045.41513024 c 0,41,42
 85 1167 85 1167 177.002929688 1272.23242188 c 0,43,44
 303 1414 303 1414 500.212890625 1414.37792969 c 0,45,46
 896 1414 896 1414 896 1006 c 2,47,-1
 896 976.25 l 1,48,-1
 876 976.25 l 1,49,-1
 715.799804688 976.248046875 l 1,50,-1
 695.799804688 976.248046875 l 1,19,-1
EndSplineSet
EndChar

StartChar: uni0621
Encoding: 1569 1569 9
GlifName: uni0621
Width: 868
VWidth: 2972
GlyphClass: 2
Flags: W
AnchorPoint: "Anchor-7" 471.326 -75.6465 basechar 0
AnchorPoint: "Anchor-10" 467.848 1201.06 basechar 0
LayerCount: 2
Fore
SplineSet
97.76953125 31.8525390625 m 1,0,-1
 97.76953125 209.793945312 l 1,1,-1
 97.76953125 220.655273438 l 1,2,-1
 106.879882812 226.569335938 l 2,3,4
 194.381835938 283.372070312 194.381835938 283.372070312 268.788085938 312.458984375 c 1,5,6
 118.01171875 408.100585938 118.01171875 408.100585938 118.256835938 560.693359375 c 0,7,8
 119.041015625 703.477539062 119.041015625 703.477539062 194.90625 791.490234375 c 0,9,10
 302.865234375 915.994140625 302.865234375 915.994140625 475.288085938 916.10546875 c 0,11,12
 651.333984375 915.995117188 651.333984375 915.995117188 746.83984375 819.754882812 c 2,13,-1
 756.181640625 810.340820312 l 1,14,-1
 751.145507812 798.072265625 l 1,15,-1
 694.569335938 660.25390625 l 1,16,-1
 684.927734375 636.766601562 l 1,17,-1
 664.3515625 651.639648438 l 2,18,19
 590.549804688 704.984375 590.549804688 704.984375 487.14453125 704.736328125 c 0,20,21
 446.943359375 704.396484375 446.943359375 704.396484375 416.348632812 693.380859375 c 128,-1,22
 385.75390625 682.366210938 385.75390625 682.366210938 363.623046875 660.9375 c 0,23,24
 323.967773438 622.500976562 323.967773438 622.500976562 323.731445312 560.557617188 c 0,25,26
 323.836914062 524.868164062 323.836914062 524.868164062 361.9375 486.927734375 c 128,-1,27
 400.038085938 448.98828125 400.038085938 448.98828125 478.684570312 412.3515625 c 1,28,-1
 724.794921875 467.955078125 l 1,29,-1
 745.559570312 472.646484375 l 1,30,-1
 748.947265625 451.629882812 l 1,31,-1
 776.745117188 279.182617188 l 1,32,-1
 780.0625 258.604492188 l 1,33,-1
 759.364257812 256.140625 l 2,34,35
 511.251953125 226.603515625 511.251953125 226.603515625 127.448242188 14.3505859375 c 2,36,-1
 97.76953125 -2.0625 l 1,37,-1
 97.76953125 31.8525390625 l 1,0,-1
EndSplineSet
EndChar

StartChar: uni0627
Encoding: 1575 1575 15
GlifName: uni0627
Width: 477
VWidth: 2972
GlyphClass: 2
Flags: W
AnchorPoint: "Anchor-10" 229.871 1553.46 basechar 0
AnchorPoint: "Anchor-7" 233.587 -216.365 basechar 0
LayerCount: 2
Fore
SplineSet
150.890625 1408.15039062 m 5,0,-1
 324.205078125 1408.15039062 l 5,1,-1
 344.205078125 1408.15039062 l 5,2,-1
 344.205078125 1388.15039062 l 5,3,-1
 344.205078125 20.751953125 l 5,4,-1
 344.205078125 0.751953125 l 5,5,-1
 324.205078125 0.751953125 l 5,6,-1
 150.890625 0.751953125 l 5,7,-1
 130.890625 0.751953125 l 5,8,-1
 130.890625 20.751953125 l 5,9,-1
 130.890625 1388.15039062 l 5,10,-1
 130.890625 1408.15039062 l 5,11,-1
 150.890625 1408.15039062 l 5,0,-1
EndSplineSet
Substitution2: "'fina' Terminal Forms in Arabic lookup 9 subtable" uniFE8E
EndChar

StartChar: uni062D
Encoding: 1581 1581 21
GlifName: uni062D_
Width: 1386
VWidth: 2972
GlyphClass: 2
Flags: W
AnchorPoint: "Anchor-7" 580.833 -790.619 basechar 0
AnchorPoint: "Anchor-10" 649.478 1282.07 basechar 0
LayerCount: 2
Fore
SplineSet
104.987304688 -124.852539062 m 0,0,1
 104.987304688 163.37890625 104.987304688 163.37890625 276.095703125 351.393554688 c 128,-1,2
 447.203125 539.408203125 447.203125 539.408203125 784.044921875 624.821289062 c 1,3,4
 772.123046875 629.545898438 772.123046875 629.545898438 758.640625 634.90234375 c 128,-1,5
 745.158203125 640.259765625 745.158203125 640.259765625 729.424804688 646.5234375 c 0,6,7
 538.145507812 723.983398438 538.145507812 723.983398438 469.56640625 723.6875 c 0,8,9
 434.750976562 723.784179688 434.750976562 723.784179688 404.62109375 714.477539062 c 128,-1,10
 374.491210938 705.171875 374.491210938 705.171875 348.290039062 686.110351562 c 128,-1,11
 322.087890625 667.048828125 322.087890625 667.048828125 299.436523438 637.872070312 c 2,12,-1
 271.408203125 601.76953125 l 1,13,-1
 261.396484375 588.873046875 l 1,14,-1
 246.756835938 596.100585938 l 1,15,-1
 92.896484375 672.060546875 l 1,16,-1
 73.3515625 681.709960938 l 1,17,-1
 84.642578125 700.353515625 l 1,18,-1
 101.336914062 727.923828125 l 2,19,20
 166.436523438 835.477539062 166.436523438 835.477539062 259.547851562 890.440429688 c 128,-1,21
 352.66015625 945.40234375 352.66015625 945.40234375 471.036132812 945.840820312 c 0,22,23
 515.952148438 945.897460938 515.952148438 945.897460938 565.646484375 936.01953125 c 128,-1,24
 615.341796875 926.141601562 615.341796875 926.141601562 669.334960938 906.75 c 128,-1,25
 723.328125 887.358398438 723.328125 887.358398438 783.751953125 858.008789062 c 0,26,27
 1092.015625 707.803710938 1092.015625 707.803710938 1258.76269531 700.672851562 c 2,28,-1
 1279.39160156 699.791015625 l 1,29,-1
 1277.85253906 679.200195312 l 1,30,-1
 1264.86328125 505.438476562 l 1,31,-1
 1263.56347656 488.049804688 l 1,32,-1
 1246.15917969 486.967773438 l 2,33,34
 1221.21289062 485.41796875 1221.21289062 485.41796875 1197.44628906 483.55078125 c 128,-1,35
 1173.68066406 481.682617188 1173.68066406 481.682617188 1151.1875 479.505859375 c 128,-1,36
 1128.69433594 477.329101562 1128.69433594 477.329101562 1107.40234375 474.840820312 c 128,-1,37
 1086.11132812 472.3515625 1086.11132812 472.3515625 1066.09375 469.559570312 c 128,-1,38
 1046.07617188 466.767578125 1046.07617188 466.767578125 1027.28320312 463.66796875 c 128,-1,39
 1008.49023438 460.569335938 1008.49023438 460.569335938 990.97265625 457.172851562 c 128,-1,40
 973.455078125 453.775390625 973.455078125 453.775390625 957.182617188 450.077148438 c 0,41,42
 315.008789062 301.110351562 315.008789062 301.110351562 315.249023438 -109.31640625 c 0,43,44
 315.130859375 -283.9609375 315.130859375 -283.9609375 440.446289062 -370.92578125 c 128,-1,45
 565.760742188 -457.889648438 565.760742188 -457.889648438 826.403320312 -457.783203125 c 0,46,47
 1038.4765625 -457.995117188 1038.4765625 -457.995117188 1234.68847656 -364.23828125 c 2,48,-1
 1257.71191406 -353.237304688 l 1,49,-1
 1262.89453125 -378.221679688 l 1,50,-1
 1298.95410156 -552.047851562 l 1,51,-1
 1302.1171875 -567.29296875 l 1,52,-1
 1288.11328125 -574.098632812 l 2,53,54
 1084.61132812 -672.99609375 1084.61132812 -672.99609375 811.515625 -673.249023438 c 0,55,56
 613.002929688 -673.122070312 613.002929688 -673.122070312 469.709960938 -626.625 c 128,-1,57
 326.416015625 -580.127929688 326.416015625 -580.127929688 239.325195312 -485.895507812 c 0,58,59
 172.270507812 -413.483398438 172.270507812 -413.483398438 138.62890625 -322.885742188 c 128,-1,60
 104.987304688 -232.288085938 104.987304688 -232.288085938 104.987304688 -124.852539062 c 0,0,1
EndSplineSet
Substitution2: "'fina' Terminal Forms in Arabic lookup 9 subtable" uniFEA2
Substitution2: "'medi' Medial Forms in Arabic lookup 11 subtable" uniFEA4
Substitution2: "'init' Initial Forms in Arabic lookup 13 subtable" uniFEA3
EndChar

StartChar: uni062F
Encoding: 1583 1583 23
GlifName: uni062F_
Width: 974
VWidth: 2972
GlyphClass: 2
Flags: W
AnchorPoint: "Anchor-10" 376.137 1231.03 basechar 0
AnchorPoint: "Anchor-7" 437.24 -219.316 basechar 0
LayerCount: 2
Fore
SplineSet
105.0546875 250.7890625 m 2,0,1
 229.046875 225.001953125 229.046875 225.001953125 321.668945312 225.107421875 c 0,2,3
 671.995117188 225.005859375 671.995117188 225.005859375 671.954101562 386.385742188 c 0,4,5
 671.967773438 442.915039062 671.967773438 442.915039062 628.736328125 509.329101562 c 128,-1,6
 585.50390625 575.744140625 585.50390625 575.744140625 494.157226562 654.49609375 c 128,-1,7
 402.811523438 733.249023438 402.811523438 733.249023438 266.352539062 819.0703125 c 2,8,-1
 249.056640625 829.947265625 l 1,9,-1
 260.30078125 847.006835938 l 1,10,-1
 360.553710938 999.106445312 l 1,11,-1
 371.077148438 1015.07128906 l 1,12,-1
 387.498046875 1005.27636719 l 2,13,14
 891.982421875 704.369140625 891.982421875 704.369140625 892.479492188 388.899414062 c 0,15,16
 892.310546875 260.125976562 892.310546875 260.125976562 828.03515625 173.736328125 c 128,-1,17
 763.760742188 87.34765625 763.760742188 87.34765625 640.141601562 44.9287109375 c 128,-1,18
 516.522460938 2.509765625 516.522460938 2.509765625 334.8515625 2.259765625 c 0,19,20
 205.818359375 1.9951171875 205.818359375 1.9951171875 96.630859375 26.337890625 c 2,21,-1
 80.982421875 29.826171875 l 1,22,-1
 80.982421875 45.8583984375 l 1,23,-1
 80.982421875 231.208007812 l 1,24,-1
 80.982421875 255.794921875 l 1,25,-1
 105.0546875 250.7890625 l 2,0,1
EndSplineSet
Substitution2: "'fina' Terminal Forms in Arabic lookup 9 subtable" uniFEAA
EndChar

StartChar: uni0631
Encoding: 1585 1585 25
GlifName: uni0631
Width: 775
VWidth: 2164
GlyphClass: 2
Flags: W
AnchorPoint: "Anchor-10" 467.256 946.2 basechar 0
AnchorPoint: "Anchor-7" 322.969 -647.998 basechar 0
LayerCount: 2
Fore
SplineSet
619.637695312 559.182617188 m 2,0,1
 661.734375 456.7734375 661.734375 456.7734375 682.958007812 361.256835938 c 128,-1,2
 704.182617188 265.741210938 704.182617188 265.741210938 704.375 177.015625 c 0,3,4
 704.696289062 -102.73828125 704.696289062 -102.73828125 540.396484375 -274.6875 c 128,-1,5
 376.09765625 -446.63671875 376.09765625 -446.63671875 52.7080078125 -507.653320312 c 2,6,-1
 36.439453125 -510.72265625 l 1,7,-1
 30.3857421875 -495.314453125 l 1,8,-1
 -31.7451171875 -337.193359375 l 1,9,-1
 -40.5986328125 -314.662109375 l 1,10,-1
 -16.802734375 -310.21875 l 2,11,12
 155.018554688 -278.131835938 155.018554688 -278.131835938 268.21484375 -213.647460938 c 128,-1,13
 381.411132812 -149.163085938 381.411132812 -149.163085938 436.970703125 -53.1005859375 c 128,-1,14
 492.53125 42.9619140625 492.53125 42.9619140625 493.250976562 172.353515625 c 0,15,16
 493.977539062 303.940429688 493.977539062 303.940429688 416.622070312 484.109375 c 2,17,-1
 408.233398438 503.6484375 l 1,18,-1
 428.249023438 510.826171875 l 1,19,-1
 594.388671875 570.405273438 l 1,20,-1
 612.374023438 576.854492188 l 1,21,-1
 619.637695312 559.182617188 l 2,0,1
EndSplineSet
PairPos2: "'kern' Horizontal Kerning lookup 15-2" uniFBFE dx=60 dy=0 dh=60 dv=0 dx=0 dy=0 dh=0 dv=0
PairPos2: "'kern' Horizontal Kerning lookup 15-1" uniFEE7 dx=-178 dy=0 dh=-178 dv=0 dx=0 dy=0 dh=0 dv=0
PairPos2: "'kern' Horizontal Kerning lookup 15-2" uniFB90 dx=-226 dy=0 dh=-226 dv=0 dx=0 dy=0 dh=0 dv=0
PairPos2: "'kern' Horizontal Kerning lookup 15-2" uniFB8E dx=-226 dy=0 dh=-226 dv=0 dx=0 dy=0 dh=0 dv=0
PairPos2: "'kern' Horizontal Kerning lookup 15-2" uni06A9 dx=-226 dy=0 dh=-226 dv=0 dx=0 dy=0 dh=0 dv=0
PairPos2: "'kern' Horizontal Kerning lookup 15-2" uni064A dx=-60 dy=0 dh=-60 dv=0 dx=0 dy=0 dh=0 dv=0
PairPos2: "'kern' Horizontal Kerning lookup 15-2" afii57414 dx=-60 dy=0 dh=-60 dv=0 dx=0 dy=0 dh=0 dv=0
PairPos2: "'kern' Horizontal Kerning lookup 15-2" uni0649 dx=-60 dy=0 dh=-60 dv=0 dx=0 dy=0 dh=0 dv=0
PairPos2: "'kern' Horizontal Kerning lookup 15-2" uniFEEB dx=-178 dy=0 dh=-178 dv=0 dx=0 dy=0 dh=0 dv=0
PairPos2: "'kern' Horizontal Kerning lookup 15-2" uni0647 dx=-178 dy=0 dh=-178 dv=0 dx=0 dy=0 dh=0 dv=0
PairPos2: "'kern' Horizontal Kerning lookup 15-2" uni0646 dx=-60 dy=0 dh=-60 dv=0 dx=0 dy=0 dh=0 dv=0
PairPos2: "'kern' Horizontal Kerning lookup 15-2" uniFEE3 dx=-178 dy=0 dh=-178 dv=0 dx=0 dy=0 dh=0 dv=0
PairPos2: "'kern' Horizontal Kerning lookup 15-2" uni0645 dx=-178 dy=0 dh=-178 dv=0 dx=0 dy=0 dh=0 dv=0
PairPos2: "'kern' Horizontal Kerning lookup 15-2" uniFEFB dx=-143 dy=0 dh=-143 dv=0 dx=0 dy=0 dh=0 dv=0
PairPos2: "'kern' Horizontal Kerning lookup 15-2" uniFEDF dx=-143 dy=0 dh=-143 dv=0 dx=0 dy=0 dh=0 dv=0
PairPos2: "'kern' Horizontal Kerning lookup 15-2" uni0644 dx=-60 dy=0 dh=-60 dv=0 dx=0 dy=0 dh=0 dv=0
PairPos2: "'kern' Horizontal Kerning lookup 15-2" uniFEDB dx=-226 dy=0 dh=-226 dv=0 dx=0 dy=0 dh=0 dv=0
PairPos2: "'kern' Horizontal Kerning lookup 15-2" uni0643 dx=-143 dy=0 dh=-143 dv=0 dx=0 dy=0 dh=0 dv=0
PairPos2: "'kern' Horizontal Kerning lookup 15-2" uniFED7 dx=-178 dy=0 dh=-178 dv=0 dx=0 dy=0 dh=0 dv=0
PairPos2: "'kern' Horizontal Kerning lookup 15-2" uni0642 dx=-60 dy=0 dh=-60 dv=0 dx=0 dy=0 dh=0 dv=0
PairPos2: "'kern' Horizontal Kerning lookup 15-2" uniFED3 dx=-178 dy=0 dh=-178 dv=0 dx=0 dy=0 dh=0 dv=0
PairPos2: "'kern' Horizontal Kerning lookup 15-2" uni0641 dx=-178 dy=0 dh=-178 dv=0 dx=0 dy=0 dh=0 dv=0
PairPos2: "'kern' Horizontal Kerning lookup 15-2" uniFECF dx=-178 dy=0 dh=-178 dv=0 dx=0 dy=0 dh=0 dv=0
PairPos2: "'kern' Horizontal Kerning lookup 15-2" uniFECB dx=-178 dy=0 dh=-178 dv=0 dx=0 dy=0 dh=0 dv=0
PairPos2: "'kern' Horizontal Kerning lookup 15-2" uniFEC7 dx=-178 dy=0 dh=-178 dv=0 dx=0 dy=0 dh=0 dv=0
PairPos2: "'kern' Horizontal Kerning lookup 15-2" uni0638 dx=-178 dy=0 dh=-178 dv=0 dx=0 dy=0 dh=0 dv=0
PairPos2: "'kern' Horizontal Kerning lookup 15-2" uniFEC3 dx=-178 dy=0 dh=-178 dv=0 dx=0 dy=0 dh=0 dv=0
PairPos2: "'kern' Horizontal Kerning lookup 15-2" uni0637 dx=-178 dy=0 dh=-178 dv=0 dx=0 dy=0 dh=0 dv=0
PairPos2: "'kern' Horizontal Kerning lookup 15-2" uniFEBF dx=-178 dy=0 dh=-178 dv=0 dx=0 dy=0 dh=0 dv=0
PairPos2: "'kern' Horizontal Kerning lookup 15-2" uni0636 dx=-178 dy=0 dh=-178 dv=0 dx=0 dy=0 dh=0 dv=0
PairPos2: "'kern' Horizontal Kerning lookup 15-2" uniFEBB dx=-178 dy=0 dh=-178 dv=0 dx=0 dy=0 dh=0 dv=0
PairPos2: "'kern' Horizontal Kerning lookup 15-2" uni0635 dx=-178 dy=0 dh=-178 dv=0 dx=0 dy=0 dh=0 dv=0
PairPos2: "'kern' Horizontal Kerning lookup 15-2" uniFEB7 dx=-178 dy=0 dh=-178 dv=0 dx=0 dy=0 dh=0 dv=0
PairPos2: "'kern' Horizontal Kerning lookup 15-2" uni0634 dx=-178 dy=0 dh=-178 dv=0 dx=0 dy=0 dh=0 dv=0
PairPos2: "'kern' Horizontal Kerning lookup 15-2" uniFEB3 dx=-178 dy=0 dh=-178 dv=0 dx=0 dy=0 dh=0 dv=0
PairPos2: "'kern' Horizontal Kerning lookup 15-2" uni0633 dx=-178 dy=0 dh=-178 dv=0 dx=0 dy=0 dh=0 dv=0
PairPos2: "'kern' Horizontal Kerning lookup 15-2" uni0630 dx=-178 dy=0 dh=-178 dv=0 dx=0 dy=0 dh=0 dv=0
PairPos2: "'kern' Horizontal Kerning lookup 15-2" uni062F dx=-178 dy=0 dh=-178 dv=0 dx=0 dy=0 dh=0 dv=0
PairPos2: "'kern' Horizontal Kerning lookup 15-2" uniFEA7 dx=-178 dy=0 dh=-178 dv=0 dx=0 dy=0 dh=0 dv=0
PairPos2: "'kern' Horizontal Kerning lookup 15-2" uniFEA3 dx=-178 dy=0 dh=-178 dv=0 dx=0 dy=0 dh=0 dv=0
PairPos2: "'kern' Horizontal Kerning lookup 15-2" uniFE9F dx=-178 dy=0 dh=-178 dv=0 dx=0 dy=0 dh=0 dv=0
PairPos2: "'kern' Horizontal Kerning lookup 15-2" uniFE9B dx=-178 dy=0 dh=-178 dv=0 dx=0 dy=0 dh=0 dv=0
PairPos2: "'kern' Horizontal Kerning lookup 15-2" uni062B dx=-178 dy=0 dh=-178 dv=0 dx=0 dy=0 dh=0 dv=0
PairPos2: "'kern' Horizontal Kerning lookup 15-2" uniFE97 dx=-178 dy=0 dh=-178 dv=0 dx=0 dy=0 dh=0 dv=0
PairPos2: "'kern' Horizontal Kerning lookup 15-2" uni062A dx=-178 dy=0 dh=-178 dv=0 dx=0 dy=0 dh=0 dv=0
PairPos2: "'kern' Horizontal Kerning lookup 15-2" uni0629 dx=-178 dy=0 dh=-178 dv=0 dx=0 dy=0 dh=0 dv=0
PairPos2: "'kern' Horizontal Kerning lookup 15-2" uni0628 dx=-178 dy=0 dh=-178 dv=0 dx=0 dy=0 dh=0 dv=0
PairPos2: "'kern' Horizontal Kerning lookup 15-2" uni0627 dx=-143 dy=0 dh=-143 dv=0 dx=0 dy=0 dh=0 dv=0
PairPos2: "'kern' Horizontal Kerning lookup 15-2" uni0623 dx=-143 dy=0 dh=-143 dv=0 dx=0 dy=0 dh=0 dv=0
PairPos2: "'kern' Horizontal Kerning lookup 15-2" uni0622 dx=-143 dy=0 dh=-143 dv=0 dx=0 dy=0 dh=0 dv=0
PairPos2: "'kern' Horizontal Kerning lookup 15-2" uni0621 dx=-178 dy=0 dh=-178 dv=0 dx=0 dy=0 dh=0 dv=0
PairPos2: "'kern' Horizontal Kerning lookup 15-2" uniFB94 dx=-226 dy=0 dh=-226 dv=0 dx=0 dy=0 dh=0 dv=0
PairPos2: "'kern' Horizontal Kerning lookup 15-2" uniFB92 dx=-226 dy=0 dh=-226 dv=0 dx=0 dy=0 dh=0 dv=0
PairPos2: "'kern' Horizontal Kerning lookup 15-2" uni06AF dx=-226 dy=0 dh=-226 dv=0 dx=0 dy=0 dh=0 dv=0
PairPos2: "'kern' Horizontal Kerning lookup 15-2" afii57506 dx=-178 dy=0 dh=-178 dv=0 dx=0 dy=0 dh=0 dv=0
PairPos2: "'kern' Horizontal Kerning lookup 15-2" afii57440 dx=-178 dy=0 dh=-178 dv=0 dx=0 dy=0 dh=0 dv=0
PairPos2: "'kern' Horizontal Kerning lookup 15-2" uniFE8B dx=-178 dy=0 dh=-178 dv=0 dx=0 dy=0 dh=0 dv=0
Substitution2: "'fina' Terminal Forms in Arabic lookup 9 subtable" uniFEAE
EndChar

StartChar: uni0633
Encoding: 1587 1587 27
GlifName: uni0633
Width: 2470
VWidth: 2972
GlyphClass: 2
Flags: W
AnchorPoint: "Anchor-10" 1808.53 1157.1 basechar 0
AnchorPoint: "Anchor-7" 671.902 -736.086 basechar 0
LayerCount: 2
Fore
SplineSet
1368.95507812 38.810546875 m 1,0,1
 1362.37988281 -101.26953125 1362.37988281 -101.26953125 1311.84472656 -205.751953125 c 0,2,3
 1157.453125 -520.0078125 1157.453125 -520.0078125 727.338867188 -519.724609375 c 0,4,5
 407.588867188 -519.865234375 407.588867188 -519.865234375 244.477539062 -368.444335938 c 128,-1,6
 81.3662109375 -217.022460938 81.3662109375 -217.022460938 81.7529296875 81.0673828125 c 0,7,8
 82.0048828125 293.983398438 82.0048828125 293.983398438 174.545898438 517.767578125 c 2,9,-1
 182.180664062 536.228515625 l 1,10,-1
 200.649414062 528.616210938 l 1,11,-1
 359.169921875 463.278320312 l 1,12,-1
 377.272460938 455.81640625 l 1,13,-1
 370.197265625 437.560546875 l 2,14,15
 298.005859375 251.275390625 298.005859375 251.275390625 298.268554688 82.869140625 c 0,16,17
 298.139648438 -112.223632812 298.139648438 -112.223632812 405.3359375 -207.6640625 c 128,-1,18
 512.532226562 -303.104492188 512.532226562 -303.104492188 734.391601562 -303.203125 c 0,19,20
 949.639648438 -303.104492188 949.639648438 -303.104492188 1054.72070312 -198.263671875 c 128,-1,21
 1159.80175781 -93.4228515625 1159.80175781 -93.4228515625 1160.5546875 121.982421875 c 0,22,23
 1160.98925781 301.408203125 1160.98925781 301.408203125 1072.46875 483.004882812 c 2,24,-1
 1062.61035156 503.228515625 l 1,25,-1
 1083.84960938 510.649414062 l 1,26,-1
 1256.49121094 570.966796875 l 1,27,-1
 1275.8125 577.716796875 l 1,28,-1
 1282.11621094 558.245117188 l 1,29,-1
 1342.03515625 373.135742188 l 2,30,31
 1358.23828125 322.659179688 1358.23828125 322.659179688 1385.58496094 289.900390625 c 128,-1,32
 1412.93261719 257.140625 1412.93261719 257.140625 1452.33984375 241.067382812 c 128,-1,33
 1491.74707031 224.994140625 1491.74707031 224.994140625 1544.5 224.9921875 c 0,34,35
 1626.47949219 224.99609375 1626.47949219 224.99609375 1664.55175781 264.331054688 c 128,-1,36
 1702.625 303.665039062 1702.625 303.665039062 1702.30175781 388.594726562 c 0,37,38
 1702.00292969 445.33984375 1702.00292969 445.33984375 1699.2578125 488.399414062 c 2,39,-1
 1693.85742188 573.115234375 l 1,40,-1
 1692.65136719 592.041015625 l 1,41,-1
 1711.48632812 594.250976562 l 1,42,-1
 1876.21191406 613.583984375 l 1,43,-1
 1897.04003906 616.029296875 l 1,44,-1
 1898.49511719 595.107421875 l 1,45,-1
 1914.56835938 363.91015625 l 2,46,47
 1919.34375 292.389648438 1919.34375 292.389648438 1951.55566406 259.83203125 c 128,-1,48
 1983.76855469 227.275390625 1983.76855469 227.275390625 2047.9296875 227.5 c 0,49,50
 2109.5390625 227.71484375 2109.5390625 227.71484375 2140.11914062 273.15234375 c 128,-1,51
 2170.69824219 318.58984375 2170.69824219 318.58984375 2170.42285156 419.235351562 c 0,52,53
 2170.01171875 519.153320312 2170.01171875 519.153320312 2127.19140625 668.721679688 c 2,54,-1
 2121.58984375 688.287109375 l 1,55,-1
 2141.25 693.546875 l 1,56,-1
 2312.20117188 739.287109375 l 1,57,-1
 2330.67480469 744.23046875 l 1,58,-1
 2336.43945312 725.99609375 l 2,59,60
 2361.68359375 646.154296875 2361.68359375 646.154296875 2374.20410156 569.719726562 c 128,-1,61
 2386.72460938 493.28515625 2386.72460938 493.28515625 2386.43652344 420.360351562 c 0,62,63
 2386.21191406 303.276367188 2386.21191406 303.276367188 2354.27832031 215.805664062 c 128,-1,64
 2322.34570312 128.333984375 2322.34570312 128.333984375 2257.91503906 72.080078125 c 0,65,66
 2175.73242188 1.3564453125 2175.73242188 1.3564453125 2055.15234375 0.912109375 c 0,67,68
 1878.15332031 0.99609375 1878.15332031 0.99609375 1807.38476562 123.45703125 c 1,69,70
 1755.828125 61.9716796875 1755.828125 61.9716796875 1689.36132812 30.96484375 c 128,-1,71
 1622.89453125 -0.0419921875 1622.89453125 -0.0419921875 1542.79394531 -0.0810546875 c 0,72,73
 1490.55371094 -0.046875 1490.55371094 -0.046875 1447.00292969 9.640625 c 128,-1,74
 1403.45117188 19.328125 1403.45117188 19.328125 1368.95507812 38.810546875 c 1,0,1
EndSplineSet
Substitution2: "'fina' Terminal Forms in Arabic lookup 9 subtable" uniFEB2
Substitution2: "'medi' Medial Forms in Arabic lookup 11 subtable" uniFEB4
Substitution2: "'init' Initial Forms in Arabic lookup 13 subtable" uniFEB3
EndChar

StartChar: uni0635
Encoding: 1589 1589 29
GlifName: uni0635
Width: 2587
VWidth: 2972
GlyphClass: 2
Flags: W
AnchorPoint: "Anchor-7" 671.902 -736.086 basechar 0
AnchorPoint: "Anchor-10" 2056.53 1256.1 basechar 0
LayerCount: 2
Fore
SplineSet
1342.02832031 373.159179688 m 2,0,1
 1350.4765625 347.059570312 1350.4765625 347.059570312 1359.92480469 326.087890625 c 128,-1,2
 1369.37304688 305.116210938 1369.37304688 305.116210938 1378.66210938 291.12890625 c 128,-1,3
 1387.95117188 277.141601562 1387.95117188 277.141601562 1396.796875 268.44921875 c 128,-1,4
 1405.64355469 259.756835938 1405.64355469 259.756835938 1414.11914062 256.056640625 c 1,5,6
 1756.45410156 832.012695312 1756.45410156 832.012695312 2109.39160156 831.42578125 c 0,7,8
 2262.26367188 830.978515625 2262.26367188 830.978515625 2366.78027344 743.922851562 c 0,9,10
 2505.02148438 629.383789062 2505.02148438 629.383789062 2504.59667969 443.716796875 c 0,11,12
 2503.75683594 220.87890625 2503.75683594 220.87890625 2315.69433594 110.439453125 c 128,-1,13
 2127.63085938 0 2127.63085938 0 1763.15136719 0 c 2,14,-1
 1712.34082031 0 l 2,15,16
 1487.33789062 0 1487.33789062 0 1369.25195312 45.7353515625 c 1,17,18
 1363.57910156 -98.7900390625 1363.57910156 -98.7900390625 1311.84472656 -205.751953125 c 0,19,20
 1157.453125 -520.0078125 1157.453125 -520.0078125 727.338867188 -519.724609375 c 0,21,22
 407.588867188 -519.865234375 407.588867188 -519.865234375 244.477539062 -368.444335938 c 128,-1,23
 81.3662109375 -217.022460938 81.3662109375 -217.022460938 81.7529296875 81.0673828125 c 0,24,25
 82.0048828125 293.983398438 82.0048828125 293.983398438 174.545898438 517.767578125 c 2,26,-1
 182.180664062 536.228515625 l 1,27,-1
 200.649414062 528.616210938 l 1,28,-1
 359.169921875 463.278320312 l 1,29,-1
 377.272460938 455.81640625 l 1,30,-1
 370.197265625 437.560546875 l 2,31,32
 298.005859375 251.275390625 298.005859375 251.275390625 298.268554688 82.869140625 c 0,33,34
 298.139648438 -112.223632812 298.139648438 -112.223632812 405.3359375 -207.6640625 c 128,-1,35
 512.532226562 -303.104492188 512.532226562 -303.104492188 734.391601562 -303.203125 c 0,36,37
 949.639648438 -303.104492188 949.639648438 -303.104492188 1054.72070312 -198.263671875 c 128,-1,38
 1159.80175781 -93.4228515625 1159.80175781 -93.4228515625 1160.5546875 121.982421875 c 0,39,40
 1160.98925781 301.408203125 1160.98925781 301.408203125 1072.46875 483.004882812 c 2,41,-1
 1062.61035156 503.228515625 l 1,42,-1
 1083.84960938 510.649414062 l 1,43,-1
 1256.49121094 570.966796875 l 1,44,-1
 1275.8125 577.716796875 l 1,45,-1
 1282.11621094 558.245117188 l 1,46,-1
 1342.02832031 373.159179688 l 2,0,1
1758.73925781 224.534179688 m 2,47,48
 2282.05761719 224.982421875 2282.05761719 224.982421875 2282.66113281 435.440429688 c 0,49,50
 2282.96484375 526.533203125 2282.96484375 526.533203125 2213.64355469 574.424804688 c 0,51,52
 2192.1640625 589.2421875 2192.1640625 589.2421875 2166.91601562 596.776367188 c 128,-1,53
 2141.66699219 604.311523438 2141.66699219 604.311523438 2111.96679688 604.57421875 c 0,54,55
 1903.36621094 605.87890625 1903.36621094 605.87890625 1651.50683594 224.447265625 c 1,56,-1
 1758.73925781 224.534179688 l 2,47,48
EndSplineSet
Substitution2: "'fina' Terminal Forms in Arabic lookup 9 subtable" uniFEBA
Substitution2: "'medi' Medial Forms in Arabic lookup 11 subtable" uniFEBC
Substitution2: "'init' Initial Forms in Arabic lookup 13 subtable" uniFEBB
EndChar

StartChar: uni0637
Encoding: 1591 1591 31
GlifName: uni0637
Width: 1480
VWidth: 2972
GlyphClass: 2
Flags: W
AnchorPoint: "Anchor-10" 471.36 1526.58 basechar 0
AnchorPoint: "Anchor-7" 641.602 -216.453 basechar 0
LayerCount: 2
Fore
SplineSet
1399.67382812 443.709960938 m 0,0,1
 1398 221 1398 221 1210.22851562 110.426757812 c 0,2,3
 1022 0 1022 0 658.228515625 0 c 2,4,-1
 101.302734375 0 l 1,5,-1
 81.302734375 0 l 1,6,-1
 81.302734375 20 l 1,7,-1
 81.302734375 204.221679688 l 1,8,-1
 81.302734375 224.208007812 l 1,9,-1
 101.2890625 224.221679688 l 1,10,-1
 312.515625 224.370117188 l 1,11,-1
 375.6328125 324.471679688 l 1,12,-1
 375.6328125 1388.87402344 l 5,13,-1
 375.6328125 1408.87402344 l 5,14,-1
 395.6328125 1408.87402344 l 5,15,-1
 568.946289062 1408.87402344 l 5,16,-1
 588.946289062 1408.87402344 l 5,17,-1
 588.946289062 1388.87402344 l 5,18,-1
 588.946289062 618.8671875 l 1,19,20
 782 836 782 836 1004.76953125 831.422851562 c 0,21,22
 1082 830 1082 830 1146.55078125 808.286132812 c 0,23,24
 1211 786 1211 786 1261.87988281 743.904296875 c 0,25,26
 1400 629 1400 629 1399.67382812 443.709960938 c 0,0,1
1007.08886719 604.573242188 m 0,27,28
 795.551757812 604.963867188 795.551757812 604.963867188 546.415039062 224.534179688 c 1,29,-1
 653.815429688 224.534179688 l 2,30,31
 1176.15039062 224.983398438 1176.15039062 224.983398438 1177.73828125 435.475585938 c 0,32,33
 1177.97265625 526.533203125 1177.97265625 526.533203125 1108.71679688 574.426757812 c 0,34,35
 1065.69921875 604.0546875 1065.69921875 604.0546875 1007.08886719 604.573242188 c 0,27,28
EndSplineSet
Substitution2: "'fina' Terminal Forms in Arabic lookup 9 subtable" uniFEC2
Substitution2: "'medi' Medial Forms in Arabic lookup 11 subtable" uniFEC4
Substitution2: "'init' Initial Forms in Arabic lookup 13 subtable" uniFEC3
EndChar

StartChar: uni0639
Encoding: 1593 1593 33
GlifName: uni0639
Width: 1346
VWidth: 2972
GlyphClass: 2
Flags: W
AnchorPoint: "Anchor-7" 580.833 -790.619 basechar 0
AnchorPoint: "Anchor-10" 723.478 1386.07 basechar 0
LayerCount: 2
Fore
SplineSet
643.482421875 504.947265625 m 1,0,1
 816.834960938 534.012695312 816.834960938 534.012695312 941.107421875 534.546875 c 0,2,3
 1036.09179688 535.005859375 1036.09179688 535.005859375 1126.01367188 524.719726562 c 2,4,-1
 1146.14550781 522.416992188 l 1,5,-1
 1143.58007812 502.318359375 l 1,6,-1
 1121.22753906 327.158203125 l 1,7,-1
 1118.91113281 309.002929688 l 1,8,-1
 1100.62304688 309.704101562 l 2,9,10
 1072.15917969 310.794921875 1072.15917969 310.794921875 1049.4921875 311.439453125 c 128,-1,11
 1026.82421875 312.083007812 1026.82421875 312.083007812 1011.04882812 312.258789062 c 128,-1,12
 995.272460938 312.43359375 995.272460938 312.43359375 985.594726562 312.180664062 c 0,13,14
 635.22265625 302.2265625 635.22265625 302.2265625 465.173828125 192.701171875 c 128,-1,15
 295.125976562 83.17578125 295.125976562 83.17578125 295.240234375 -124.868164062 c 0,16,17
 295.165039062 -235.776367188 295.165039062 -235.776367188 348.426757812 -309.271484375 c 128,-1,18
 401.688476562 -382.766601562 401.688476562 -382.766601562 513.0859375 -420.47265625 c 128,-1,19
 624.482421875 -458.178710938 624.482421875 -458.178710938 795.296875 -458.266601562 c 0,20,21
 896.879882812 -458.135742188 896.879882812 -458.135742188 996.670898438 -434.778320312 c 128,-1,22
 1096.46191406 -411.420898438 1096.46191406 -411.420898438 1194.72460938 -364.705078125 c 2,23,-1
 1217.72167969 -353.771484375 l 1,24,-1
 1222.89453125 -378.705078125 l 1,25,-1
 1258.95410156 -552.53125 l 1,26,-1
 1262.10351562 -567.712890625 l 1,27,-1
 1248.18652344 -574.545898438 l 2,28,29
 1045.63574219 -674.004882812 1045.63574219 -674.004882812 783.049804688 -673.733398438 c 0,30,31
 398.358398438 -674.005859375 398.358398438 -674.005859375 219.544921875 -483.823242188 c 0,32,33
 85 -345.482421875 85 -345.482421875 84.9755859375 -132.310546875 c 0,34,35
 85 259.260742188 85 259.260742188 430.791015625 425.5 c 1,36,37
 394.6640625 470.877929688 394.6640625 470.877929688 370.497070312 518.090820312 c 128,-1,38
 346.330078125 565.303710938 346.330078125 565.303710938 334.112304688 614.63671875 c 128,-1,39
 321.89453125 663.969726562 321.89453125 663.969726562 321.84375 715.083007812 c 0,40,41
 321.884765625 733.334960938 321.884765625 733.334960938 323.719726562 751.586914062 c 128,-1,42
 325.553710938 769.837890625 325.553710938 769.837890625 329.177734375 788.076171875 c 128,-1,43
 332.801757812 806.313476562 332.801757812 806.313476562 338.1953125 824.537109375 c 128,-1,44
 343.588867188 842.76171875 343.588867188 842.76171875 350.765625 861.0390625 c 0,45,46
 364.850585938 896.107421875 364.850585938 896.107421875 385.963867188 928.4609375 c 128,-1,47
 407.077148438 960.814453125 407.077148438 960.814453125 435.16015625 990.501953125 c 0,48,49
 542.380859375 1104 542.380859375 1104 734 1104 c 0,50,51
 893.190429688 1104 893.190429688 1104 1076.95996094 978.18359375 c 2,52,-1
 1090.77539062 968.724609375 l 1,53,-1
 1083.89355469 953.459960938 l 1,54,-1
 1016.54492188 804.086914062 l 1,55,-1
 1007.34375 783.680664062 l 1,56,-1
 988.098632812 795.112304688 l 2,57,58
 915.436523438 838.2734375 915.436523438 838.2734375 854.161132812 859.583984375 c 128,-1,59
 792.884765625 880.89453125 792.884765625 880.89453125 743.947265625 880.802734375 c 0,60,61
 626.3046875 880.982421875 626.3046875 880.982421875 572.971679688 792.219726562 c 0,62,63
 546.022460938 748.380859375 546.022460938 748.380859375 546.20703125 702.16015625 c 0,64,65
 546.021484375 661.618164062 546.021484375 661.618164062 567.469726562 618.110351562 c 0,66,67
 577.278320312 598.348632812 577.278320312 598.348632812 596.474609375 569.721679688 c 128,-1,68
 615.670898438 541.094726562 615.670898438 541.094726562 643.482421875 504.947265625 c 1,0,1
EndSplineSet
Substitution2: "'fina' Terminal Forms in Arabic lookup 9 subtable" uniFECA
Substitution2: "'medi' Medial Forms in Arabic lookup 11 subtable" uniFECC
Substitution2: "'init' Initial Forms in Arabic lookup 13 subtable" uniFECB
EndChar

StartChar: afii57440
Encoding: 1600 1600 35
GlifName: afii57440
Width: 286
VWidth: 2972
GlyphClass: 2
Flags: W
AnchorPoint: "Anchor-10" 143.774 1396.11 basechar 0
AnchorPoint: "Anchor-7" 147.7 -214.739 basechar 0
LayerCount: 2
Fore
SplineSet
-6.9384765625 0 m 2,0,1
 -84.7783203125 0 -84.7783203125 0 -84.7783203125 108.313476562 c 2,2,-1
 -84.7783203125 127.163085938 l 2,3,4
 -84.9999977644 223.999023438 -84.9999977644 223.999023438 -6.9384765625 223.999023438 c 2,5,-1
 294.643554688 223.999023438 l 2,6,7
 334.771484375 224.003211718 334.771484375 224.003211718 334.771484375 127.174804688 c 2,8,-1
 334.771484375 108.350585938 l 2,9,10
 335 0 335 0 294.69140625 0 c 2,11,-1
 -6.9384765625 0 l 2,0,1
EndSplineSet
EndChar

StartChar: uni0643
Encoding: 1603 1603 38
GlifName: uni0643
Width: 1891
VWidth: 2972
GlyphClass: 2
Flags: W
AnchorPoint: "Anchor-7" 740.268 -216.468 basechar 0
AnchorPoint: "Anchor-10" 948.11 1432.05 basechar 0
LayerCount: 2
Fore
SplineSet
841.866210938 224.13671875 m 0,0,1
 1077 224 1077 224 1232.24804688 256.043945312 c 0,2,3
 1387 288 1387 288 1459.66210938 346.954101562 c 0,4,5
 1531.82910156 405.860503923 1531.82910156 405.860503923 1531.82910156 491.963867188 c 2,6,-1
 1531.82910156 1384.56640625 l 1,7,-1
 1531.82910156 1404.56640625 l 1,8,-1
 1551.82910156 1404.56640625 l 1,9,-1
 1729.70996094 1404.56640625 l 1,10,-1
 1749.70996094 1404.56640625 l 1,11,-1
 1749.70996094 1384.56640625 l 1,12,-1
 1749.70996094 494.338867188 l 2,13,14
 1750 0 1750 0 862.133789062 0 c 2,15,-1
 860.911132812 0 l 2,16,17
 476 0 476 0 277.879882812 126.299804688 c 0,18,19
 80 253 80 253 80.16015625 505.848632812 c 0,20,21
 79.9996761253 645.281397732 79.9996761253 645.281397732 136.416015625 770.975585938 c 2,22,-1
 144.5078125 789.00390625 l 1,23,-1
 338.241210938 714.834960938 l 5,24,-1
 330.9921875 696.787109375 l 2,25,26
 299 617 299 617 299.424804688 534.6171875 c 0,27,28
 300 380 300 380 433.07421875 302.176757812 c 0,29,30
 566 224 566 224 841.866210938 224.13671875 c 0,0,1
688.282226562 701.901367188 m 2,31,32
 781.170898438 691.98828125 781.170898438 691.98828125 848.673828125 691.266601562 c 0,33,34
 951.088867188 691.009765625 951.088867188 691.009765625 1000.90136719 711.40234375 c 0,35,36
 1042.21289062 728.465820312 1042.21289062 728.465820312 1042.74804688 761.861328125 c 0,37,38
 1042.8515625 779.568359375 1042.8515625 779.568359375 1037.18066406 792.35546875 c 128,-1,39
 1031.50976562 805.142578125 1031.50976562 805.142578125 1019.26953125 815.299804688 c 0,40,41
 993.326171875 838.01171875 993.326171875 838.01171875 938.215820312 845.658203125 c 0,42,43
 825.467773438 862.799804688 825.467773438 862.799804688 767.135742188 921.916015625 c 128,-1,44
 708.803710938 981.032226562 708.803710938 981.032226562 710.935546875 1078.95507812 c 0,45,46
 716.451171875 1303.61425781 716.451171875 1303.61425781 1122.140625 1333.49902344 c 2,47,-1
 1143.61035156 1335.08007812 l 1,48,-1
 1143.61035156 1313.55273438 l 1,49,-1
 1143.61035156 1184.98925781 l 1,50,-1
 1143.61035156 1166.75195312 l 1,51,-1
 1125.45019531 1165.07421875 l 2,52,53
 1000.86230469 1153.56152344 1000.86230469 1153.56152344 942.4765625 1127.72949219 c 128,-1,54
 884.090820312 1101.89746094 884.090820312 1101.89746094 884.139648438 1070.44238281 c 0,55,56
 884.032226562 1013.16894531 884.032226562 1013.16894531 1005.96191406 994.5234375 c 0,57,58
 1108.42285156 978.732421875 1108.42285156 978.732421875 1162.06542969 920.586914062 c 128,-1,59
 1215.70703125 862.440429688 1215.70703125 862.440429688 1215.36425781 766.06640625 c 0,60,61
 1215.16601562 700.15234375 1215.16601562 700.15234375 1182.24511719 648.711914062 c 128,-1,62
 1149.32421875 597.272460938 1149.32421875 597.272460938 1085.99707031 562.692382812 c 0,63,64
 1006.10546875 518.997070312 1006.10546875 518.997070312 866.004882812 519.088867188 c 0,65,66
 838.748046875 519.05859375 838.748046875 519.05859375 809.294921875 520.78125 c 128,-1,67
 779.841796875 522.502929688 779.841796875 522.502929688 748.338867188 525.956054688 c 128,-1,68
 716.836914062 529.409179688 716.836914062 529.409179688 683.118164062 534.598632812 c 2,69,-1
 666.16015625 537.208984375 l 1,70,-1
 666.16015625 554.366210938 l 1,71,-1
 666.16015625 682.014648438 l 1,72,-1
 666.16015625 704.262695312 l 1,73,-1
 688.282226562 701.901367188 l 2,31,32
EndSplineSet
Substitution2: "'fina' Terminal Forms in Arabic lookup 9 subtable" uniFEDA
Substitution2: "'medi' Medial Forms in Arabic lookup 11 subtable" uniFEDC
Substitution2: "'init' Initial Forms in Arabic lookup 13 subtable" uniFEDB
EndChar

StartChar: uni0644
Encoding: 1604 1604 39
GlifName: uni0644
Width: 1391
VWidth: 2972
GlyphClass: 2
Flags: W
AnchorPoint: "Anchor-7" 691.902 -736.086 basechar 0
AnchorPoint: "Anchor-10" 603.908 1191.66 basechar 0
LayerCount: 2
Fore
SplineSet
1042.60449219 89.8427734375 m 2,0,-1
 1045.91699219 1388.04296875 l 5,1,-1
 1045.96679688 1407.99316406 l 5,2,-1
 1065.91699219 1407.99316406 l 5,3,-1
 1237.88574219 1407.99316406 l 5,4,-1
 1257.89648438 1407.99316406 l 5,5,-1
 1257.88574219 1387.98242188 l 5,6,-1
 1257.18554688 129.315429688 l 2,7,8
 1257 -192 1257 -192 1112.10253906 -355.747070312 c 0,9,10
 967 -520 967 -520 681.438476562 -519.734375 c 0,11,12
 385 -520 385 -520 233.616210938 -373.380859375 c 0,13,14
 82 -227 82 -227 82.740234375 60.7568359375 c 0,15,16
 82.9999160066 266.933312702 82.9999160066 266.933312702 167.821289062 474.052734375 c 2,17,-1
 175.41796875 492.602539062 l 1,18,-1
 193.950195312 484.963867188 l 1,19,-1
 352.474609375 419.624023438 l 1,20,-1
 370.662109375 412.126953125 l 1,21,-1
 363.467773438 393.818359375 l 2,22,23
 298 227 298 227 298.24609375 58.1943359375 c 0,24,25
 298 -125 298 -125 392.360351562 -214.045898438 c 0,26,27
 487 -303 487 -303 681.7734375 -303.2265625 c 0,28,29
 864 -303 864 -303 953.293945312 -206.575195312 c 0,30,31
 1042 -110 1042 -110 1042.60449219 89.8427734375 c 2,0,-1
EndSplineSet
Substitution2: "'fina' Terminal Forms in Arabic lookup 9 subtable" uniFEDE
Substitution2: "'medi' Medial Forms in Arabic lookup 11 subtable" uniFEE0
Substitution2: "'init' Initial Forms in Arabic lookup 13 subtable" uniFEDF
EndChar

StartChar: uni0645
Encoding: 1605 1605 40
GlifName: uni0645
Width: 1242
VWidth: 2622
GlyphClass: 2
Flags: W
AnchorPoint: "Anchor-7" 724.983 -316.909 basechar 0
AnchorPoint: "Anchor-10" 769.239 1154.48 basechar 0
LayerCount: 2
Fore
SplineSet
842.077148438 198 m 0,0,1
 899.614257812 197.557617188 899.614257812 197.557617188 925.79296875 225.495117188 c 128,-1,2
 951.970703125 253.432617188 951.970703125 253.432617188 952.357421875 316.479492188 c 0,3,4
 951.59765625 344.670898438 951.59765625 344.670898438 946.564453125 369.8671875 c 128,-1,5
 941.53125 395.063476562 941.53125 395.063476562 931.921875 419.423828125 c 0,6,7
 893.438476562 514.233398438 893.438476562 514.233398438 791.478515625 516.0078125 c 0,8,9
 733.681640625 516.856445312 733.681640625 516.856445312 687.158203125 472.82421875 c 128,-1,10
 640.634765625 428.79296875 640.634765625 428.79296875 604.899414062 334.682617188 c 1,11,12
 764.21484375 198 764.21484375 198 842.077148438 198 c 0,0,1
1163.39257812 329.012695312 m 0,13,14
 1163.18847656 255.22265625 1163.18847656 255.22265625 1145.03417969 193.318359375 c 128,-1,15
 1126.87988281 131.415039062 1126.87988281 131.415039062 1090.60351562 82.1904296875 c 0,16,17
 1071.42773438 55.791015625 1071.42773438 55.791015625 1046.52734375 35.9248046875 c 128,-1,18
 1021.62695312 16.05859375 1021.62695312 16.05859375 991.5859375 3.0146484375 c 128,-1,19
 961.544921875 -10.0302734375 961.544921875 -10.0302734375 926.629882812 -16.5654296875 c 128,-1,20
 891.71484375 -23.1015625 891.71484375 -23.1015625 851.995117188 -23.13671875 c 0,21,22
 744.352539062 -22.9921875 744.352539062 -22.9921875 596.375976562 67.5869140625 c 0,23,24
 549.205078125 96.544921875 549.205078125 96.544921875 495.06640625 124.192382812 c 0,25,26
 480.78515625 131.51171875 480.78515625 131.51171875 464.392578125 134.913085938 c 128,-1,27
 448 138.315429688 448 138.315429688 428.778320312 137.75 c 0,28,29
 367.310546875 137.045898438 367.310546875 137.045898438 331.590820312 31.66015625 c 128,-1,30
 295.87109375 -73.724609375 295.87109375 -73.724609375 295.748046875 -292.993164062 c 0,31,32
 295.999023438 -490.145507812 295.999023438 -490.145507812 309.743164062 -653.1328125 c 2,33,-1
 311.571289062 -674.813476562 l 1,34,-1
 289.813476562 -674.813476562 l 1,35,-1
 110.231445312 -674.813476562 l 1,36,-1
 91.4755859375 -674.813476562 l 1,37,-1
 90.2724609375 -656.095703125 l 2,38,39
 79 -480.643554688 79 -480.643554688 78.9765625 -320.999023438 c 0,40,41
 79 27.7763671875 79 27.7763671875 160.169921875 188.059570312 c 0,42,43
 199.326171875 264.8671875 199.326171875 264.8671875 254.3828125 311.052734375 c 128,-1,44
 309.439453125 357.23828125 309.439453125 357.23828125 378.265625 370.521484375 c 1,45,46
 530.060546875 743.9453125 530.060546875 743.9453125 788.821289062 745.381835938 c 0,47,48
 960.430664062 746.036132812 960.430664062 746.036132812 1062.46191406 621.686523438 c 0,49,50
 1162.98242188 499.17578125 1162.98242188 499.17578125 1163.39257812 329.012695312 c 0,13,14
EndSplineSet
Substitution2: "'init' Initial Forms in Arabic lookup 13 subtable" uniFEE3
Substitution2: "'medi' Medial Forms in Arabic lookup 11 subtable" uniFEE4
Substitution2: "'fina' Terminal Forms in Arabic lookup 9 subtable" uniFEE2
EndChar

StartChar: uni0647
Encoding: 1607 1607 42
GlifName: uni0647
Width: 942
VWidth: 2972
GlyphClass: 2
Flags: W
AnchorPoint: "Anchor-10" 424.775 1231.01 basechar 0
AnchorPoint: "Anchor-7" 450.63 -220.576 basechar 0
LayerCount: 2
Fore
SplineSet
462.4765625 637.9765625 m 1,0,1
 427.625 606.634765625 427.625 606.634765625 399.786132812 576.685546875 c 128,-1,2
 371.946289062 546.735351562 371.946289062 546.735351562 351.8046875 519.223632812 c 128,-1,3
 331.6640625 491.7109375 331.6640625 491.7109375 318.252929688 465.772460938 c 128,-1,4
 304.841796875 439.833007812 304.841796875 439.833007812 298.373046875 416.299804688 c 128,-1,5
 291.904296875 392.766601562 291.904296875 392.766601562 291.884765625 370.987304688 c 0,6,7
 291.936523438 295.940429688 291.936523438 295.940429688 335.745117188 259.967773438 c 128,-1,8
 379.5546875 223.99609375 379.5546875 223.99609375 475.344726562 223.9921875 c 0,9,10
 572.327148438 223.99609375 572.327148438 223.99609375 616.51171875 260.241210938 c 128,-1,11
 660.696289062 296.486328125 660.696289062 296.486328125 660.423828125 372.075195312 c 0,12,13
 660.379882812 384.234375 660.379882812 384.234375 657.358398438 397.560546875 c 128,-1,14
 654.3359375 410.88671875 654.3359375 410.88671875 648.336914062 425.424804688 c 128,-1,15
 642.336914062 439.962890625 642.336914062 439.962890625 633.163085938 455.66796875 c 128,-1,16
 623.98828125 471.374023438 623.98828125 471.374023438 611.846679688 488.073242188 c 128,-1,17
 599.704101562 504.7734375 599.704101562 504.7734375 584.177734375 522.654296875 c 128,-1,18
 568.650390625 540.534179688 568.650390625 540.534179688 550.165039062 559.19140625 c 128,-1,19
 531.6796875 577.848632812 531.6796875 577.848632812 509.599609375 597.700195312 c 128,-1,20
 487.51953125 617.551757812 487.51953125 617.551757812 462.4765625 637.9765625 c 1,0,1
395.482421875 983.55859375 m 2,21,22
 871.0078125 635.133789062 871.0078125 635.133789062 870.791992188 366.379882812 c 0,23,24
 871.012695312 165.896484375 871.012695312 165.896484375 696.852539062 57.53515625 c 0,25,26
 668.47265625 39.8115234375 668.47265625 39.8115234375 634.196289062 28.0068359375 c 128,-1,27
 599.920898438 16.203125 599.920898438 16.203125 560.59765625 10.337890625 c 128,-1,28
 521.2734375 4.47265625 521.2734375 4.47265625 476.127929688 4.1943359375 c 0,29,30
 350.291015625 3.9921875 350.291015625 3.9921875 260.5078125 48.91015625 c 0,31,32
 80.978515625 138.6484375 80.978515625 138.6484375 81.3681640625 365.788085938 c 0,33,34
 80.998046875 574.041015625 80.998046875 574.041015625 299.583984375 793.672851562 c 1,35,-1
 270.795898438 818.978515625 l 1,36,-1
 256.923828125 831.171875 l 1,37,-1
 267.9765625 845.96875 l 1,38,-1
 367.638671875 979.39453125 l 1,39,-1
 379.498046875 995.271484375 l 1,40,-1
 395.482421875 983.55859375 l 2,21,22
EndSplineSet
Substitution2: "'fina' Terminal Forms in Arabic lookup 9 subtable" uniFEEA
Substitution2: "'medi' Medial Forms in Arabic lookup 11 subtable" uniFEEC
Substitution2: "'init' Initial Forms in Arabic lookup 13 subtable" uniFEEB
EndChar

StartChar: uni0648
Encoding: 1608 1608 43
GlifName: uni0648
Width: 860
VWidth: 2164
GlyphClass: 2
Flags: W
AnchorPoint: "Anchor-7" 412.969 -647.998 basechar 0
AnchorPoint: "Anchor-10" 473.256 1132.2 basechar 0
LayerCount: 2
Fore
SplineSet
98.2421875 -310.2109375 m 2,0,1
 299.178710938 -273.153320312 299.178710938 -273.153320312 419.426757812 -192.799804688 c 128,-1,2
 539.674804688 -112.446289062 539.674804688 -112.446289062 582.150390625 9.453125 c 1,3,4
 549.770507812 5.517578125 549.770507812 5.517578125 526.403320312 3.0126953125 c 128,-1,5
 503.036132812 0.5087890625 503.036132812 0.5087890625 485.96484375 -0.8095703125 c 128,-1,6
 468.893554688 -2.126953125 468.893554688 -2.126953125 458.280273438 -2.1884765625 c 0,7,8
 269.758789062 -3.123046875 269.758789062 -3.123046875 171.380859375 77.8271484375 c 128,-1,9
 73.001953125 158.776367188 73.001953125 158.776367188 73.0048828125 318.352539062 c 0,10,11
 73 443.51953125 73 443.51953125 126.618164062 556.088867188 c 0,12,13
 175.852539062 658.66015625 175.852539062 658.66015625 252.073242188 711.348632812 c 128,-1,14
 328.293945312 764.036132812 328.293945312 764.036132812 429.11328125 764.077148438 c 0,15,16
 465.6171875 764.063476562 465.6171875 764.063476562 498.8828125 757.10546875 c 128,-1,17
 532.147460938 750.147460938 532.147460938 750.147460938 561.75 736.418945312 c 128,-1,18
 591.3515625 722.690429688 591.3515625 722.690429688 617.530273438 702.311523438 c 128,-1,19
 643.708984375 681.93359375 643.708984375 681.93359375 666.20703125 655.043945312 c 128,-1,20
 688.705078125 628.154296875 688.705078125 628.154296875 707.584960938 594.911132812 c 128,-1,21
 726.463867188 561.668945312 726.463867188 561.668945312 741.634765625 522.17578125 c 0,22,23
 801.002929688 369.75 801.002929688 369.75 800.854492188 188.004882812 c 0,24,25
 800.928710938 -98.919921875 800.928710938 -98.919921875 641.3828125 -273.756835938 c 128,-1,26
 481.837890625 -448.594726562 481.837890625 -448.594726562 167.6953125 -507.655273438 c 2,27,-1
 151.435546875 -510.712890625 l 1,28,-1
 145.385742188 -495.314453125 l 1,29,-1
 83.2548828125 -337.193359375 l 1,30,-1
 74.380859375 -314.611328125 l 1,31,-1
 98.2421875 -310.2109375 l 2,0,1
589.541015625 236.173828125 m 1,32,33
 566.250976562 535.016601562 566.250976562 535.016601562 417.411132812 535.124023438 c 0,34,35
 335.359375 535.018554688 335.359375 535.018554688 299.36328125 428.494140625 c 0,36,37
 290.619140625 402.90234375 290.619140625 402.90234375 286.352539062 378.9921875 c 128,-1,38
 282.084960938 355.08203125 282.084960938 355.08203125 282.159179688 332.583984375 c 0,39,40
 282.090820312 273.453125 282.090820312 273.453125 323.766601562 244.584960938 c 128,-1,41
 365.44140625 215.716796875 365.44140625 215.716796875 458.797851562 216.362304688 c 0,42,43
 521.59375 216.91015625 521.59375 216.91015625 589.541015625 236.173828125 c 1,32,33
EndSplineSet
Substitution2: "'fina' Terminal Forms in Arabic lookup 9 subtable" uniFEEE
EndChar

StartChar: uni0649
Encoding: 1609 1609 44
GlifName: uni0649
Width: 1504
VWidth: 2972
GlyphClass: 2
Flags: MW
AnchorPoint: "Anchor-7" 671.902 -696.086 basechar 0
AnchorPoint: "Anchor-10" 727.6 976.22 basechar 0
LayerCount: 2
Fore
SplineSet
298.268554688 104.241210938 m 0,0,1
 298.139648438 -90.95703125 298.139648438 -90.95703125 406.951171875 -186.890625 c 128,-1,2
 515.763671875 -282.825195312 515.763671875 -282.825195312 740.958007812 -283.607421875 c 0,3,4
 914.595703125 -283.990234375 914.595703125 -283.990234375 1050.58398438 -220.720703125 c 0,5,6
 1120.23925781 -188.408203125 1120.23925781 -188.408203125 1172.51464844 -134.6953125 c 0,7,8
 1221.97851562 -83.8935546875 1221.97851562 -83.8935546875 1221.80761719 -20.359375 c 0,9,10
 1221.85058594 -7.6337890625 1221.85058594 -7.6337890625 1217.38085938 0.0185546875 c 128,-1,11
 1212.91210938 7.669921875 1212.91210938 7.669921875 1199.81152344 12.2724609375 c 128,-1,12
 1186.70996094 16.8759765625 1186.70996094 16.8759765625 1163.44628906 17.0146484375 c 2,13,-1
 1050.27929688 17.693359375 l 2,14,15
 919.901367188 18.376953125 919.901367188 18.376953125 850.403320312 73.796875 c 128,-1,16
 780.905273438 129.217773438 780.905273438 129.217773438 780.791992188 236.795898438 c 0,17,18
 780.899414062 334.823242188 780.899414062 334.823242188 812.336914062 418.563476562 c 128,-1,19
 843.7734375 502.303710938 843.7734375 502.303710938 906.260742188 570.518554688 c 0,20,21
 1066.79199219 745.549804688 1066.79199219 745.549804688 1357 745.549804688 c 2,22,-1
 1378.37597656 745.549804688 l 1,23,-1
 1398.40722656 745.549804688 l 1,24,-1
 1398.37597656 725.518554688 l 1,25,-1
 1398.0703125 532.708984375 l 1,26,-1
 1398.0390625 512.740234375 l 1,27,-1
 1378.0703125 512.740234375 l 1,28,-1
 1355.98339844 512.740234375 l 2,29,30
 1202.27929688 512.990234375 1202.27929688 512.990234375 1102.7578125 443.46875 c 0,31,32
 1052.36132812 408.307617188 1052.36132812 408.307617188 1027.75195312 366.748046875 c 128,-1,33
 1003.14257812 325.188476562 1003.14257812 325.188476562 1002.43164062 275.7109375 c 0,34,35
 1002.265625 264.206054688 1002.265625 264.206054688 1004.53613281 257.911132812 c 128,-1,36
 1006.80761719 251.6171875 1006.80761719 251.6171875 1010.53613281 248.588867188 c 0,37,38
 1021.97460938 239.166015625 1021.97460938 239.166015625 1051.96679688 239.215820312 c 2,39,-1
 1171.01074219 239.413085938 l 2,40,41
 1295.51171875 239.721679688 1295.51171875 239.721679688 1361.8359375 184.03515625 c 128,-1,42
 1428.16113281 128.348632812 1428.16113281 128.348632812 1428.3515625 20.142578125 c 0,43,44
 1427.984375 -282.852539062 1427.984375 -282.852539062 1128.31835938 -419.8984375 c 0,45,46
 955.365234375 -498.99609375 955.365234375 -498.99609375 735.979492188 -499.208984375 c 0,47,48
 412.977539062 -499.102539062 412.977539062 -499.102539062 247.930664062 -347.877929688 c 128,-1,49
 82.8837890625 -196.653320312 82.8837890625 -196.653320312 82.76171875 101.032226562 c 0,50,51
 83.0048828125 319.073242188 83.0048828125 319.073242188 194.061523438 581.143554688 c 2,52,-1
 201.7890625 599.376953125 l 1,53,-1
 220.09765625 591.831054688 l 1,54,-1
 378.62109375 526.491210938 l 1,55,-1
 397.189453125 518.837890625 l 1,56,-1
 389.458984375 500.301757812 l 2,57,58
 298.005859375 281.010742188 298.005859375 281.010742188 298.268554688 104.241210938 c 0,0,1
EndSplineSet
Substitution2: "'fina' Terminal Forms in Arabic lookup 9 subtable" uniFEF0
Substitution2: "'medi' Medial Forms in Arabic lookup 11 subtable" uniFBE9
Substitution2: "'init' Initial Forms in Arabic lookup 13 subtable" uniFBE8
EndChar

StartChar: uni064B
Encoding: 1611 1611 46
GlifName: uni064B_
Width: -26
VWidth: 2316
GlyphClass: 4
Flags: W
AnchorPoint: "Anchor-10" 593.551 1113.65 mark 0
AnchorPoint: "Anchor-9" 593.551 1113.65 mark 0
AnchorPoint: "Anchor-1" 553.285 1596.25 basemark 0
AnchorPoint: "Anchor-1" 593.551 1113.65 mark 0
LayerCount: 2
Fore
SplineSet
316.700195312 1076.40039062 m 1,0,-1
 316.700195312 1179.97753906 l 1,1,-1
 316.700195312 1186.69103815 l 1,2,-1
 322.91384908 1189.23300135 l 1,3,-1
 778.313263143 1375.5337826 l 1,4,-1
 792.099609375 1381.17368242 l 1,5,-1
 792.099609375 1366.27832031 l 1,6,-1
 792.099609375 1262.70019531 l 1,7,-1
 792.099609375 1255.98668289 l 1,8,-1
 785.885938605 1253.44472606 l 1,9,-1
 330.486524542 1067.14492137 l 1,10,-1
 316.700195312 1061.50505807 l 1,11,-1
 316.700195312 1076.40039062 l 1,0,-1
316.700195312 1288.40039062 m 1,12,-1
 316.700195312 1391.97753906 l 1,13,-1
 316.700195312 1398.69103815 l 1,14,-1
 322.91384908 1401.23300135 l 1,15,-1
 778.313263143 1587.5337826 l 1,16,-1
 792.099609375 1593.17368242 l 1,17,-1
 792.099609375 1578.27832031 l 1,18,-1
 792.099609375 1474.70019531 l 1,19,-1
 792.099609375 1467.98668289 l 1,20,-1
 785.885938605 1465.44472606 l 1,21,-1
 330.486524542 1279.14492137 l 1,22,-1
 316.700195312 1273.50505807 l 1,23,-1
 316.700195312 1288.40039062 l 1,12,-1
EndSplineSet
EndChar

StartChar: uni064C
Encoding: 1612 1612 47
GlifName: uni064C_
Width: -26
VWidth: 2316
GlyphClass: 4
Flags: W
AnchorPoint: "Anchor-10" 680.906 1218.67 mark 0
AnchorPoint: "Anchor-9" 680.906 1218.67 mark 0
AnchorPoint: "Anchor-1" 571.739 1915.46 basemark 0
AnchorPoint: "Anchor-1" 680.906 1218.67 mark 0
LayerCount: 2
Fore
SplineSet
595.332988616 1710.73949001 m 0,0,1
 590.936791136 1705.56224996 590.936791136 1705.56224996 587.657875341 1700.09285866 c 128,-1,2
 584.378959546 1694.62346735 584.378959546 1694.62346735 582.190196765 1688.80538407 c 128,-1,3
 580.001433983 1682.98730079 580.001433983 1682.98730079 578.889314262 1676.82567593 c 128,-1,4
 577.777194541 1670.66405107 577.777194541 1670.66405107 577.714102801 1664.06956461 c 0,5,6
 577.837544302 1639.00756958 577.837544302 1639.00756958 592.325803191 1620.47765325 c 128,-1,7
 606.81406208 1601.94773693 606.81406208 1601.94773693 637.457754306 1589.06409619 c 0,8,9
 642.632877748 1586.88829992 642.632877748 1586.88829992 649.343514408 1584.39381355 c 128,-1,10
 656.054151068 1581.89932719 656.054151068 1581.89932719 664.258102478 1579.10109687 c 128,-1,11
 672.462053887 1576.30286655 672.462053887 1576.30286655 682.168599427 1573.19904567 c 128,-1,12
 691.875144968 1570.0952248 691.875144968 1570.0952248 703.013938048 1566.70926047 c 1,13,14
 725.00025965 1607.35703093 725.00025965 1607.35703093 725.001953127 1648.82011357 c 0,15,16
 725.001035166 1694.96419042 725.001035166 1694.96419042 707.752262602 1715.78725957 c 128,-1,17
 690.503490037 1736.61032872 690.503490037 1736.61032872 654.369293948 1736.29418675 c 0,18,19
 644.701357554 1736.22700335 644.701357554 1736.22700335 636.245503082 1734.59458644 c 128,-1,20
 627.78964861 1732.96216953 627.78964861 1732.96216953 620.468368965 1729.74486852 c 128,-1,21
 613.147089319 1726.5275675 613.147089319 1726.5275675 606.913689328 1721.80230354 c 128,-1,22
 600.680289337 1717.07703957 600.680289337 1717.07703957 595.332988616 1710.73949001 c 0,0,1
328.794175989 1514.66508857 m 2,23,24
 330.854530626 1403.67155877 330.854530626 1403.67155877 362.043298008 1351.18176536 c 128,-1,25
 393.23206539 1298.69197195 393.23206539 1298.69197195 452.435717992 1299.2748766 c 0,26,27
 519.908803243 1299.95903071 519.908803243 1299.95903071 593.516393978 1371.25249643 c 0,28,29
 633.301872698 1410.50617478 633.301872698 1410.50617478 669.71311544 1479.12629336 c 1,30,-1
 652.935409954 1482.68687219 l 2,31,32
 618.744621666 1490.04763248 618.744621666 1490.04763248 591.753761594 1500.38731518 c 128,-1,33
 564.762901521 1510.72699787 564.762901521 1510.72699787 544.189389231 1524.67339062 c 128,-1,34
 523.615876941 1538.61978337 523.615876941 1538.61978337 510.334967988 1556.01050735 c 0,35,36
 493.260007915 1578.71173903 493.260007915 1578.71173903 484.630003958 1603.56743182 c 128,-1,37
 476 1628.4231246 476 1628.4231246 476 1655.09960938 c 0,38,39
 476 1708.38809745 476 1708.38809745 494.163645835 1744.24880196 c 0,40,41
 540.889269719 1834.97555686 540.889269719 1834.97555686 650.113950745 1835.41389881 c 0,42,43
 726.006785132 1836.0330194 726.006785132 1836.0330194 772.146698583 1791.46525142 c 0,44,45
 789.194599828 1774.96232863 789.194599828 1774.96232863 800.588811506 1753.51021729 c 128,-1,46
 811.983023185 1732.05810595 811.983023185 1732.05810595 817.619402999 1706.35287682 c 128,-1,47
 823.255782813 1680.64764769 823.255782813 1680.64764769 823.39028863 1650.47664788 c 0,48,49
 823.962530996 1612.55825469 823.962530996 1612.55825469 805.141720143 1550.42903107 c 1,50,-1
 822.39407597 1549.52321916 l 2,51,52
 851.343008583 1547.99581168 851.343008583 1547.99581168 880.659935647 1547.51820491 c 2,53,-1
 890.497070312 1547.35797083 l 1,54,-1
 890.497070312 1537.51953125 l 1,55,-1
 890.497070312 1459.00878906 l 1,56,-1
 890.497070312 1448.76103296 l 1,57,-1
 880.252382446 1449.01178312 l 2,58,59
 839.883564296 1449.99985495 839.883564296 1449.99985495 828.933500934 1451.05274565 c 2,60,-1
 760.098965306 1457.671451 l 1,61,62
 713.287940518 1348.35514582 713.287940518 1348.35514582 626.599967731 1273.58686553 c 0,63,64
 543.763167734 1201.00157435 543.763167734 1201.00157435 453.707735365 1200.96387805 c 0,65,66
 258.158918039 1199.94878 258.158918039 1199.94878 253.148730662 1514.3201408 c 2,67,-1
 252.986819431 1524.47949219 l 1,68,-1
 263.147460938 1524.47949219 l 1,69,-1
 318.795898438 1524.47949219 l 1,70,-1
 328.611992829 1524.47949219 l 1,71,-1
 328.794175989 1514.66508857 l 2,23,24
EndSplineSet
EndChar

StartChar: uni064D
Encoding: 1613 1613 48
GlifName: uni064D_
Width: -26
VWidth: 2316
GlyphClass: 4
Flags: W
AnchorPoint: "Anchor-7" 546.278 61.7109 mark 0
AnchorPoint: "Anchor-6" 546.278 61.7109 mark 0
AnchorPoint: "Anchor-0" 592.022 -407.025 basemark 0
AnchorPoint: "Anchor-0" 546.278 61.7109 mark 0
LayerCount: 2
Fore
SplineSet
322.099609375 -446 m 1,0,-1
 322.099609375 -342.422851562 l 1,1,-1
 322.099609375 -335.709347019 l 1,2,-1
 328.313270098 -333.167386426 l 1,3,-1
 783.713660723 -146.866605176 l 1,4,-1
 797.5 -141.226720295 l 1,5,-1
 797.5 -156.122070312 l 1,6,-1
 797.5 -259.700195312 l 1,7,-1
 797.5 -266.413713179 l 1,8,-1
 791.286322275 -268.955667403 l 1,9,-1
 335.88593165 -455.255472091 l 1,10,-1
 322.099609375 -460.895320453 l 1,11,-1
 322.099609375 -446 l 1,0,-1
322.099609375 -234 m 1,12,-1
 322.099609375 -130.422851562 l 1,13,-1
 322.099609375 -123.709347019 l 1,14,-1
 328.313270098 -121.167386426 l 1,15,-1
 783.713660723 65.1333948234 l 1,16,-1
 797.5 70.7732797042 l 1,17,-1
 797.5 55.8779296875 l 1,18,-1
 797.5 -47.7001953125 l 1,19,-1
 797.5 -54.4137131796 l 1,20,-1
 791.286322275 -56.9556674038 l 1,21,-1
 335.88593165 -243.255472091 l 1,22,-1
 322.099609375 -248.895320453 l 1,23,-1
 322.099609375 -234 l 1,12,-1
EndSplineSet
EndChar

StartChar: uni064E
Encoding: 1614 1614 49
GlifName: uni064E_
Width: -26
VWidth: 2316
GlyphClass: 4
Flags: W
AnchorPoint: "Anchor-10" 581.66 1364.63 mark 0
AnchorPoint: "Anchor-9" 581.66 1364.63 mark 0
AnchorPoint: "Anchor-1" 541.396 1651.77 basemark 0
AnchorPoint: "Anchor-1" 581.66 1364.63 mark 0
LayerCount: 2
Fore
SplineSet
286.099609375 1349.09960938 m 1,0,-1
 286.099609375 1452.67773438 l 1,1,-1
 286.099609375 1459.39123892 l 1,2,-1
 292.313270098 1461.93319952 l 1,3,-1
 747.713660723 1648.23398076 l 1,4,-1
 761.5 1653.87386564 l 1,5,-1
 761.5 1638.97851562 l 1,6,-1
 761.5 1535.40039062 l 1,7,-1
 761.5 1528.68688608 l 1,8,-1
 755.286339277 1526.14492548 l 1,9,-1
 299.885948652 1339.84414424 l 1,10,-1
 286.099609375 1334.20425936 l 1,11,-1
 286.099609375 1349.09960938 l 1,0,-1
EndSplineSet
EndChar

StartChar: uni064F
Encoding: 1615 1615 50
GlifName: uni064F_
Width: -26
VWidth: 2316
GlyphClass: 4
Flags: W
AnchorPoint: "Anchor-10" 591.295 1299.37 mark 0
AnchorPoint: "Anchor-9" 591.295 1299.37 mark 0
AnchorPoint: "Anchor-1" 570.134 1910.4 basemark 0
AnchorPoint: "Anchor-1" 591.295 1299.37 mark 0
LayerCount: 2
Fore
SplineSet
812.652665768 1454.00195313 m 2,0,1
 751.78021351 1454.00195313 751.78021351 1454.00195313 712.710230408 1459.08352409 c 2,2,-1
 687.335318331 1462.38386892 l 1,3,4
 558.568322805 1285.06773343 558.568322805 1285.06773343 319.090592357 1272.68521598 c 2,5,-1
 308.57421875 1272.14145277 l 1,6,-1
 308.57421875 1282.671875 l 1,7,-1
 308.57421875 1360.92578125 l 1,8,-1
 308.57421875 1370.50204957 l 1,9,-1
 318.141518054 1370.91641537 l 2,10,11
 490.584426971 1378.38502706 490.584426971 1378.38502706 578.757102994 1491.18579048 c 1,12,13
 541.038598289 1501.14822841 541.038598289 1501.14822841 501.68402816 1522.69510988 c 0,14,15
 409.982875175 1574.15430851 409.982875175 1574.15430851 410.250170025 1665.62552974 c 0,16,17
 410.643388573 1699.41467667 410.643388573 1699.41467667 420.18661631 1727.88861909 c 128,-1,18
 429.729844047 1756.3625615 429.729844047 1756.3625615 448.490385339 1779.17916878 c 0,19,20
 497.305666103 1838.0023159 497.305666103 1838.0023159 582.964142497 1837.95995879 c 0,21,22
 604.330345155 1837.97397636 604.330345155 1837.97397636 623.95206935 1833.73819673 c 128,-1,23
 643.573793544 1829.5024171 643.573793544 1829.5024171 661.3877089 1820.99883643 c 128,-1,24
 679.201624256 1812.49525576 679.201624256 1812.49525576 694.982677151 1799.78879206 c 0,25,26
 706.426351987 1790.57404494 706.426351987 1790.57404494 715.818270914 1779.81924511 c 128,-1,27
 725.21018984 1769.06444529 725.21018984 1769.06444529 732.541487683 1756.7708827 c 128,-1,28
 739.872785525 1744.47732012 739.872785525 1744.47732012 745.112455178 1730.68365456 c 0,29,30
 756.023852439 1700.69730299 756.023852439 1700.69730299 755.545266838 1665.28608535 c 0,31,32
 755.377128819 1647.29862591 755.377128819 1647.29862591 752.840814617 1628.73474727 c 128,-1,33
 750.304500415 1610.17086864 750.304500415 1610.17086864 745.586377096 1591.76463857 c 128,-1,34
 740.868253776 1573.3584085 740.868253776 1573.3584085 734.023022181 1555.02258408 c 1,35,-1
 740.497736842 1554.44642139 l 2,36,37
 759.894859264 1552.72983209 759.894859264 1552.72983209 777.868656864 1552.18766484 c 128,-1,38
 795.842454464 1551.64549759 795.842454464 1551.64549759 812.271598554 1552.27497559 c 2,39,-1
 822.65234375 1552.67050427 l 1,40,-1
 822.65234375 1542.28222656 l 1,41,-1
 822.65234375 1464.00195312 l 1,42,-1
 822.65234375 1454.00227513 l 1,43,-1
 812.652665768 1454.00195313 l 2,0,1
634.23867863 1571.78321197 m 1,44,-1
 636.931063156 1577.99221245 l 2,45,46
 657.007895062 1624.10082108 657.007895062 1624.10082108 657.158130462 1663.71659773 c 0,47,48
 657.018144084 1700.24612947 657.018144084 1700.24612947 635.655859298 1717.72299222 c 0,49,50
 631.036080907 1721.7039971 631.036080907 1721.7039971 626.338501423 1724.85331003 c 128,-1,51
 621.640921939 1728.00262296 621.640921939 1728.00262296 616.866051031 1730.33619975 c 128,-1,52
 612.091180122 1732.66977654 612.091180122 1732.66977654 607.152303932 1734.22865278 c 128,-1,53
 602.213427743 1735.78752902 602.213427743 1735.78752902 597.160415187 1736.58845637 c 128,-1,54
 592.107402632 1737.38938371 592.107402632 1737.38938371 586.804180607 1737.47260192 c 0,55,56
 546.890680085 1737.94181538 546.890680085 1737.94181538 525.35019664 1709.83400709 c 0,57,58
 509.985673696 1689.61299109 509.985673696 1689.61299109 509.868223725 1662.02007811 c 0,59,60
 509.982046733 1621.41814678 509.982046733 1621.41814678 569.930076292 1593.86909017 c 0,61,62
 590.417215556 1584.36605064 590.417215556 1584.36605064 634.23867863 1571.78321197 c 1,44,-1
EndSplineSet
EndChar

StartChar: uni0650
Encoding: 1616 1616 51
GlifName: uni0650
Width: -26
VWidth: 2316
GlyphClass: 4
Flags: W
AnchorPoint: "Anchor-7" 571.144 -44.8242 mark 0
AnchorPoint: "Anchor-6" 571.144 -44.8242 mark 0
AnchorPoint: "Anchor-0" 619.091 -324.624 basemark 0
AnchorPoint: "Anchor-0" 571.144 -44.8242 mark 0
LayerCount: 2
Fore
SplineSet
332.900390625 -345.599609375 m 1,0,-1
 332.900390625 -242.022460938 l 1,1,-1
 332.900390625 -235.308961846 l 1,2,-1
 339.114044393 -232.766998648 l 1,3,-1
 794.513458456 -46.466217397 l 1,4,-1
 808.299804688 -40.8263175765 l 1,5,-1
 808.299804688 -55.7216796875 l 1,6,-1
 808.299804688 -159.299804688 l 1,7,-1
 808.299804688 -166.013317104 l 1,8,-1
 802.086133918 -168.555273934 l 1,9,-1
 346.686719855 -354.855078621 l 1,10,-1
 332.900390625 -360.494941922 l 1,11,-1
 332.900390625 -345.599609375 l 1,0,-1
EndSplineSet
EndChar

StartChar: uni0651
Encoding: 1617 1617 52
GlifName: uni0651
Width: -26
VWidth: 2393
GlyphClass: 4
Flags: W
AnchorPoint: "Anchor-10" 598.801 1463.71 mark 0
AnchorPoint: "Anchor-9" 598.801 1463.71 mark 0
AnchorPoint: "Anchor-1" 570.087 1849.1 basemark 0
AnchorPoint: "Anchor-1" 598.801 1463.71 mark 0
LayerCount: 2
Fore
SplineSet
618.412645919 1768.89242112 m 2,0,1
 619.30749402 1748.07848034 619.30749402 1748.07848034 619.858659898 1727.40284431 c 128,-1,2
 620.409825777 1706.72720828 620.409825777 1706.72720828 620.623282745 1685.93068262 c 0,3,4
 620.423638877 1642.49315672 620.423638877 1642.49315672 634.277786218 1623.29711008 c 128,-1,5
 648.131933559 1604.10106343 648.131933559 1604.10106343 676.611536658 1604.25164957 c 0,6,7
 707.00449922 1604.48846798 707.00449922 1604.48846798 722.167046056 1626.04174361 c 128,-1,8
 737.329592892 1647.59501923 737.329592892 1647.59501923 737.627208882 1695.2404651 c 0,9,10
 737.659516994 1699.7577161 737.659516994 1699.7577161 737.431492037 1704.9594675 c 128,-1,11
 737.20346708 1710.1612189 737.20346708 1710.1612189 736.71568548 1716.04815989 c 128,-1,12
 736.227903879 1721.93510088 736.227903879 1721.93510088 735.473833248 1728.51195407 c 128,-1,13
 734.719762616 1735.08880727 734.719762616 1735.08880727 733.706793956 1742.31800659 c 128,-1,14
 732.693825296 1749.54720591 732.693825296 1749.54720591 731.408157339 1757.47427959 c 128,-1,15
 730.122489382 1765.40135328 730.122489382 1765.40135328 728.578782012 1773.94792963 c 128,-1,16
 727.035074641 1782.49450598 727.035074641 1782.49450598 725.212257706 1791.74691885 c 128,-1,17
 723.389440772 1800.99933173 723.389440772 1800.99933173 721.308988734 1810.84095415 c 2,18,-1
 719.13196939 1821.13939027 l 1,19,-1
 729.528395956 1822.7860579 l 1,20,-1
 817.60456783 1836.73625321 l 1,21,-1
 826.334444655 1838.11895961 l 1,22,-1
 828.778902953 1829.62500588 l 2,23,24
 847.011141889 1766.27199467 847.011141889 1766.27199467 846.527436109 1705.01225672 c 0,25,26
 846.769789179 1601.41683475 846.769789179 1601.41683475 807.605412545 1546.89629847 c 128,-1,27
 768.441035912 1492.37576219 768.441035912 1492.37576219 690.470246765 1491.66628051 c 0,28,29
 631.084250607 1491.23402318 631.084250607 1491.23402318 588.240970019 1535.03857026 c 1,30,31
 551.365722158 1428.19470822 551.365722158 1428.19470822 431.98662674 1427.88961904 c 0,32,33
 360.213905445 1428.05473914 360.213905445 1428.05473914 322.956209773 1473.69156341 c 128,-1,34
 285.698514102 1519.32838767 285.698514102 1519.32838767 284.303887988 1606.3481088 c 0,35,36
 283.379905143 1667.17297955 283.379905143 1667.17297955 297.434663046 1718.38765035 c 2,37,-1
 299.821453858 1727.08496883 l 1,38,-1
 308.718205051 1725.60580102 l 1,39,-1
 387.032658176 1712.5852932 l 1,40,-1
 397.382508131 1710.86453417 l 1,41,-1
 395.167108556 1700.60917409 l 2,42,43
 385.30795128 1654.96990922 385.30795128 1654.96990922 385.576868959 1619.70855201 c 0,44,45
 385.866831848 1580.92533379 385.866831848 1580.92533379 400.043558855 1563.50064917 c 128,-1,46
 414.220285862 1546.07596454 414.220285862 1546.07596454 443.719459544 1545.90215613 c 0,47,48
 480.086450215 1545.67938079 480.086450215 1545.67938079 498.983795789 1570.47892633 c 128,-1,49
 517.881141363 1595.27847187 517.881141363 1595.27847187 519.957531817 1649.59880369 c 0,50,51
 521.89813562 1700.23233456 521.89813562 1700.23233456 521.096395807 1768.34519121 c 2,52,-1
 520.977302836 1778.46289062 l 1,53,-1
 531.095703125 1778.46289062 l 1,54,-1
 608.421875 1778.46289062 l 1,55,-1
 618.001185324 1778.46289062 l 1,56,-1
 618.412645919 1768.89242112 l 2,0,1
EndSplineSet
EndChar

StartChar: uni0652
Encoding: 1618 1618 53
GlifName: uni0652
Width: -26
VWidth: 2316
GlyphClass: 4
Flags: W
AnchorPoint: "Anchor-10" 603.219 1222.43 mark 0
AnchorPoint: "Anchor-9" 603.219 1222.43 mark 0
AnchorPoint: "Anchor-1" 577.537 1799.66 basemark 0
AnchorPoint: "Anchor-1" 603.219 1222.43 mark 0
LayerCount: 2
Fore
SplineSet
388.139648438 1461.671875 m 128,-1,1
 388.139648438 1547.7143508 388.139648438 1547.7143508 447.76786027 1607.34358965 c 128,-1,2
 507.396977322 1666.97167969 507.396977322 1666.97167969 593.439453125 1666.97167969 c 128,-1,3
 679.480952365 1666.97167969 679.480952365 1666.97167969 739.110130312 1607.34352875 c 0,4,5
 768.794066273 1577.65959279 768.794066273 1577.65959279 783.766662042 1541.06079133 c 128,-1,6
 798.739257812 1504.46198987 798.739257812 1504.46198987 798.739257812 1461.671875 c 0,7,8
 798.739257812 1375.63032532 798.739257812 1375.63032532 739.110130312 1316.00119781 c 0,9,10
 709.426204109 1286.31727161 709.426204109 1286.31727161 672.827648554 1271.34467096 c 128,-1,11
 636.229092998 1256.37207031 636.229092998 1256.37207031 593.439453125 1256.37207031 c 0,12,13
 507.396926877 1256.37207031 507.396926877 1256.37207031 447.767738482 1316.0012587 c 128,-1,0
 388.139648438 1375.63037576 388.139648438 1375.63037576 388.139648438 1461.671875 c 128,-1,1
494.539324642 1460.77257275 m 0,14,15
 494.23045463 1418.04970837 494.23045463 1418.04970837 524.01090201 1388.64323768 c 0,16,17
 553.173312079 1359.10597117 553.173312079 1359.10597117 596.155202806 1359.1718629 c 0,18,19
 638.487861988 1359.10601705 638.487861988 1359.10601705 668.267554951 1388.6432087 c 0,20,21
 678.042996785 1398.49993638 678.042996785 1398.49993638 684.543356192 1409.71569337 c 128,-1,22
 691.043715599 1420.93145037 691.043715599 1420.93145037 694.33943196 1433.66982307 c 128,-1,23
 697.635148321 1446.40819577 697.635148321 1446.40819577 697.73899567 1460.77234913 c 0,24,25
 697.430115035 1503.36494145 697.430115035 1503.36494145 668.267525981 1532.90060131 c 0,26,27
 638.487925481 1562.30623576 638.487925481 1562.30623576 596.154978534 1562.37208206 c 0,28,29
 553.172832243 1562.30618994 553.172832243 1562.30618994 524.010766485 1532.90073685 c 0,30,31
 494.230453769 1503.36381879 494.230453769 1503.36381879 494.539324642 1460.77257275 c 0,14,15
EndSplineSet
EndChar

StartChar: uni0653
Encoding: 1619 1619 54
GlifName: uni0653
Width: -30
VWidth: 2673
GlyphClass: 4
Flags: W
AnchorPoint: "Anchor-10" 461.017 1539.11 mark 0
AnchorPoint: "Anchor-9" 461.017 1539.11 mark 0
AnchorPoint: "Anchor-1" 461.017 1995.25 basemark 0
AnchorPoint: "Anchor-1" 461.017 1539.11 mark 0
LayerCount: 2
Fore
SplineSet
400.348632812 1636.8046875 m 2,0,1
 289.097070303 1652.11547185 289.097070303 1652.11547185 197.061523438 1542.6328125 c 1,2,-1
 95.6953125 1669.29980469 l 5,3,4
 214.313143403 1839.44918336 214.313143403 1839.44918336 383.756835938 1812.15820312 c 6,5,-1
 532.506835938 1788.20019531 l 6,6,7
 632 1772 632 1772 752.004882812 1833.74121094 c 5,8,-1
 817.659179688 1677.28320312 l 1,9,10
 689.104504559 1597.06521074 689.104504559 1597.06521074 540.869140625 1617.46582031 c 2,11,-1
 400.348632812 1636.8046875 l 2,0,1
EndSplineSet
EndChar

StartChar: uni0657
Encoding: 1623 1623 57
GlifName: uni0657
Width: -26
VWidth: 2316
GlyphClass: 4
Flags: W
AnchorPoint: "Anchor-10" 513.285 1370.55 mark 0
AnchorPoint: "Anchor-9" 513.285 1370.55 mark 0
AnchorPoint: "Anchor-1" 573.285 2089.85 basemark 0
AnchorPoint: "Anchor-1" 513.285 1370.55 mark 0
LayerCount: 2
Fore
SplineSet
264.808507494 1814.65723412 m 2,0,1
 321.90247807 1813.06248809 321.90247807 1813.06248809 389.727361986 1806.15219534 c 1,2,3
 541.443736303 2019.70779015 541.443736303 2019.70779015 783.730396573 2042.668288 c 2,4,-1
 794.673828125 2043.70535143 l 1,5,-1
 794.673828125 2032.71289062 l 1,6,-1
 794.673828125 1954.59179688 l 1,7,-1
 794.673828125 1946.06661093 l 1,8,-1
 786.256026125 1944.71775771 l 2,9,10
 699.39612922 1930.7994865 699.39612922 1930.7994865 628.593810435 1890.3349333 c 128,-1,11
 557.79149165 1849.8703801 557.79149165 1849.8703801 503.201464312 1783.38144601 c 1,12,13
 557.798449709 1765.22347105 557.798449709 1765.22347105 597.073754521 1736.50521159 c 0,14,15
 632.265637506 1709.94804333 632.265637506 1709.94804333 650.127296646 1675.33309362 c 128,-1,16
 667.988955785 1640.71814391 667.988955785 1640.71814391 667.976561937 1598.87444814 c 0,17,18
 667.984749854 1574.46490521 667.984749854 1574.46490521 662.706686796 1552.59069946 c 128,-1,19
 657.428623737 1530.7164937 657.428623737 1530.7164937 646.836830423 1511.48171698 c 128,-1,20
 636.245037108 1492.24694026 636.245037108 1492.24694026 620.447595793 1475.98124782 c 0,21,22
 574.252928555 1427.99915345 574.252928555 1427.99915345 501.360237084 1428.01367205 c 0,23,24
 422.921952913 1427.99925002 422.921952913 1427.99925002 366.660355719 1483.05479978 c 0,25,26
 322.021094029 1527.84669221 322.021094029 1527.84669221 321.63552931 1603.29540241 c 0,27,28
 321.982169769 1644.90155089 321.982169769 1644.90155089 342.2098304 1713.45910995 c 1,29,30
 324.067200349 1714.79035361 324.067200349 1714.79035361 305.006142728 1715.50353931 c 128,-1,31
 285.945085106 1716.21672502 285.945085106 1716.21672502 264.454611447 1716.37723202 c 2,32,-1
 254.529296875 1716.45136172 l 1,33,-1
 254.529296875 1726.37695312 l 1,34,-1
 254.529296875 1804.66113281 l 1,35,-1
 254.529296875 1814.94435254 l 1,36,-1
 264.808507494 1814.65723412 l 2,0,1
501.186651833 1526.40112916 m 0,37,38
 536.869352751 1526.92566049 536.869352751 1526.92566049 553.59522326 1549.80158766 c 0,39,40
 560.222509977 1559.35675663 560.222509977 1559.35675663 563.697201699 1571.10290841 c 128,-1,41
 567.171893421 1582.8490602 567.171893421 1582.8490602 567.313206395 1596.65855147 c 0,42,43
 567.175414574 1622.75357532 567.175414574 1622.75357532 549.632087961 1643.44819442 c 128,-1,44
 532.088761349 1664.14281352 532.088761349 1664.14281352 495.132733237 1679.77805618 c 0,45,46
 482.447208429 1685.09779239 482.447208429 1685.09779239 468.861357254 1689.63242809 c 128,-1,47
 455.275506079 1694.16706379 455.275506079 1694.16706379 443.200105724 1697.20299204 c 1,48,49
 420.0026413 1640.46636587 420.0026413 1640.46636587 420.023431251 1604.95366433 c 0,50,51
 420.00233399 1586.08216436 420.00233399 1586.08216436 425.95840058 1572.43794911 c 0,52,53
 434.856324819 1552.00548951 434.856324819 1552.00548951 457.021477414 1539.16442005 c 0,54,55
 479.615981606 1526.04460345 479.615981606 1526.04460345 501.186651833 1526.40112916 c 0,37,38
EndSplineSet
EndChar

StartChar: uni065A
Encoding: 1626 1626 58
GlifName: uni065A_
Width: 1135
VWidth: 2316
GlyphClass: 4
Flags: W
AnchorPoint: "Anchor-10" 573.285 1350.55 mark 0
AnchorPoint: "Anchor-9" 573.285 1350.55 mark 0
AnchorPoint: "Anchor-1" 571.012 1862.38 basemark 0
AnchorPoint: "Anchor-1" 573.285 1350.55 mark 0
LayerCount: 2
Fore
SplineSet
493.785304065 1439.29243179 m 1,0,-1
 299.942530627 1763.35688492 l 1,1,-1
 290.89034856 1778.49023438 l 1,2,-1
 308.524414062 1778.49023438 l 1,3,-1
 432.922851562 1778.49023438 l 1,4,-1
 438.665709045 1778.49023438 l 1,5,-1
 441.559999535 1773.53004339 l 1,6,-1
 573.285186296 1547.78142337 l 1,7,-1
 705.01130479 1773.53006955 l 1,8,-1
 707.905600154 1778.49023438 l 1,9,-1
 713.6484375 1778.49023438 l 1,10,-1
 838.047851562 1778.49023438 l 1,11,-1
 855.682053877 1778.49023438 l 1,12,-1
 846.629700818 1763.35682778 l 1,13,-1
 652.783997694 1439.29237465 l 1,14,-1
 649.872946482 1434.42578125 l 1,15,-1
 644.202148438 1434.42578125 l 1,16,-1
 502.3671875 1434.42578125 l 1,17,-1
 496.696345459 1434.42578125 l 1,18,-1
 493.785304065 1439.29243179 l 1,0,-1
EndSplineSet
EndChar

StartChar: afii57392
Encoding: 1632 1632 59
GlifName: afii57392
Width: 893
VWidth: 2952
GlyphClass: 2
Flags: W
LayerCount: 2
Fore
SplineSet
329.290039062 533.262695312 m 4,0,1
 329 516 329 516 333.157226562 500.579101562 c 4,2,3
 337 485 337 485 344.817382812 472.000976562 c 4,4,5
 353 459 353 459 364.54296875 446.720703125 c 4,6,7
 373 438 373 438 383.288085938 431.209960938 c 4,8,9
 393 425 393 425 404.055664062 420.163085938 c 4,10,11
 426 411 426 411 452.590820312 410.967773438 c 4,12,13
 504 411 504 411 539.639648438 446.721679688 c 4,14,15
 557 464 557 464 566.078125 485.877929688 c 4,16,17
 569 493 569 493 570.951171875 500.611328125 c 4,18,19
 573 508 573 508 573.895507812 516.364257812 c 4,20,21
 575 525 575 525 574.890625 533.262695312 c 4,22,23
 575 559 575 559 566.078125 580.649414062 c 4,24,25
 562 591 562 591 555.127929688 601.138671875 c 4,26,27
 549 611 549 611 539.640625 619.806640625 c 4,28,29
 502.989918876 655.997405292 502.989918876 655.997405292 451.588867188 655.559570312 c 4,30,31
 439 655 439 655 426.627929688 653.130859375 c 4,32,33
 415 651 415 651 403.864257812 646.390625 c 4,34,35
 397 643 397 643 389.942871094 639.532714844 c 128,-1,36
 383 636 383 636 376.868164062 630.705078125 c 4,37,38
 371 626 371 626 364.541992188 619.806640625 c 4,39,40
 329 585 329 585 329.290039062 533.262695312 c 4,0,1
209.48828125 771.606445312 m 4,41,42
 234 796 234 796 261.228515625 814.737304688 c 4,43,44
 288 833 288 833 318.219726562 845.7421875 c 4,45,46
 378 871 378 871 446.678710938 870.51953125 c 4,47,48
 493 871 493 871 534.352539062 859.534179688 c 4,49,50
 576 849 576 849 613.717773438 826.42578125 c 4,51,52
 621 822 621 822 628.50390625 817.172851562 c 4,53,54
 636 812 636 812 642.915039062 807.057617188 c 132,-1,55
 650 802 650 802 656.947265625 796.0859375 c 132,-1,56
 664 790 664 790 670.599609375 784.266601562 c 4,57,58
 677 778 677 778 683.870117188 771.606445312 c 4,59,60
 733 722 733 722 758.001953125 662.87890625 c 4,61,62
 770 633 770 633 776.591796875 600.984375 c 132,-1,63
 783 569 783 569 782.784179688 534.4140625 c 4,64,65
 783 396 783 396 683.870117188 297.221679688 c 4,66,67
 672 285 672 285 658.635742188 274.1484375 c 4,68,69
 646 263 646 263 632.115234375 254.12109375 c 4,70,71
 628 251 628 251 624.288085938 248.953125 c 4,72,73
 620 246 620 246 616.353515625 244.03515625 c 4,74,75
 612 242 612 242 608.3125 239.3671875 c 4,76,77
 604 237 604 237 600.165039062 234.952148438 c 4,78,79
 596 233 596 233 591.9140625 230.790039062 c 4,80,81
 588 229 588 229 583.559570312 226.881835938 c 4,82,83
 579 225 579 225 575.102539062 223.228515625 c 4,84,85
 560 217 560 217 544.7109375 212.454101562 c 4,86,87
 529 208 529 208 513.118164062 204.813476562 c 4,88,89
 497 202 497 202 480.418945312 200.3203125 c 4,90,91
 464 199 464 199 446.625 198.923828125 c 4,92,93
 378 199 378 199 318.237304688 223.231445312 c 4,94,95
 308 227 308 227 298.67578125 232.147460938 c 4,96,97
 289 237 289 237 279.672851562 242.447265625 c 4,98,99
 261 253 261 253 243.403320312 267.145507812 c 4,100,101
 226 281 226 281 209.487304688 297.22265625 c 4,102,103
 193 314 193 314 179.419921875 331.111328125 c 4,104,105
 166 349 166 349 154.674804688 367.379882812 c 4,106,107
 144 386 144 386 135.358398438 405.948242188 c 4,108,109
 123 436 123 436 116.76953125 467.84375 c 4,110,111
 111 500 111 500 110.577148438 534.415039062 c 4,112,113
 111 569 111 569 116.767578125 600.986328125 c 4,114,115
 123 633 123 633 135.353515625 662.875976562 c 4,116,117
 148 693 148 693 166.32421875 719.801757812 c 4,118,119
 185 747 185 747 209.48828125 771.606445312 c 4,41,42
EndSplineSet
EndChar

StartChar: afii57393
Encoding: 1633 1633 60
GlifName: afii57393
Width: 716
VWidth: 2972
GlyphClass: 2
Flags: W
LayerCount: 2
Fore
SplineSet
327.916015625 1364.31054688 m 6,0,1
 534.115234375 912.094146253 534.115234375 912.094146253 534.115234375 268.771484375 c 6,2,-1
 534.115234375 31.5537109375 l 1,3,-1
 534.115234375 11.5537109375 l 1,4,-1
 514.115234375 11.5537109375 l 1,5,-1
 334.796875 11.5537109375 l 1,6,-1
 314.796875 11.5537109375 l 1,7,-1
 314.796875 31.5537109375 l 1,8,-1
 314.791992188 271.924804688 l 6,9,10
 314.99978023 908.326899428 314.99978023 908.326899428 126.9453125 1289.05078125 c 6,11,-1
 116.95703125 1309.27246094 l 5,12,-1
 138.228515625 1316.77050781 l 5,13,-1
 303.0703125 1374.875 l 5,14,-1
 320.325195312 1380.95800781 l 5,15,-1
 327.916015625 1364.31054688 l 6,0,1
EndSplineSet
EndChar

StartChar: afii57394
Encoding: 1634 1634 61
GlifName: afii57394
Width: 1197
VWidth: 2972
GlyphClass: 2
Flags: W
LayerCount: 2
Fore
SplineSet
430.13671875 1111.8515625 m 4,0,1
 444 1071 444 1071 466.202148438 1041.07617188 c 4,2,3
 488 1011 488 1011 518.426757812 990.857421875 c 4,4,5
 549 971 549 971 587.7578125 960.7734375 c 4,6,7
 627 951 627 951 675.0234375 950.76953125 c 4,8,9
 779 951 779 951 823.556640625 1036.2265625 c 4,10,11
 875.9985006 1137.99709021 875.9985006 1137.99709021 875.948242188 1344.5390625 c 6,12,-1
 875.943359375 1364.60546875 l 5,13,-1
 896.009765625 1364.54394531 l 5,14,-1
 1075.75488281 1363.99023438 l 5,15,-1
 1095.87890625 1363.92773438 l 5,16,-1
 1095.69238281 1343.80566406 l 6,17,18
 1095 1268 1095 1268 1090.70996094 1202.30566406 c 4,19,20
 1083 1089 1083 1089 1054.75683594 1001.92578125 c 4,21,22
 1027 915 1027 915 978.321289062 854.544921875 c 4,23,24
 873 723 873 723 679.171875 723.568359375 c 4,25,26
 578 724 578 724 505.145507812 756.72265625 c 5,27,28
 534.115234375 518.050621943 534.115234375 518.050621943 534.115234375 268.771484375 c 6,29,-1
 534.115234375 31.5537109375 l 1,30,-1
 534.115234375 11.5537109375 l 1,31,-1
 514.115234375 11.5537109375 l 1,32,-1
 334.796875 11.5537109375 l 1,33,-1
 314.796875 11.5537109375 l 1,34,-1
 314.796875 31.5537109375 l 1,35,-1
 314.791992188 271.924804688 l 6,36,37
 314.99978023 908.326899428 314.99978023 908.326899428 126.9453125 1289.05078125 c 6,38,-1
 116.95703125 1309.27246094 l 5,39,-1
 138.227539062 1316.77050781 l 5,40,-1
 302.84765625 1374.79980469 l 5,41,-1
 320.849609375 1381.14550781 l 5,42,-1
 328.028320312 1363.45996094 l 5,43,-1
 429.782226562 1112.79101562 l 5,44,-1
 430.13671875 1111.8515625 l 4,0,1
EndSplineSet
EndChar

StartChar: afii57395
Encoding: 1635 1635 62
GlifName: afii57395
Width: 1452
VWidth: 2972
GlyphClass: 2
Flags: W
LayerCount: 2
Fore
SplineSet
534.115234375 268.776367188 m 6,0,-1
 534.115234375 31.5537109375 l 1,1,-1
 534.115234375 11.5537109375 l 1,2,-1
 514.115234375 11.5537109375 l 1,3,-1
 334.796875 11.5537109375 l 1,4,-1
 314.796875 11.5537109375 l 1,5,-1
 314.796875 31.5537109375 l 1,6,-1
 314.791992188 271.923828125 l 6,7,8
 314.99978023 908.326899427 314.99978023 908.326899427 126.9453125 1289.05078125 c 6,9,-1
 116.95703125 1309.27246094 l 5,10,-1
 138.227539062 1316.77050781 l 5,11,-1
 302.817382812 1374.7890625 l 5,12,-1
 321.345703125 1381.3203125 l 5,13,-1
 328.20703125 1362.91210938 l 5,14,-1
 437.893554688 1068.63964844 l 6,15,16
 479 959 479 959 600.671875 957.630859375 c 4,17,18
 619 958 619 958 633.3046875 961.938476562 c 4,19,20
 648 966 648 966 660.544921875 975.686523438 c 4,21,22
 673 985 673 985 682.322265625 999.983398438 c 4,23,24
 692 1015 692 1015 698.1484375 1035.54394531 c 4,25,26
 705 1056 705 1056 707.983398438 1083.50292969 c 4,27,28
 711.302971161 1113.76165717 711.302971161 1113.76165717 711.365234375 1144.60058594 c 6,29,-1
 711.662109375 1291.64257812 l 5,30,-1
 711.701171875 1310.97753906 l 5,31,-1
 731.025390625 1311.59277344 l 5,32,-1
 889.680664062 1316.64355469 l 5,33,-1
 909.795898438 1317.28320312 l 5,34,-1
 910.310546875 1297.16503906 l 5,35,-1
 914.002929688 1152.94140625 l 6,36,37
 916 1082 916 1082 930.6015625 1036.27050781 c 4,38,39
 945 991 945 991 969.954101562 971.049804688 c 132,-1,40
 995 951 995 951 1030.74023438 950.890625 c 4,41,42
 1096 950 1096 950 1121.29199219 1007.84570312 c 4,43,44
 1134 1038 1134 1038 1141.82714844 1101.58984375 c 4,45,46
 1149.24133046 1167.13343352 1149.24133046 1167.13343352 1149.51855469 1258.35839844 c 6,47,-1
 1149.83105469 1361.19140625 l 5,48,-1
 1149.89160156 1381.11230469 l 5,49,-1
 1169.8125 1381.13085938 l 5,50,-1
 1346.61523438 1381.29394531 l 5,51,-1
 1366.74902344 1381.3125 l 5,52,-1
 1366.63378906 1361.17871094 l 5,53,-1
 1366.0546875 1260.49511719 l 6,54,55
 1365 1082 1365 1082 1331.50878906 967.391601562 c 4,56,57
 1297 849 1297 849 1219.62402344 787.677734375 c 4,58,59
 1142 727 1142 727 1026.49023438 727.76953125 c 4,60,61
 906 729 906 729 807.912109375 833.3671875 c 5,62,63
 715 727 715 727 613.087890625 726.943359375 c 4,64,65
 549 727 549 727 504.495117188 746.11328125 c 5,66,67
 534 477 534 477 534.115234375 268.776367188 c 6,0,-1
EndSplineSet
EndChar

StartChar: afii57396
Encoding: 1636 1636 63
GlifName: afii57396
Width: 1046
VWidth: 2972
GlyphClass: 2
Flags: W
LayerCount: 2
Fore
SplineSet
119.322265625 318.123046875 m 0,0,1
 111 538 111 538 471.192382812 713.100585938 c 1,2,3
 201 790 201 790 201.663085938 1027.03125 c 0,4,5
 202 1111 202 1111 250.047851562 1181.66992188 c 4,6,7
 367 1353 367 1353 664 1353.95800781 c 0,8,9
 734.227470806 1354.00013646 734.227470806 1354.00013646 812.55859375 1344.2265625 c 2,10,-1
 831.342773438 1341.8828125 l 1,11,-1
 815.969726562 1120.04882812 l 1,12,-1
 795.208007812 1122.40332031 l 2,13,14
 746 1128 746 1128 703.874023438 1128.45898438 c 0,15,16
 442 1129 442 1129 440.830078125 1008.96777344 c 0,17,18
 440 886 440 886 797.541015625 857.157226562 c 1,19,-1
 800.217773438 641.634765625 l 1,20,21
 338 456 338 456 345.478515625 328.504882812 c 0,22,23
 352.014204589 220.765841251 352.014204589 220.765841251 713.704101562 223.053710938 c 2,24,-1
 927.52734375 224.40625 l 1,25,-1
 930.2265625 -0.025390625 l 1,26,-1
 707.026367188 0.46875 l 2,27,28
 131 2 131 2 119.322265625 318.123046875 c 0,0,1
EndSplineSet
EndChar

StartChar: afii57397
Encoding: 1637 1637 64
GlifName: afii57397
Width: 1166
VWidth: 2972
GlyphClass: 2
Flags: W
LayerCount: 2
Fore
SplineSet
557.859375 978.688476562 m 5,0,1
 305 703 305 703 304.721679688 508.231445312 c 0,2,3
 305 365 305 365 400.916992188 290.903320312 c 0,4,5
 480 230 480 230 609.084960938 230.291015625 c 0,6,7
 670 230 670 230 718.556640625 252.196289062 c 0,8,9
 767 274 767 274 805.000976562 319.252929688 c 0,10,11
 862 386 862 386 861.259765625 515.245117188 c 0,12,13
 861 743 861 743 557.859375 978.688476562 c 5,0,1
335.752929688 1177.26757812 m 5,14,-1
 445.455078125 1336.09570312 l 5,15,-1
 456.409179688 1351.95507812 l 5,16,-1
 472.662109375 1341.59375 l 6,17,18
 1076 957 1076 957 1076.70605469 492.28515625 c 0,19,20
 1077 205 1077 205 886.674804688 86.9609375 c 0,21,22
 759 8 759 8 605.173828125 8.388671875 c 0,23,24
 434 9 434 9 298.522460938 82.78125 c 0,25,26
 86 198 86 198 88.6298828125 491.140625 c 0,27,28
 92 795 92 795 377.758789062 1121.13183594 c 5,29,-1
 340.045898438 1150.02539062 l 5,30,-1
 324.93359375 1161.60351562 l 5,31,-1
 335.752929688 1177.26757812 l 5,14,-1
EndSplineSet
EndChar

StartChar: afii57398
Encoding: 1638 1638 65
GlifName: afii57398
Width: 1265
VWidth: 2972
GlyphClass: 2
Flags: W
LayerCount: 2
Fore
SplineSet
914.919921875 26.8046875 m 2,0,1
 795.014118278 517.391256736 795.014118278 517.391256736 781.930664062 1081.515625 c 5,2,3
 622 1041 622 1041 464.202148438 1040.50097656 c 4,4,5
 261.705733092 1039.99927092 261.705733092 1039.99927092 73.189453125 1125.09277344 c 6,6,-1
 61.41796875 1130.40625 l 5,7,-1
 61.41796875 1143.32128906 l 5,8,-1
 61.41796875 1353.89746094 l 5,9,-1
 61.41796875 1385.25683594 l 5,10,-1
 89.8525390625 1372.03222656 l 6,11,12
 283 1282 283 1282 510.328125 1282.2421875 c 4,13,14
 728.129336701 1281.9998561 728.129336701 1281.9998561 958.077148438 1374.29589844 c 6,15,-1
 985.14453125 1385.16015625 l 5,16,-1
 985.525390625 1355.99707031 l 6,17,18
 995.982812023 524.366880011 995.982812023 524.366880011 1142.23046875 37.3056640625 c 2,19,-1
 1149.96289062 11.5537109375 l 1,20,-1
 1123.07519531 11.5537109375 l 1,21,-1
 934.34765625 11.5537109375 l 1,22,-1
 918.647460938 11.5537109375 l 1,23,-1
 914.919921875 26.8046875 l 2,0,1
EndSplineSet
EndChar

StartChar: afii57399
Encoding: 1639 1639 66
GlifName: afii57399
Width: 1281
VWidth: 2952
GlyphClass: 2
Flags: W
LayerCount: 2
Fore
SplineSet
1209.36132812 1278.98925781 m 5,0,1
 867 593 867 593 740.373046875 11.5537109375 c 1,2,-1
 540.517578125 11.5537109375 l 1,3,4
 413 594 413 594 71.517578125 1278.97949219 c 5,5,-1
 276.118164062 1382.90429688 l 5,6,7
 530 838 530 838 640.435546875 394.05078125 c 5,8,9
 751 839 751 839 1004.78222656 1382.90039062 c 5,10,-1
 1209.36132812 1278.98925781 l 5,0,1
EndSplineSet
EndChar

StartChar: afii57400
Encoding: 1640 1640 67
GlifName: afii57400
Width: 1281
VWidth: 2952
GlyphClass: 2
Flags: W
LayerCount: 2
Fore
SplineSet
1209.36132812 88.267578125 m 1,0,-1
 1004.78222656 -15.6435546875 l 1,1,2
 751 528 751 528 640.435546875 973.206054688 c 1,3,4
 530 529 530 529 276.118164062 -15.6474609375 c 1,5,-1
 71.517578125 88.27734375 l 1,6,7
 413 773 413 773 540.517578125 1355.703125 c 5,8,-1
 740.373046875 1355.703125 l 5,9,10
 867 774 867 774 1209.36132812 88.267578125 c 1,0,-1
EndSplineSet
EndChar

StartChar: afii57401
Encoding: 1641 1641 68
GlifName: afii57401
Width: 1134
VWidth: 2972
GlyphClass: 2
Flags: W
LayerCount: 2
Fore
SplineSet
101.946289062 905.9375 m 0,0,1
 102 1063 102 1063 177.500976562 1185.03710938 c 0,2,3
 238 1282 238 1282 321.302734375 1330.88183594 c 0,4,5
 405 1380 405 1380 510.057617188 1380.31542969 c 0,6,7
 588 1380 588 1380 651.108398438 1358.72558594 c 0,8,9
 715 1337 715 1337 763.034179688 1295.01953125 c 128,-1,10
 811 1253 811 1253 845.666992188 1190.28613281 c 0,11,12
 880 1128 880 1128 899.352539062 1045.72265625 c 0,13,14
 919 964 919 964 923.922851562 862.420898438 c 0,15,16
 948.035601227 378.285198691 948.035601227 378.285198691 956.775390625 32.0576171875 c 2,17,-1
 957.29296875 11.5537109375 l 1,18,-1
 936.782226562 11.5537109375 l 1,19,-1
 764.748046875 11.5537109375 l 1,20,-1
 745.149414062 11.5537109375 l 1,21,-1
 744.751953125 31.1484375 l 1,22,-1
 731.735351562 633.611328125 l 1,23,24
 616 575 616 575 495.252929688 575.165039062 c 0,25,26
 303 575 303 575 202.314453125 658.61328125 c 4,27,28
 102 742 102 742 101.946289062 905.9375 c 0,0,1
497.72265625 794.890625 m 0,29,30
 594 795 594 795 712.265625 851.364257812 c 1,31,-1
 711.473632812 860.798828125 l 2,32,33
 699 1010 699 1010 650.739257812 1079.18066406 c 0,34,35
 602 1149 602 1149 518.725585938 1148.7265625 c 0,36,37
 499 1149 499 1149 480.861328125 1146.00683594 c 0,38,39
 463 1143 463 1143 447.2265625 1137.66503906 c 0,40,41
 431 1132 431 1132 417.51953125 1123.625 c 0,42,43
 404 1115 404 1115 391.5390625 1103.921875 c 128,-1,44
 379 1093 379 1093 368.983398438 1078.47851562 c 0,45,46
 312 1001 312 1001 312.008789062 915.301757812 c 0,47,48
 312 855 312 855 355.938476562 824.959960938 c 128,-1,49
 400 795 400 795 497.72265625 794.890625 c 0,29,30
EndSplineSet
EndChar

StartChar: afii57381
Encoding: 1642 1642 69
GlifName: afii57381
Width: 1288
VWidth: 4058
GlyphClass: 2
Flags: W
LayerCount: 2
Fore
SplineSet
729.512695312 365.344726562 m 0,0,1
 729.512695312 443.622070312 729.512695312 443.622070312 785.442382812 498.514648438 c 0,2,3
 840.25 553.322265625 840.25 553.322265625 918.368164062 553.83984375 c 0,4,5
 928.036132812 553.903320312 928.036132812 553.903320312 937.405273438 553.088867188 c 128,-1,6
 946.774414062 552.2734375 946.774414062 552.2734375 955.852539062 550.577148438 c 128,-1,7
 964.930664062 548.879882812 964.930664062 548.879882812 973.706054688 546.27734375 c 128,-1,8
 982.481445312 543.673828125 982.481445312 543.673828125 990.866210938 540.18359375 c 0,9,10
 1002.01074219 535.54296875 1002.01074219 535.54296875 1012.58105469 529.265625 c 128,-1,11
 1023.15234375 522.98828125 1023.15234375 522.98828125 1032.90429688 515.267578125 c 128,-1,12
 1042.65625 507.546875 1042.65625 507.546875 1051.65039062 498.3828125 c 0,13,14
 1078.98339844 471.048828125 1078.98339844 471.048828125 1092.74902344 437.671875 c 128,-1,15
 1106.50390625 404.323242188 1106.50390625 404.323242188 1106.50390625 365.344726562 c 0,16,17
 1106.50390625 326.693359375 1106.50390625 326.693359375 1092.62988281 293.051757812 c 128,-1,18
 1078.75585938 259.411132812 1078.75585938 259.411132812 1051.58496094 232.23828125 c 0,19,20
 996.6640625 177.318359375 996.6640625 177.318359375 918.48046875 177.318359375 c 0,21,22
 892.771484375 177.318359375 892.771484375 177.318359375 869.157226562 183.504882812 c 128,-1,23
 845.54296875 189.69140625 845.54296875 189.69140625 824.501953125 201.921875 c 128,-1,24
 803.461914062 214.153320312 803.461914062 214.153320312 785.422851562 232.192382812 c 0,25,26
 757.836914062 259.266601562 757.836914062 259.266601562 743.674804688 292.971679688 c 128,-1,27
 729.512695312 326.67578125 729.512695312 326.67578125 729.512695312 365.344726562 c 0,0,1
180.96875 1179.37011719 m 0,28,29
 181 1257 181 1257 236.895507812 1312.53710938 c 0,30,31
 255 1330 255 1330 275.936523438 1342.68847656 c 0,32,33
 297 1355 297 1355 320.469726562 1361.22558594 c 0,34,35
 344 1368 344 1368 369.815429688 1367.86523438 c 0,36,37
 448 1368 448 1368 503.109375 1312.40527344 c 0,38,39
 558 1257 558 1257 557.959960938 1179.38183594 c 0,40,41
 558 1101 558 1101 502.922851562 1046.14941406 c 0,42,43
 475 1019 475 1019 442.584960938 1005.09960938 c 0,44,45
 409 991 409 991 369.880859375 991.344726562 c 0,46,47
 331 991 331 991 297.646484375 1005.09082031 c 0,48,49
 264 1019 264 1019 236.893554688 1046.20507812 c 0,50,51
 181 1101 181 1101 180.96875 1179.37011719 c 0,28,29
879.12890625 1405.94140625 m 5,52,-1
 1032.40039062 1326.97558594 l 5,53,-1
 1050.21582031 1317.796875 l 5,54,-1
 1041 1300 l 5,55,-1
 372.7109375 44.4775390625 l 1,56,-1
 363.28515625 26.2734375 l 1,57,-1
 345.319335938 36.146484375 l 1,58,-1
 192.479492188 120.13671875 l 1,59,-1
 175.356445312 129.545898438 l 1,60,-1
 184.36328125 146.883789062 l 1,61,-1
 852.220703125 1397.38183594 l 5,62,-1
 861.409179688 1415.0703125 l 5,63,-1
 879.12890625 1405.94140625 l 5,52,-1
EndSplineSet
EndChar

StartChar: uni066B
Encoding: 1643 1643 70
GlifName: uni066B_
Width: 822
VWidth: 2952
GlyphClass: 2
Flags: W
LayerCount: 2
Fore
SplineSet
532.755859375 818.005859375 m 1,0,-1
 664.05859375 762.266601562 l 1,1,-1
 199.7890625 -309.061523438 l 1,2,-1
 66.3642578125 -250.9921875 l 1,3,-1
 532.755859375 818.005859375 l 1,0,-1
EndSplineSet
PairPos2: "'kern' Horizontal Kerning lookup 15-4" uni06F4 dx=-110 dy=0 dh=-110 dv=0 dx=0 dy=0 dh=0 dv=0
PairPos2: "'kern' Horizontal Kerning lookup 15-4" uni06F3 dx=-130 dy=0 dh=-130 dv=0 dx=0 dy=0 dh=0 dv=0
PairPos2: "'kern' Horizontal Kerning lookup 15-4" uni06F2 dx=-130 dy=0 dh=-130 dv=0 dx=0 dy=0 dh=0 dv=0
EndChar

StartChar: uni066C
Encoding: 1644 1644 71
GlifName: uni066C_
Width: 555
VWidth: 2852
GlyphClass: 2
Flags: W
LayerCount: 2
Fore
SplineSet
125.383789062 150.813476562 m 0,0,1
 126.405273438 201.640625 126.405273438 201.640625 145.28125 236.2890625 c 0,2,3
 164.849609375 271.064453125 164.849609375 271.064453125 198.630859375 288.575195312 c 128,-1,4
 232.413085938 306.086914062 232.413085938 306.086914062 278.901367188 306.182617188 c 0,5,6
 433.491210938 307.045898438 433.491210938 307.045898438 461.813476562 169.854492188 c 0,7,8
 469.240234375 134.083984375 469.240234375 134.083984375 466.202148438 91.439453125 c 128,-1,9
 463.1640625 48.794921875 463.1640625 48.794921875 449.80078125 -1.7646484375 c 0,10,11
 390.205078125 -228.668945312 390.205078125 -228.668945312 183.350585938 -398.778320312 c 2,12,-1
 178.513671875 -402.755859375 l 1,13,-1
 172.823242188 -400.141601562 l 1,14,-1
 101.674804688 -367.446289062 l 1,15,-1
 87.9150390625 -361.123046875 l 1,16,-1
 99.1337890625 -350.951171875 l 2,17,18
 284.6953125 -182.69921875 284.6953125 -182.69921875 301.80859375 -0.0498046875 c 1,19,20
 292.265625 -0.35546875 292.265625 -0.35546875 283.640625 -0.21484375 c 0,21,22
 204.927734375 1.0654296875 204.927734375 1.0654296875 164.499023438 39.4296875 c 128,-1,23
 124.069335938 77.79296875 124.069335938 77.79296875 125.383789062 150.813476562 c 0,0,1
EndSplineSet
PairPos2: "'kern' Horizontal Kerning lookup 15-4" uni06F4 dx=-130 dy=0 dh=-130 dv=0 dx=0 dy=0 dh=0 dv=0
PairPos2: "'kern' Horizontal Kerning lookup 15-4" uni06F3 dx=-150 dy=0 dh=-150 dv=0 dx=0 dy=0 dh=0 dv=0
PairPos2: "'kern' Horizontal Kerning lookup 15-4" uni06F2 dx=-130 dy=0 dh=-130 dv=0 dx=0 dy=0 dh=0 dv=0
EndChar

StartChar: afii63167
Encoding: 1645 1645 72
GlifName: afii63167
Width: 1584
VWidth: 2952
GlyphClass: 2
Flags: W
LayerCount: 2
Fore
SplineSet
232.590820312 1038.65136719 m 1,0,-1
 662.741210938 1038.65136719 l 1,1,-1
 664.913085938 1038.65136719 l 1,2,-1
 665.591796875 1040.71484375 l 1,3,-1
 799.995117188 1449.92871094 l 1,4,-1
 934.400390625 1040.71484375 l 1,5,-1
 935.079101562 1038.65136719 l 1,6,-1
 937.250976562 1038.65136719 l 1,7,-1
 1367.40136719 1038.65136719 l 1,8,-1
 1019.86132812 784.586914062 l 1,9,-1
 1018.10644531 783.303710938 l 1,10,-1
 1018.77929688 781.236328125 l 1,11,-1
 1151.70117188 372.89453125 l 1,12,-1
 801.751953125 625.767578125 l 1,13,-1
 799.995117188 627.037109375 l 1,14,-1
 798.23828125 625.767578125 l 1,15,-1
 448.291992188 372.89453125 l 1,16,-1
 581.211914062 781.236328125 l 1,17,-1
 581.884765625 783.303710938 l 1,18,-1
 580.129882812 784.586914062 l 1,19,-1
 232.590820312 1038.65136719 l 1,0,-1
EndSplineSet
EndChar

StartChar: uni066E
Encoding: 1646 1646 73
GlifName: uni066E_
Width: 1807
VWidth: 2972
GlyphClass: 2
Flags: W
AnchorPoint: "Anchor-10" 977.36 1435.35 basechar 0
AnchorPoint: "Anchor-7" 927.36 -237.261 basechar 0
LayerCount: 2
Fore
SplineSet
860.911132812 0 m 2,0,1
 476 0 476 0 277.879882812 126.299804688 c 0,2,3
 80 253 80 253 80.16015625 505.848632812 c 0,4,5
 79.9996761253 645.281397732 79.9996761253 645.281397732 136.416015625 770.975585938 c 2,6,-1
 144.5078125 789.00390625 l 1,7,-1
 338.241210938 714.834960938 l 5,8,-1
 330.9921875 696.787109375 l 2,9,10
 299 617 299 617 299.424804688 534.564453125 c 0,11,12
 299 380 299 380 432.088867188 302.149414062 c 0,13,14
 565 224 565 224 841.873046875 224.13671875 c 0,15,16
 1336 224 1336 224 1461.69921875 316.197265625 c 0,17,18
 1489 336 1489 336 1503.76074219 373.091796875 c 0,19,20
 1518 410 1518 410 1518.37988281 465.400390625 c 0,21,22
 1518.00131198 552.697462571 1518.00131198 552.697462571 1482.328125 706.1015625 c 2,23,-1
 1477.87890625 725.234375 l 1,24,-1
 1496.92871094 730.02734375 l 1,25,-1
 1660.01367188 771.0625 l 1,26,-1
 1678.01367188 775.591796875 l 1,27,-1
 1683.87207031 757.978515625 l 2,28,29
 1735 604 1735 604 1734.90625 479.716796875 c 0,30,31
 1735 358 1735 358 1698.49023438 269.571289062 c 0,32,33
 1662 182 1662 182 1588.26464844 129.944335938 c 0,34,35
 1402 0 1402 0 864.356445312 0 c 2,36,-1
 860.911132812 0 l 2,0,1
EndSplineSet
Substitution2: "'fina' Terminal Forms in Arabic lookup 9 subtable" uni066E.fina
EndChar

StartChar: uni066F
Encoding: 1647 1647 74
GlifName: uni066F_
Width: 1511
VWidth: 2972
GlyphClass: 2
Flags: W
AnchorPoint: "Anchor-10" 121.809 1382.22 basechar 0
AnchorPoint: "Anchor-7" 335.219 -741.353 basechar 0
LayerCount: 2
Fore
SplineSet
747.329101562 -459.724609375 m 0,0,1
 417.771484375 -459.865234375 417.771484375 -459.865234375 249.569335938 -308.5546875 c 128,-1,2
 81.3662109375 -157.243164062 81.3662109375 -157.243164062 81.7529296875 141.067382812 c 0,3,4
 82.0048828125 353.983398438 82.0048828125 353.983398438 174.545898438 577.767578125 c 2,5,-1
 182.180664062 596.228515625 l 1,6,-1
 200.649414062 588.616210938 l 1,7,-1
 359.169921875 523.278320312 l 1,8,-1
 377.272460938 515.81640625 l 1,9,-1
 370.197265625 497.560546875 l 2,10,11
 298.005859375 311.275390625 298.005859375 311.275390625 298.268554688 142.869140625 c 0,12,13
 298.139648438 -52.4228515625 298.139648438 -52.4228515625 410.200195312 -148.0078125 c 128,-1,14
 522.260742188 -243.591796875 522.260742188 -243.591796875 754.34765625 -243.203125 c 0,15,16
 862.25390625 -242.91796875 862.25390625 -242.91796875 944.69921875 -221.267578125 c 128,-1,17
 1027.14453125 -199.616210938 1027.14453125 -199.616210938 1084.6875 -156.3984375 c 128,-1,18
 1142.22949219 -113.180664062 1142.22949219 -113.180664062 1175.74902344 -49.20703125 c 128,-1,19
 1209.26757812 14.767578125 1209.26757812 14.767578125 1219.89453125 100.580078125 c 1,20,21
 1137.05957031 79.9111328125 1137.05957031 79.9111328125 1043.88476562 79.3193359375 c 0,22,23
 875.50390625 78.1171875 875.50390625 78.1171875 786.413085938 151.740234375 c 128,-1,24
 697.321289062 225.36328125 697.321289062 225.36328125 695.42578125 370.452148438 c 0,25,26
 694.98046875 415.920898438 694.98046875 415.920898438 703.458007812 457.498046875 c 0,27,28
 737.577148438 624.751953125 737.577148438 624.751953125 822.083007812 711.4765625 c 0,29,30
 866.029296875 756.959960938 866.029296875 756.959960938 921.876953125 780.08203125 c 128,-1,31
 977.724609375 803.204101562 977.724609375 803.204101562 1043.77734375 803.43359375 c 0,32,33
 1088.47753906 803.734375 1088.47753906 803.734375 1128.19628906 792.723632812 c 128,-1,34
 1167.91601562 781.711914062 1167.91601562 781.711914062 1201.92089844 759.37890625 c 0,35,36
 1247.17480469 729.57421875 1247.17480469 729.57421875 1283.359375 686.626953125 c 128,-1,37
 1319.54492188 643.680664062 1319.54492188 643.680664062 1346.42480469 588.083984375 c 128,-1,38
 1373.3046875 532.486328125 1373.3046875 532.486328125 1391.29101562 464.860351562 c 128,-1,39
 1409.27832031 397.235351562 1409.27832031 397.235351562 1418.62890625 317.045898438 c 0,40,41
 1427.39257812 242.14453125 1427.39257812 242.14453125 1426.81835938 172.092773438 c 128,-1,42
 1426.24414062 102.040039062 1426.24414062 102.040039062 1416.28417969 37.279296875 c 0,43,44
 1378.40429688 -210.211914062 1378.40429688 -210.211914062 1209.58300781 -335.038085938 c 128,-1,45
 1040.76171875 -459.865234375 1040.76171875 -459.865234375 747.329101562 -459.724609375 c 0,0,1
899.454101562 397.69140625 m 0,46,47
 899.6875 344.34765625 899.6875 344.34765625 936.559570312 318.412109375 c 128,-1,48
 973.430664062 292.477539062 973.430664062 292.477539062 1056.50195312 293.232421875 c 0,49,50
 1129.99023438 293.900390625 1129.99023438 293.900390625 1205.06347656 314.034179688 c 1,51,52
 1197.75097656 366.232421875 1197.75097656 366.232421875 1186.08105469 408.868164062 c 128,-1,53
 1174.41113281 451.50390625 1174.41113281 451.50390625 1157.88671875 486.999023438 c 0,54,55
 1114.09570312 583.979492188 1114.09570312 583.979492188 1037.39453125 583.857421875 c 0,56,57
 947.763671875 583.979492188 947.763671875 583.979492188 910.623046875 463.30078125 c 0,58,59
 899.952148438 428.8203125 899.952148438 428.8203125 899.454101562 397.69140625 c 0,46,47
EndSplineSet
Substitution2: "'fina' Terminal Forms in Arabic lookup 9 subtable" uni066F.fina
EndChar

StartChar: uni0670
Encoding: 1648 1648 75
GlifName: uni0670
Width: -29
VWidth: 2574
GlyphClass: 4
Flags: W
AnchorPoint: "Anchor-10" 636.984 1500.61 mark 0
AnchorPoint: "Anchor-9" 636.984 1500.61 mark 0
AnchorPoint: "Anchor-1" 636.984 1997.18 basemark 0
AnchorPoint: "Anchor-1" 636.984 1500.61 mark 0
LayerCount: 2
Fore
SplineSet
583.435546875 1568.26757812 m 1,0,-1
 583.435546875 1969.51660156 l 1,1,-1
 583.435546875 1979.51660156 l 1,2,-1
 593.435546875 1979.51660156 l 1,3,-1
 680.533203125 1979.51660156 l 1,4,-1
 690.533203125 1979.51660156 l 1,5,-1
 690.533203125 1969.51660156 l 1,6,-1
 690.533203125 1568.26757812 l 1,7,-1
 690.533203125 1558.26757812 l 1,8,-1
 680.533203125 1558.26757812 l 1,9,-1
 593.435546875 1558.26757812 l 1,10,-1
 583.435546875 1558.26757812 l 1,11,-1
 583.435546875 1568.26757812 l 1,0,-1
EndSplineSet
EndChar

StartChar: uni0674
Encoding: 1652 1652 76
GlifName: uni0674
Width: 551
VWidth: 2537
GlyphClass: 2
Flags: W
LayerCount: 2
Fore
SplineSet
152.948491566 1975.76088251 m 1,0,1
 91 2034 91 2034 90.783177468 2130.52033426 c 0,2,3
 91 2223 91 2223 152.443070705 2287.8851281 c 0,4,5
 225 2364 225 2364 337.015755588 2364.01562478 c 0,6,7
 414.947485303 2364.00001052 414.947485303 2364.00001052 483.287077756 2319.88082729 c 2,8,-1
 487.834244882 2316.94523326 l 1,9,-1
 487.863138755 2311.53287644 l 1,10,-1
 488.565287193 2180.00748581 l 1,11,-1
 488.664791368 2161.36851331 l 1,12,-1
 473.080048363 2171.59284617 l 2,13,14
 458 2182 458 2182 442.759277635 2188.94073833 c 0,15,16
 428 2196 428 2196 412.303337993 2201.30142593 c 0,17,18
 397 2206 397 2206 381.746050392 2208.71619203 c 0,19,20
 366 2211 366 2211 351.000639113 2211.26163512 c 0,21,22
 321 2211 321 2211 298.851272424 2203.22453972 c 0,23,24
 276 2195 276 2195 261.132392926 2179.92006407 c 0,25,26
 257 2176 257 2176 253.437810663 2170.97299087 c 128,-1,27
 250 2166 250 2166 247.192352845 2161.51841104 c 0,28,29
 244 2157 244 2157 242.384062981 2151.53540044 c 0,30,31
 240 2146 240 2146 239.005151233 2140.99955146 c 128,-1,32
 238 2136 238 2136 237.043383333 2129.89017217 c 0,33,34
 236 2124 236 2124 236.490691667 2118.18308722 c 0,35,36
 237 2092 237 2092 258.487214698 2070.87955655 c 0,37,38
 280 2050 280 2050 324.366218291 2033.19552266 c 0,39,40
 335 2029 335 2029 343.018422455 2031.09583776 c 0,41,42
 368.171466296 2036.09332445 368.171466296 2036.09332445 482.840812883 2058.36057317 c 2,43,-1
 494.747070312 2060.67260863 l 1,44,-1
 494.747070312 2048.54394531 l 1,45,-1
 494.747070312 1923.015625 l 5,46,-1
 494.747070312 1915.13964844 l 5,47,-1
 487.090820312 1913.29394531 l 5,48,-1
 80.6298828125 1815.30566406 l 5,49,-1
 68.2861328125 1812.33007812 l 5,50,-1
 68.2861328125 1825.02734375 l 5,51,-1
 68.2861328125 1948.27050781 l 1,52,-1
 68.2861328125 1956.22585765 l 1,53,-1
 76.0378046502 1958.01448136 l 1,54,-1
 152.948491566 1975.76088251 l 1,0,1
EndSplineSet
EndChar

StartChar: uni06A1
Encoding: 1697 1697 80
GlifName: uni06A_1
Width: 1821
VWidth: 2972
GlyphClass: 2
Flags: W
AnchorPoint: "Anchor-10" 640.853 1650.62 basechar 0
AnchorPoint: "Anchor-7" 653.182 -332.248 basechar 0
LayerCount: 2
Fore
SplineSet
1737.56054688 493.369140625 m 0,0,1
 1736 200 1736 200 1594.140625 93.5693359375 c 0,2,3
 1469 0 1469 0 1160.20996094 0 c 2,4,-1
 829.911132812 0 l 2,5,6
 476 0 476 0 277.879882812 126.299804688 c 0,7,8
 79 253 79 253 79.16015625 505.848632812 c 0,9,10
 78.9996761253 645.281397732 78.9996761253 645.281397732 135.416015625 770.975585938 c 2,11,-1
 143.5078125 789.00390625 l 1,12,-1
 337.096679688 714.897460938 l 5,13,-1
 330.052734375 696.938476562 l 2,14,15
 298 615 298 615 298.43359375 531.317382812 c 0,16,17
 298 380 298 380 433.396484375 301.623046875 c 0,18,19
 567.534898761 224.268214208 567.534898761 224.268214208 816.158203125 224.159179688 c 2,20,-1
 1181.35058594 223.999023438 l 2,21,22
 1361 224 1361 224 1448.53222656 267.296875 c 0,23,24
 1536 311 1536 311 1540.63867188 392.799804688 c 1,25,26
 1456 371 1456 371 1361.16210938 370.76953125 c 0,27,28
 1194 371 1194 371 1104.59472656 444.452148438 c 0,29,30
 1011 522 1011 522 1012.83398438 661.745117188 c 0,31,32
 1013 677 1013 677 1013.3515625 691.444335938 c 0,33,34
 1014 706 1014 706 1016.03808594 720.639648438 c 0,35,36
 1018 735 1018 735 1020.84472656 748.860351562 c 0,37,38
 1031 803 1031 803 1047.33496094 848.98828125 c 0,39,40
 1064 895 1064 895 1086.85546875 933.90234375 c 0,41,42
 1110 973 1110 973 1139.4921875 1002.93164062 c 0,43,44
 1184 1049 1184 1049 1239.6015625 1071.81542969 c 0,45,46
 1295 1095 1295 1095 1361.28027344 1094.88476562 c 0,47,48
 1451 1095 1451 1095 1519.18945312 1050.91894531 c 0,49,50
 1692 940 1692 940 1730.05761719 618.290039062 c 0,51,52
 1734 585 1734 585 1735.3984375 554.000976562 c 0,53,54
 1737 523 1737 523 1737.56054688 493.369140625 c 0,0,1
1216.85839844 689.228515625 m 0,55,56
 1217 636 1217 636 1253.78222656 610.296875 c 0,57,58
 1291 584 1291 584 1374.01367188 584.684570312 c 0,59,60
 1447 585 1447 585 1522.41308594 605.41015625 c 1,61,62
 1508 708 1508 708 1475.28320312 778.470703125 c 0,63,64
 1452 829 1452 829 1422.59960938 851.877929688 c 0,65,66
 1393 875 1393 875 1354.79296875 875.30859375 c 0,67,68
 1325 875 1325 875 1302.18164062 862.962890625 c 0,69,70
 1279 851 1279 851 1260.14160156 823.755859375 c 0,71,72
 1254 815 1254 815 1227.98925781 754.629882812 c 0,73,74
 1226 750 1226 750 1225.03515625 744.665039062 c 0,75,76
 1224 740 1224 740 1222.54394531 734.913085938 c 128,-1,77
 1221 730 1221 730 1220.51269531 725.37109375 c 0,78,79
 1220 721 1220 721 1218.93261719 716.034179688 c 128,-1,80
 1218 711 1218 711 1217.80078125 706.900390625 c 0,81,82
 1217 702 1217 702 1217.11132812 697.965820312 c 0,83,84
 1217 694 1217 694 1216.85839844 689.228515625 c 0,55,56
EndSplineSet
Substitution2: "'init' Initial Forms in Arabic lookup 13 subtable" uni06A1.init
Substitution2: "'medi' Medial Forms in Arabic lookup 11 subtable" uni06A1.medi
Substitution2: "'fina' Terminal Forms in Arabic lookup 9 subtable" uni06A1.fina
EndChar

StartChar: uni06A9
Encoding: 1705 1705 81
GlifName: uni06A_9
Width: 1848
VWidth: 2972
GlyphClass: 2
Flags: W
AnchorPoint: "Anchor-7" 720.268 -216.468 basechar 0
AnchorPoint: "Anchor-10" 1095.88 1455.07 basechar 0
LayerCount: 2
Fore
SplineSet
1513.93847656 693.24609375 m 0,0,1
 1650 546 1650 546 1646.70703125 370.030273438 c 0,2,3
 1644 245 1644 245 1570.37792969 162.69921875 c 0,4,5
 1496 80 1496 80 1357.29394531 39.94921875 c 0,6,7
 1218 0 1218 0 1014.10449219 0 c 2,8,-1
 832.553710938 0 l 2,9,10
 466 0 466 0 272.547363281 126.288574219 c 0,11,12
 79 253 79 253 79.16015625 505.848632812 c 0,13,14
 78.9996761253 645.281397732 78.9996761253 645.281397732 135.416015625 770.975585938 c 2,15,-1
 143.5078125 789.00390625 l 1,16,-1
 337.096679688 714.897460938 l 5,17,-1
 330.052734375 696.938476562 l 2,18,19
 314 656 314 656 306 612 c 128,-1,20
 298 568 298 568 298.43359375 531.370117188 c 0,21,22
 300.000034837 223.993164062 300.000034837 223.993164062 832.553710938 223.993164062 c 2,23,-1
 1013.27441406 223.993164062 l 2,24,25
 1428 224 1428 224 1427.21679688 395.0546875 c 0,26,27
 1427 484 1427 484 1330.00390625 575.53125 c 0,28,29
 1163 731 1163 731 1058.17285156 811.245117188 c 0,30,31
 1018 842 1018 842 991.4765625 874.670898438 c 0,32,33
 965 907 965 907 950.40234375 942.50390625 c 128,-1,34
 936 978 936 978 936.411132812 1014.46777344 c 0,35,36
 935.999277277 1157.25055493 935.999277277 1157.25055493 1089.50683594 1215.54296875 c 2,37,-1
 1782.76367188 1478.79785156 l 1,38,-1
 1809.86328125 1489.08886719 l 1,39,-1
 1809.86328125 1460.10058594 l 1,40,-1
 1809.86328125 1279.46289062 l 1,41,-1
 1809.86328125 1265.57617188 l 1,42,-1
 1796.8515625 1260.72363281 l 1,43,-1
 1156.140625 1021.78613281 l 1,44,45
 1279 918 1279 918 1368.30078125 835.931640625 c 0,46,47
 1458 754 1458 754 1513.93847656 693.24609375 c 0,0,1
EndSplineSet
Substitution2: "'init' Initial Forms in Arabic lookup 13 subtable" uniFB90
Substitution2: "'medi' Medial Forms in Arabic lookup 11 subtable" uniFB91
Substitution2: "'fina' Terminal Forms in Arabic lookup 9 subtable" uniFB8F
EndChar

StartChar: afii57514
Encoding: 1722 1722 83
GlifName: afii57514
Width: 1455
VWidth: 2972
GlyphClass: 2
Flags: W
LayerCount: 2
Fore
SplineSet
1311.82421875 -135.793945312 m 0,0,1
 1157.453125 -450.0078125 1157.453125 -450.0078125 727.338867188 -449.724609375 c 0,2,3
 407.588867188 -449.865234375 407.588867188 -449.865234375 244.477539062 -298.444335938 c 128,-1,4
 81.3662109375 -147.022460938 81.3662109375 -147.022460938 81.7529296875 151.067382812 c 0,5,6
 82.0048828125 363.983398438 82.0048828125 363.983398438 174.545898438 587.767578125 c 2,7,-1
 182.180664062 606.228515625 l 1,8,-1
 200.649414062 598.616210938 l 1,9,-1
 359.169921875 533.278320312 l 1,10,-1
 377.272460938 525.81640625 l 1,11,-1
 370.197265625 507.560546875 l 2,12,13
 298.005859375 321.275390625 298.005859375 321.275390625 298.268554688 152.869140625 c 0,14,15
 298.225585938 87.8564453125 298.225585938 87.8564453125 309.909179688 34.2001953125 c 128,-1,16
 321.592773438 -19.4560546875 321.592773438 -19.4560546875 345.344726562 -62.458984375 c 128,-1,17
 369.095703125 -105.461914062 369.095703125 -105.461914062 405.018554688 -137.40234375 c 128,-1,18
 440.942382812 -169.34375 440.942382812 -169.34375 489.446289062 -190.67578125 c 128,-1,19
 537.951171875 -212.0078125 537.951171875 -212.0078125 599.067382812 -222.588867188 c 128,-1,20
 660.184570312 -233.169921875 660.184570312 -233.169921875 734.391601562 -233.203125 c 0,21,22
 842.203125 -233.154296875 842.203125 -233.154296875 921.947265625 -207.131835938 c 128,-1,23
 1001.69042969 -181.110351562 1001.69042969 -181.110351562 1054.69042969 -128.232421875 c 128,-1,24
 1107.68945312 -75.3544921875 1107.68945312 -75.3544921875 1133.93359375 4.369140625 c 128,-1,25
 1160.17773438 84.091796875 1160.17773438 84.091796875 1160.5546875 191.982421875 c 0,26,27
 1160.98925781 371.408203125 1160.98925781 371.408203125 1072.46875 553.004882812 c 2,28,-1
 1062.61035156 573.228515625 l 1,29,-1
 1083.84960938 580.649414062 l 1,30,-1
 1256.49121094 640.966796875 l 1,31,-1
 1274.63867188 647.307617188 l 1,32,-1
 1281.69238281 629.424804688 l 2,33,34
 1305.4765625 569.127929688 1305.4765625 569.127929688 1323.33496094 509.80078125 c 128,-1,35
 1341.19335938 450.47265625 1341.19335938 450.47265625 1353.14257812 392.038085938 c 128,-1,36
 1365.09082031 333.603515625 1365.09082031 333.603515625 1371.08789062 276.0703125 c 128,-1,37
 1377.08496094 218.536132812 1377.08496094 218.536132812 1377.11425781 161.985351562 c 0,38,39
 1377.05566406 79.88671875 1377.05566406 79.88671875 1360.7421875 5.3544921875 c 128,-1,40
 1344.4296875 -69.177734375 1344.4296875 -69.177734375 1311.82421875 -135.793945312 c 0,0,1
EndSplineSet
Substitution2: "'fina' Terminal Forms in Arabic lookup 9 subtable" uniFB9F
EndChar

StartChar: uni06F4
Encoding: 1780 1780 90
GlifName: uni06F_4
Width: 1224
VWidth: 2972
GlyphClass: 2
Flags: W
LayerCount: 2
Fore
SplineSet
1082.74023438 1309.58300781 m 1,0,-1
 1039.74511719 1137.19433594 l 1,1,-1
 1034.1953125 1114.94335938 l 1,2,-1
 1012.90625 1123.46679688 l 2,3,4
 939 1153 939 1153 870.239257812 1152.92675781 c 0,5,6
 817 1153 817 1153 776.625 1142.23730469 c 0,7,8
 719.706841914 1127.89420249 719.706841914 1127.89420249 663.540299309 1071 c 4,9,10
 603.644065188 1010.32778635 603.644065188 1010.32778635 596.552734375 945.094726562 c 0,11,12
 595 932 595 932 611.438476562 913.711914062 c 0,13,14
 628 896 628 896 666.72265625 875.412109375 c 0,15,16
 733 841 733 841 832.952148438 840.590820312 c 0,17,18
 969.087582016 841.000263413 969.087582016 841.000263413 1087.60546875 889.061523438 c 2,19,-1
 1111.52832031 898.762695312 l 1,20,-1
 1114.94628906 873.17578125 l 1,21,-1
 1138.2734375 698.5390625 l 1,22,-1
 1140.26171875 683.65234375 l 1,23,-1
 1126.52050781 677.591796875 l 2,24,25
 998 621 998 621 853.233398438 621.181640625 c 0,26,27
 630 621 630 621 505.25 728.779296875 c 1,28,29
 520 616 520 616 526.924804688 501.475585938 c 0,30,31
 534.115234375 385.135525308 534.115234375 385.135525308 534.115234375 268.771484375 c 2,32,-1
 534.115234375 31.5537109375 l 1,33,-1
 534.115234375 11.5537109375 l 1,34,-1
 514.115234375 11.5537109375 l 1,35,-1
 334.796875 11.5537109375 l 1,36,-1
 314.796875 11.5537109375 l 1,37,-1
 314.796875 31.5537109375 l 1,38,-1
 314.791992188 271.924804688 l 2,39,40
 314.99978023 908.326899428 314.99978023 908.326899428 126.9453125 1289.05078125 c 2,41,-1
 116.95703125 1309.27246094 l 1,42,-1
 138.227539062 1316.77050781 l 1,43,-1
 302.923828125 1374.82617188 l 1,44,-1
 321.887695312 1381.51074219 l 1,45,-1
 328.470703125 1362.51171875 l 2,46,47
 375 1227 375 1227 430.640625 1062.50195312 c 1,48,49
 477 1207 477 1207 583.254882812 1294.41308594 c 0,50,51
 692 1384 692 1384 845.125976562 1383.43164062 c 0,52,53
 874 1383 874 1383 902.548828125 1380.07421875 c 128,-1,54
 931 1377 931 1377 959.478515625 1370.46679688 c 128,-1,55
 988 1364 988 1364 1015.828125 1354.64746094 c 0,56,57
 1045.14358021 1344.60838086 1045.14358021 1344.60838086 1071.58105469 1332.64355469 c 2,58,-1
 1086.77636719 1325.76660156 l 1,59,-1
 1082.74023438 1309.58300781 l 1,0,-1
EndSplineSet
PairPos2: "'kern' Horizontal Kerning lookup 15-4" uni06F6 dx=-43 dy=0 dh=-43 dv=0 dx=0 dy=0 dh=0 dv=0
PairPos2: "'kern' Horizontal Kerning lookup 15-4" uni06F8 dx=-100 dy=0 dh=-100 dv=0 dx=0 dy=0 dh=0 dv=0
PairPos2: "'kern' Horizontal Kerning lookup 15-4" uni06F7 dx=-43 dy=0 dh=-43 dv=0 dx=0 dy=0 dh=0 dv=0
PairPos2: "'kern' Horizontal Kerning lookup 15-4" uni06F5 dx=-64 dy=0 dh=-64 dv=0 dx=0 dy=0 dh=0 dv=0
EndChar

StartChar: uni06F5
Encoding: 1781 1781 91
GlifName: uni06F_5
Width: 1288
VWidth: 2972
GlyphClass: 2
Flags: W
LayerCount: 2
Fore
SplineSet
303.965820312 359.411132812 m 0,0,1
 304 315 304 315 312.920898438 287.513671875 c 128,-1,2
 322 260 322 260 337.749023438 249.043945312 c 0,3,4
 354 238 354 238 378.056640625 237.844726562 c 0,5,6
 515.071937311 238.000081566 515.071937311 238.000081566 570.153320312 496.747070312 c 6,7,-1
 573.52734375 512.596679688 l 5,8,-1
 589.731445312 512.583007812 l 5,9,-1
 714.0390625 512.477539062 l 5,10,-1
 730.954101562 512.462890625 l 5,11,-1
 733.748046875 495.780273438 l 6,12,13
 778 234 778 234 899.271484375 234.079101562 c 0,14,15
 942 234 942 234 963.099609375 263.055664062 c 128,-1,16
 984 292 984 292 983.978515625 359.676757812 c 0,17,18
 984 638 984 638 631.017578125 1000.04003906 c 1,19,20
 304 564 304 564 303.965820312 359.411132812 c 0,0,1
363.447265625 11.9833984375 m 0,21,22
 227 12 227 12 158.25390625 101.041992188 c 0,23,24
 89 190 89 190 89.2421875 359.330078125 c 0,25,26
 89 645 89 645 468.719726562 1159.30664062 c 1,27,-1
 425.515625 1199.74804688 l 1,28,-1
 411.85546875 1212.53515625 l 1,29,-1
 423.706054688 1227.015625 l 1,30,-1
 547.96484375 1378.85644531 l 1,31,-1
 561.59375 1395.51171875 l 1,32,-1
 577.20703125 1380.70019531 l 1,33,-1
 702.58984375 1261.75878906 l 1,34,35
 1200 773 1200 773 1199.44238281 369.233398438 c 0,36,37
 1199 195 1199 195 1127.31640625 103.469726562 c 0,38,39
 1055 12 1055 12 914.303710938 11.943359375 c 0,40,41
 870 12 870 12 831.024414062 23.5458984375 c 128,-1,42
 792 35 792 35 759.232421875 57.7412109375 c 0,43,44
 726 80 726 80 699.6796875 113.516601562 c 0,45,46
 673 147 673 147 652.516601562 190.030273438 c 1,47,48
 569 12 569 12 363.447265625 11.9833984375 c 0,21,22
EndSplineSet
PairPos2: "'kern' Horizontal Kerning lookup 15-4" uni06F9 dx=-35 dy=0 dh=-35 dv=0 dx=0 dy=0 dh=0 dv=0
PairPos2: "'kern' Horizontal Kerning lookup 15-4" uni06F8 dx=-38 dy=0 dh=-38 dv=0 dx=0 dy=0 dh=0 dv=0
PairPos2: "'kern' Horizontal Kerning lookup 15-4" uni06F7 dx=-100 dy=0 dh=-100 dv=0 dx=0 dy=0 dh=0 dv=0
PairPos2: "'kern' Horizontal Kerning lookup 15-4" uni06F6 dx=-42 dy=0 dh=-42 dv=0 dx=0 dy=0 dh=0 dv=0
PairPos2: "'kern' Horizontal Kerning lookup 15-4" uni06F4 dx=-42 dy=0 dh=-42 dv=0 dx=0 dy=0 dh=0 dv=0
PairPos2: "'kern' Horizontal Kerning lookup 15-4" uni06F3 dx=-100 dy=0 dh=-100 dv=0 dx=0 dy=0 dh=0 dv=0
PairPos2: "'kern' Horizontal Kerning lookup 15-4" uni06F2 dx=-100 dy=0 dh=-100 dv=0 dx=0 dy=0 dh=0 dv=0
EndChar

StartChar: uni06F6
Encoding: 1782 1782 92
GlifName: uni06F_6
Width: 1084
VWidth: 2952
GlyphClass: 2
Flags: W
LayerCount: 2
Fore
SplineSet
730.57421875 1145.01660156 m 2,0,1
 679.045524635 1149.99965447 679.045524635 1149.99965447 617.625976562 1150.46582031 c 0,2,3
 535 1150 535 1150 477.130859375 1129.84765625 c 0,4,5
 419 1109 419 1109 383.9609375 1069.97460938 c 0,6,7
 366 1050 366 1050 354.713867188 1029.43457031 c 0,8,9
 343 1009 343 1009 337.405273438 987.494140625 c 128,-1,10
 332 966 332 966 331.594726562 943.733398438 c 0,11,12
 332 780 332 780 664.461914062 778.37890625 c 1,13,14
 862.7546294 886.234770003 862.7546294 886.234770003 946.333984375 920.287109375 c 2,15,-1
 972.690429688 931.025390625 l 1,16,-1
 973.86328125 902.58984375 l 1,17,-1
 981.540039062 716.4609375 l 1,18,-1
 982.095703125 702.970703125 l 1,19,-1
 969.791992188 697.411132812 l 2,20,21
 528.350009853 498.157983536 528.350009853 498.157983536 316.749023438 -16.0205078125 c 2,22,-1
 309.6328125 -33.3125 l 1,23,-1
 291.90234375 -27.3740234375 l 1,24,-1
 122.659179688 29.30859375 l 1,25,-1
 102.54296875 36.0458984375 l 1,26,27
 245 390 245 390 458.856445312 590.609375 c 5,28,29
 286 616 286 616 196.547851562 706.134765625 c 0,30,31
 107 796 107 796 107.64453125 948.983398438 c 0,32,33
 108 1048 108 1048 148.4375 1131.21484375 c 0,34,35
 273 1381 273 1381 586.114257812 1376.40820312 c 0,36,37
 613 1376 613 1376 641.868164062 1374.61816406 c 0,38,39
 670 1373 670 1373 700.26171875 1369.81738281 c 0,40,41
 727.561633649 1367.04452496 727.561633649 1367.04452496 761.313476562 1362.01367188 c 2,42,-1
 781.034179688 1359.07421875 l 1,43,-1
 778.155273438 1339.34570312 l 1,44,-1
 752.2890625 1162.03710938 l 1,45,-1
 749.5390625 1143.18261719 l 1,46,-1
 730.57421875 1145.01660156 l 2,0,1
EndSplineSet
PairPos2: "'kern' Horizontal Kerning lookup 15-4" uni06F8 dx=-43 dy=0 dh=-43 dv=0 dx=0 dy=0 dh=0 dv=0
PairPos2: "'kern' Horizontal Kerning lookup 15-4" uni06F7 dx=-43 dy=0 dh=-43 dv=0 dx=0 dy=0 dh=0 dv=0
PairPos2: "'kern' Horizontal Kerning lookup 15-4" uni06F5 dx=-43 dy=0 dh=-43 dv=0 dx=0 dy=0 dh=0 dv=0
EndChar

StartChar: uniFB8F
Encoding: 64399 64399 107
GlifName: uniF_B_8F_
Width: 1924
VWidth: 2972
GlyphClass: 2
Flags: W
AnchorPoint: "Anchor-10" 1140.88 1458.07 basechar 0
AnchorPoint: "Anchor-7" 720.268 -216.468 basechar 0
LayerCount: 2
Fore
SplineSet
830.911132812 0 m 2,0,1
 475 0 475 0 277.131835938 126.294921875 c 0,2,3
 79 253 79 253 79.16015625 505.848632812 c 0,4,5
 78.9996761253 645.281397732 78.9996761253 645.281397732 135.416015625 770.975585938 c 2,6,-1
 143.5078125 789.00390625 l 1,7,-1
 337.096679688 714.897460938 l 1,8,-1
 330.052734375 696.938476562 l 2,9,10
 298.113944802 616.795196421 298.113944802 616.795196421 298.43359375 531.370117188 c 0,11,12
 299 380 299 380 438.041015625 301.498046875 c 0,13,14
 576.012169069 223.993164062 576.012169069 223.993164062 830.911132812 223.993164062 c 2,15,-1
 1012.63183594 223.993164062 l 2,16,17
 1425 224 1425 224 1426.57421875 395.205078125 c 0,18,19
 1427 439 1427 439 1402.85742188 484.170898438 c 0,20,21
 1379 529 1379 529 1329.38378906 575.510742188 c 0,22,23
 1277 625 1277 625 1228.70019531 667.227539062 c 0,24,25
 1181 710 1181 710 1138.05566406 745.82421875 c 0,26,27
 1095 782 1095 782 1057.53222656 811.243164062 c 0,28,29
 936 906 936 906 935.768554688 1014.45214844 c 0,30,31
 936 1085 936 1085 975.047851562 1136.25585938 c 0,32,33
 1014.12381667 1187.16129972 1014.12381667 1187.16129972 1088.86425781 1215.54296875 c 2,34,-1
 1782.12109375 1478.79785156 l 1,35,-1
 1809.22070312 1489.08886719 l 1,36,-1
 1809.22070312 1460.10058594 l 1,37,-1
 1809.22070312 1279.46289062 l 1,38,-1
 1809.22070312 1265.57617188 l 1,39,-1
 1796.20898438 1260.72363281 l 1,40,-1
 1155.58984375 1021.8203125 l 1,41,42
 1398 818 1398 818 1513.27832031 693.263671875 c 0,43,44
 1596 604 1596 604 1646.77050781 461.572265625 c 0,45,46
 1731.00242363 223.993164062 1731.00242363 223.993164062 1915.76367188 223.993164062 c 6,47,-1
 1932.08984375 223.993164062 l 2,48,49
 1942 224 1942 224 1949.13476562 220.223632812 c 0,50,51
 1956 216 1956 216 1960.58203125 207.84765625 c 0,52,53
 1965 199 1965 199 1967.33691406 191.920898438 c 0,54,55
 1970 185 1970 185 1970.84960938 170.634765625 c 0,56,57
 1972 157 1972 157 1971.99121094 149.50390625 c 128,-1,58
 1972 142 1972 142 1972.17382812 127.174804688 c 2,59,-1
 1972.17382812 108.28515625 l 2,60,61
 1972 106 1972 106 1972.16894531 102.047851562 c 0,62,63
 1972 78 1972 78 1971.40234375 65.0771484375 c 128,-1,64
 1971 52 1971 52 1967.2734375 34.341796875 c 0,65,66
 1964 16 1964 16 1955.11914062 8.2275390625 c 0,67,68
 1946 0 1946 0 1932.09570312 0 c 2,69,-1
 1915.65722656 0 l 2,70,71
 1703 0 1703 0 1567.51367188 163.552734375 c 1,72,73
 1436 0 1436 0 1013.46191406 0 c 2,74,-1
 830.911132812 0 l 2,0,1
EndSplineSet
EndChar

StartChar: uniFB9F
Encoding: 64415 64415 115
GlifName: uniF_B_9F_
Width: 1539
VWidth: 2972
GlyphClass: 2
Flags: W
AnchorPoint: "Anchor-10" 693.458 1386.61 basechar 0
AnchorPoint: "Anchor-7" 585.902 -780.086 basechar 0
LayerCount: 2
Fore
SplineSet
1368.86328125 36.9052734375 m 1,0,1
 1365.41308594 -32.7666015625 1365.41308594 -32.7666015625 1351.25488281 -93.154296875 c 128,-1,2
 1337.09667969 -153.54296875 1337.09667969 -153.54296875 1311.84472656 -205.751953125 c 0,3,4
 1157.453125 -520.0078125 1157.453125 -520.0078125 727.338867188 -519.724609375 c 0,5,6
 407.588867188 -519.865234375 407.588867188 -519.865234375 244.477539062 -368.444335938 c 128,-1,7
 81.3662109375 -217.022460938 81.3662109375 -217.022460938 81.7529296875 81.0673828125 c 0,8,9
 82.0048828125 293.983398438 82.0048828125 293.983398438 174.545898438 517.767578125 c 2,10,-1
 182.180664062 536.228515625 l 1,11,-1
 200.649414062 528.616210938 l 1,12,-1
 359.169921875 463.278320312 l 1,13,-1
 377.272460938 455.81640625 l 1,14,-1
 370.197265625 437.560546875 l 2,15,16
 298.005859375 251.275390625 298.005859375 251.275390625 298.268554688 82.869140625 c 0,17,18
 298.139648438 -112.223632812 298.139648438 -112.223632812 405.3359375 -207.6640625 c 128,-1,19
 512.532226562 -303.104492188 512.532226562 -303.104492188 734.391601562 -303.203125 c 0,20,21
 949.639648438 -303.104492188 949.639648438 -303.104492188 1054.72070312 -198.263671875 c 128,-1,22
 1159.80175781 -93.4228515625 1159.80175781 -93.4228515625 1160.5546875 121.982421875 c 0,23,24
 1160.98925781 301.408203125 1160.98925781 301.408203125 1072.46875 483.004882812 c 2,25,-1
 1062.61035156 503.228515625 l 1,26,-1
 1083.84960938 510.649414062 l 1,27,-1
 1256.49121094 570.966796875 l 1,28,-1
 1275.86035156 577.734375 l 1,29,-1
 1282.13085938 558.198242188 l 1,30,-1
 1355.30273438 330.219726562 l 2,31,32
 1389.56347656 223.999023438 1389.56347656 223.999023438 1529.02050781 223.999023438 c 2,33,-1
 1548.13378906 223.999023438 l 2,34,35
 1562.31347656 224 1562.31347656 224 1571.14160156 216.159179688 c 128,-1,36
 1579.96972656 208.319335938 1579.96972656 208.319335938 1583.3203125 191.94140625 c 128,-1,37
 1586.67089844 175.564453125 1586.67089844 175.564453125 1587.4453125 164.041992188 c 128,-1,38
 1588.21875 152.520507812 1588.21875 152.520507812 1588.21875 131.889648438 c 2,39,-1
 1588.21875 108.287109375 l 2,40,41
 1588.21386719 106.1953125 1588.21386719 106.1953125 1588.20996094 101.956054688 c 0,42,43
 1588.19238281 77.845703125 1588.19238281 77.845703125 1587.42871094 65.0087890625 c 128,-1,44
 1586.66503906 52.1708984375 1586.66503906 52.1708984375 1583.29003906 34.3017578125 c 128,-1,45
 1579.91601562 16.43359375 1579.91601562 16.43359375 1571.13769531 8.216796875 c 128,-1,46
 1562.35839844 0 1562.35839844 0 1548.13671875 0 c 2,47,-1
 1533.41894531 0 l 2,48,49
 1431.09667969 0 1431.09667969 0 1368.86328125 36.9052734375 c 1,0,1
EndSplineSet
EndChar

StartChar: uniFBE8
Encoding: 64488 64488 118
GlifName: uniF_B_E_8
Width: 646
VWidth: 2972
GlyphClass: 2
Flags: W
AnchorPoint: "Anchor-10" 311.384 1373 basechar 0
AnchorPoint: "Anchor-7" 303.422 -203.625 basechar 0
LayerCount: 2
Fore
SplineSet
68.673828125 0 m 2,0,-1
 -6.9384765625 0 l 2,1,2
 -46.005859375 0 -46.005859375 0 -65.3916015625 29.646484375 c 128,-1,3
 -84.7783203125 59.2939453125 -84.7783203125 59.2939453125 -84.7783203125 108.313476562 c 2,4,-1
 -84.7783203125 127.147460938 l 2,5,6
 -84.9052734375 170.982421875 -84.9052734375 170.982421875 -64.96875 197.48828125 c 128,-1,7
 -45.033203125 223.993164062 -45.033203125 223.993164062 -6.9384765625 223.993164062 c 2,8,-1
 68.68359375 223.993164062 l 2,9,10
 145.760742188 223.99609375 145.760742188 223.99609375 198.575195312 231.868164062 c 128,-1,11
 251.390625 239.739257812 251.390625 239.739257812 275.563476562 253.483398438 c 0,12,13
 351.015625 297.497070312 351.015625 297.497070312 351.221679688 445.029296875 c 0,14,15
 351.004882812 561.502929688 351.004882812 561.502929688 314.9453125 704.751953125 c 2,16,-1
 310.0625 724.1484375 l 1,17,-1
 329.459960938 729.029296875 l 1,18,-1
 492.544921875 770.063476562 l 1,19,-1
 510.883789062 774.677734375 l 1,20,-1
 516.516601562 756.625976562 l 2,21,22
 565.995117188 598.0625 565.995117188 598.0625 566.223632812 448.333984375 c 0,23,24
 565.991210938 193.017578125 565.991210938 193.017578125 417.5859375 81.265625 c 0,25,26
 310.7421875 0 310.7421875 0 68.673828125 0 c 2,0,-1
EndSplineSet
EndChar

StartChar: uniFBE9
Encoding: 64489 64489 119
GlifName: uniF_B_E_9
Width: 717
VWidth: 2972
GlyphClass: 2
Flags: W
AnchorPoint: "Anchor-10" 315.665 1317.09 basechar 0
AnchorPoint: "Anchor-7" 350.537 -157.742 basechar 0
LayerCount: 2
Fore
SplineSet
764.731445312 108.340820312 m 2,0,1
 764.731445312 106.40625 764.731445312 106.40625 764.737304688 102.48828125 c 0,2,3
 764.7734375 78.29296875 764.7734375 78.29296875 764.033203125 65.3935546875 c 128,-1,4
 763.29296875 52.494140625 763.29296875 52.494140625 759.938476562 34.5224609375 c 128,-1,5
 756.584960938 16.55078125 756.584960938 16.55078125 747.770507812 8.275390625 c 128,-1,6
 738.956054688 0 738.956054688 0 724.650390625 0 c 2,7,-1
 715.006835938 0 l 2,8,9
 524.426757812 0 524.426757812 0 440.198242188 125.774414062 c 1,10,11
 331.760742188 0 331.760742188 0 95.759765625 0 c 2,12,-1
 -8.1171875 0 l 2,13,14
 -46.7548828125 0 -46.7548828125 0 -65.7666015625 29.6806640625 c 128,-1,15
 -84.7783203125 59.361328125 -84.7783203125 59.361328125 -84.7783203125 108.313476562 c 2,16,-1
 -84.7783203125 127.157226562 l 2,17,18
 -84.904296875 170.892578125 -84.904296875 170.892578125 -65.3408203125 197.442382812 c 128,-1,19
 -45.7763671875 223.993164062 -45.7763671875 223.993164062 -8.1171875 223.993164062 c 2,20,-1
 91.01171875 223.993164062 l 2,21,22
 305.373046875 223.999023438 305.373046875 223.999023438 326.887695312 339.834960938 c 0,23,24
 333.010742188 372.896484375 333.010742188 372.896484375 333.291992188 419.265625 c 0,25,26
 333.00390625 468.358398438 333.00390625 468.358398438 330.049804688 512.340820312 c 2,27,-1
 324.559570312 594.096679688 l 1,28,-1
 323.284179688 613.08203125 l 1,29,-1
 342.182617188 615.299804688 l 1,30,-1
 506.989257812 634.647460938 l 1,31,-1
 527.818359375 637.092773438 l 1,32,-1
 529.2734375 616.170898438 l 1,33,-1
 545.344726562 385.0078125 l 2,34,35
 549.247070312 329.400390625 549.247070312 329.400390625 568.880859375 293.903320312 c 128,-1,36
 588.514648438 258.405273438 588.514648438 258.405273438 624.961914062 241.19921875 c 128,-1,37
 661.409179688 223.993164062 661.409179688 223.993164062 716.57421875 223.993164062 c 2,38,-1
 724.64453125 223.993164062 l 2,39,40
 738.9296875 223.998046875 738.9296875 223.998046875 747.747070312 215.793945312 c 128,-1,41
 756.563476562 207.58984375 756.563476562 207.58984375 759.916992188 189.874023438 c 128,-1,42
 763.270507812 172.159179688 763.270507812 172.159179688 764.016601562 159.500976562 c 128,-1,43
 764.76171875 146.842773438 764.76171875 146.842773438 764.735351562 123.24609375 c 0,44,45
 764.731445312 119.951171875 764.731445312 119.951171875 764.731445312 118.322265625 c 2,46,-1
 764.731445312 108.340820312 l 2,0,1
EndSplineSet
EndChar

StartChar: uniFE73
Encoding: 65139 65139 127
GlifName: uniF_E_73
Width: 672
VWidth: 2972
GlyphClass: 2
Flags: W
AnchorPoint: "Anchor-10" 342.943 1032.47 basechar 0
AnchorPoint: "Anchor-7" 416.943 -186.304 basechar 0
LayerCount: 2
Fore
SplineSet
320.336914062 446.018554688 m 2,0,1
 320.336914062 334.180664062 320.336914062 334.180664062 392.497070312 279.26171875 c 128,-1,2
 464.65625 224.342773438 464.65625 224.342773438 618.00390625 224.342773438 c 2,3,-1
 688.674804688 224.342773438 l 1,4,-1
 708.674804688 224.342773438 l 1,5,-1
 708.674804688 204.342773438 l 1,6,-1
 708.674804688 21.5537109375 l 1,7,-1
 708.674804688 1.5537109375 l 1,8,-1
 688.674804688 1.5537109375 l 1,9,-1
 607.989257812 1.5537109375 l 2,10,11
 352.658203125 1.7822265625 352.658203125 1.7822265625 221.1015625 114.467773438 c 128,-1,12
 89.544921875 227.153320312 89.544921875 227.153320312 89.544921875 448.563476562 c 2,13,-1
 89.544921875 472.69140625 l 1,14,-1
 89.544921875 492.69140625 l 1,15,-1
 109.544921875 492.69140625 l 1,16,-1
 300.336914062 492.69140625 l 1,17,-1
 320.336914062 492.69140625 l 1,18,-1
 320.336914062 472.69140625 l 1,19,-1
 320.336914062 446.018554688 l 2,0,1
EndSplineSet
EndChar

StartChar: uniFE8E
Encoding: 65166 65166 153
GlifName: uniF_E_8E_
Width: 531
VWidth: 2972
GlyphClass: 2
Flags: W
AnchorPoint: "Anchor-10" 234.697 1559.11 basechar 0
AnchorPoint: "Anchor-7" 296.078 -219.903 basechar 0
LayerCount: 2
Fore
SplineSet
578.618164062 108.466796875 m 1,0,1
 580 90 580 90 578.665039062 70.974609375 c 0,2,3
 578 52 578 52 574.831054688 35.9716796875 c 0,4,5
 572 20 572 20 562.870117188 10.099609375 c 0,6,7
 554 0 554 0 538.537109375 0 c 2,8,-1
 517.658203125 0 l 2,9,10
 130.283203125 0 130.283203125 0 130.283203125 454.395507812 c 2,11,-1
 130.283203125 1388.171875 l 1,12,-1
 130.283203125 1408.171875 l 1,13,-1
 150.283203125 1408.171875 l 1,14,-1
 323.598632812 1408.171875 l 1,15,-1
 343.598632812 1408.171875 l 1,16,-1
 343.598632812 1388.171875 l 1,17,-1
 343.598632812 456.465820312 l 2,18,19
 344.379667053 223.993164062 344.379667053 223.993164062 520.712890625 223.993164062 c 6,20,-1
 538.53125 223.993164062 l 2,21,22
 548 224 548 224 555.577148438 220.223632812 c 0,23,24
 563 216 563 216 567.024414062 207.848632812 c 0,25,26
 571 199 571 199 573.780273438 191.920898438 c 0,27,28
 576 185 576 185 577.293945312 170.635742188 c 0,29,30
 578 150 578 150 578.434570312 149.50390625 c 0,31,32
 578.618164062 149.340289022 578.618164062 149.340289022 578.618164062 127.174804688 c 2,33,-1
 578.618164062 108.466796875 l 1,0,1
EndSplineSet
EndChar

StartChar: uniFEA2
Encoding: 65186 65186 173
GlifName: uniF_E_A_2
Width: 1386
VWidth: 2972
GlyphClass: 2
Flags: W
AnchorPoint: "Anchor-7" 580.833 -790.619 basechar 0
AnchorPoint: "Anchor-10" 649.478 1282.07 basechar 0
LayerCount: 2
Fore
SplineSet
1277.85253906 679.200195312 m 1,0,-1
 1264.85839844 505.369140625 l 1,1,-1
 1263.57714844 488.227539062 l 1,2,-1
 1246.4375 486.91796875 l 2,3,4
 1154.03417969 479.861328125 1154.03417969 479.861328125 1069.85742188 468.868164062 c 1,5,6
 1072.39453125 343.133789062 1072.39453125 343.133789062 1135.94238281 283.372070312 c 128,-1,7
 1199.49023438 223.610351562 1199.49023438 223.610351562 1330.55175781 224.061523438 c 2,8,-1
 1393.99707031 224.279296875 l 2,9,10
 1408.18945312 224.083007812 1408.18945312 224.083007812 1416.99902344 216.213867188 c 128,-1,11
 1425.80859375 208.344726562 1425.80859375 208.344726562 1429.13964844 191.935546875 c 128,-1,12
 1432.47167969 175.525390625 1432.47167969 175.525390625 1433.22460938 164.123046875 c 128,-1,13
 1433.97851562 152.719726562 1433.97851562 152.719726562 1433.97851562 131.889648438 c 2,14,-1
 1433.97851562 108.31640625 l 2,15,16
 1433.97851562 106.399414062 1433.97851562 106.399414062 1433.98535156 102.51953125 c 0,17,18
 1434.02636719 78.322265625 1434.02636719 78.322265625 1433.2890625 65.4189453125 c 128,-1,19
 1432.55078125 52.5166015625 1432.55078125 52.5166015625 1429.19921875 34.5380859375 c 128,-1,20
 1425.84667969 16.5595703125 1425.84667969 16.5595703125 1417.02929688 8.279296875 c 128,-1,21
 1408.21191406 0 1408.21191406 0 1393.8984375 0 c 2,22,-1
 1331.49511719 0 l 2,23,24
 1111.05566406 0 1111.05566406 0 995.833984375 108.87890625 c 128,-1,25
 880.612304688 217.756835938 880.612304688 217.756835938 876.342773438 430.064453125 c 1,26,27
 591.903320312 354.298828125 591.903320312 354.298828125 453.517578125 219.890625 c 128,-1,28
 315.131835938 85.4833984375 315.131835938 85.4833984375 315.249023438 -109.31640625 c 0,29,30
 315.130859375 -283.9609375 315.130859375 -283.9609375 440.446289062 -370.92578125 c 128,-1,31
 565.762695312 -457.889648438 565.762695312 -457.889648438 826.40625 -457.783203125 c 0,32,33
 1038.4765625 -457.995117188 1038.4765625 -457.995117188 1234.68847656 -364.237304688 c 2,34,-1
 1257.71191406 -353.236328125 l 1,35,-1
 1262.89453125 -378.220703125 l 1,36,-1
 1298.95410156 -552.047851562 l 1,37,-1
 1302.1171875 -567.29296875 l 1,38,-1
 1288.11328125 -574.098632812 l 2,39,40
 1084.61132812 -672.99609375 1084.61132812 -672.99609375 811.515625 -673.249023438 c 0,41,42
 613.002929688 -673.122070312 613.002929688 -673.122070312 469.709960938 -626.625 c 128,-1,43
 326.416015625 -580.127929688 326.416015625 -580.127929688 239.325195312 -485.895507812 c 0,44,45
 105.000976562 -340.838867188 105.000976562 -340.838867188 104.98046875 -124.543945312 c 0,46,47
 104.990234375 163.54296875 104.990234375 163.54296875 276.098632812 351.479492188 c 128,-1,48
 447.20703125 539.415039062 447.20703125 539.415039062 784.043945312 624.821289062 c 1,49,50
 772.124023438 629.544921875 772.124023438 629.544921875 758.640625 634.90234375 c 128,-1,51
 745.157226562 640.259765625 745.157226562 640.259765625 729.424804688 646.5234375 c 0,52,53
 538.145507812 723.983398438 538.145507812 723.983398438 469.56640625 723.6875 c 0,54,55
 434.750976562 723.784179688 434.750976562 723.784179688 404.62109375 714.477539062 c 128,-1,56
 374.491210938 705.171875 374.491210938 705.171875 348.290039062 686.110351562 c 128,-1,57
 322.087890625 667.048828125 322.087890625 667.048828125 299.436523438 637.872070312 c 2,58,-1
 271.408203125 601.76953125 l 1,59,-1
 261.396484375 588.873046875 l 1,60,-1
 246.756835938 596.100585938 l 1,61,-1
 92.896484375 672.060546875 l 1,62,-1
 73.3515625 681.709960938 l 1,63,-1
 84.642578125 700.353515625 l 1,64,-1
 101.3515625 727.947265625 l 2,65,66
 233.75 946.0078125 233.75 946.0078125 471.784179688 945.841796875 c 0,67,68
 602.588867188 946.005859375 602.588867188 946.005859375 783.751953125 858.008789062 c 0,69,70
 1092.015625 707.803710938 1092.015625 707.803710938 1258.76269531 700.672851562 c 2,71,-1
 1279.39160156 699.791015625 l 1,72,-1
 1277.85253906 679.200195312 l 1,0,-1
EndSplineSet
EndChar

StartChar: uniFEA3
Encoding: 65187 65187 174
GlifName: uniF_E_A_3
Width: 1337
VWidth: 2972
GlyphClass: 2
Flags: W
AnchorPoint: "Anchor-10" 565.825 1200.07 basechar 0
AnchorPoint: "Anchor-7" 513.524 -214.745 basechar 0
LayerCount: 2
Fore
SplineSet
-6.9384765625 0 m 2,0,1
 -46.005859375 0 -46.005859375 0 -65.3916015625 29.646484375 c 128,-1,2
 -84.7783203125 59.2939453125 -84.7783203125 59.2939453125 -84.7783203125 108.313476562 c 2,3,-1
 -84.7783203125 127.157226562 l 2,4,5
 -84.9052734375 170.991210938 -84.9052734375 170.991210938 -64.96875 197.495117188 c 128,-1,6
 -45.0322265625 223.999023438 -45.0322265625 223.999023438 -6.9384765625 223.999023438 c 2,7,-1
 52.54296875 223.999023438 l 2,8,9
 378.345703125 224 378.345703125 224 859.82421875 472.607421875 c 2,10,-1
 892.716796875 489.591796875 l 1,11,12
 864.391601562 500.392578125 864.391601562 500.392578125 821.63671875 517.395507812 c 128,-1,13
 778.8828125 534.399414062 778.8828125 534.399414062 719.391601562 558.510742188 c 0,14,15
 527.16796875 635.981445312 527.16796875 635.981445312 460.337890625 635.657226562 c 0,16,17
 356.311523438 635.971679688 356.311523438 635.971679688 289.4453125 549.842773438 c 2,18,-1
 261.416992188 513.740234375 l 1,19,-1
 251.405273438 500.84375 l 1,20,-1
 236.765625 508.071289062 l 1,21,-1
 82.9052734375 584.03125 l 1,22,-1
 63.3603515625 593.680664062 l 1,23,-1
 74.6513671875 612.32421875 l 1,24,-1
 91.3447265625 639.892578125 l 2,25,26
 156.482421875 747.532226562 156.482421875 747.532226562 249.547851562 802.459960938 c 128,-1,27
 342.612304688 857.388671875 342.612304688 857.388671875 461.282226562 857.8125 c 0,28,29
 592.587890625 858.006835938 592.587890625 858.006835938 773.759765625 769.979492188 c 0,30,31
 1082.01660156 619.802734375 1082.01660156 619.802734375 1248.77441406 612.643554688 c 2,32,-1
 1268.11914062 611.813476562 l 1,33,-1
 1267.91601562 592.452148438 l 1,34,-1
 1266.09082031 418.783203125 l 1,35,-1
 1265.90039062 400.637695312 l 1,36,-1
 1247.82226562 399.068359375 l 2,37,38
 1136.74804688 389.423828125 1136.74804688 389.423828125 831.014648438 228.461914062 c 0,39,40
 397.952148438 0 397.952148438 0 40.767578125 0 c 2,41,-1
 -6.9384765625 0 l 2,0,1
EndSplineSet
EndChar

StartChar: uniFEA4
Encoding: 65188 65188 175
GlifName: uniF_E_A_4
Width: 1351
VWidth: 2972
GlyphClass: 2
Flags: W
AnchorPoint: "Anchor-10" 565.825 1200.07 basechar 0
AnchorPoint: "Anchor-7" 513.524 -214.745 basechar 0
LayerCount: 2
Fore
SplineSet
892.591796875 489.52734375 m 1,0,1
 864.8359375 500.104492188 864.8359375 500.104492188 821.79296875 517.249023438 c 128,-1,2
 778.75 534.39453125 778.75 534.39453125 719.383789062 558.513671875 c 0,3,4
 527.16796875 635.981445312 527.16796875 635.981445312 460.337890625 635.657226562 c 0,5,6
 356.311523438 635.971679688 356.311523438 635.971679688 289.4453125 549.842773438 c 2,7,-1
 261.416992188 513.740234375 l 1,8,-1
 251.405273438 500.84375 l 1,9,-1
 236.765625 508.071289062 l 1,10,-1
 82.9052734375 584.03125 l 1,11,-1
 63.3603515625 593.680664062 l 1,12,-1
 74.6513671875 612.32421875 l 1,13,-1
 91.3447265625 639.892578125 l 2,14,15
 156.482421875 747.532226562 156.482421875 747.532226562 249.547851562 802.459960938 c 128,-1,16
 342.612304688 857.388671875 342.612304688 857.388671875 461.282226562 857.8125 c 0,17,18
 592.587890625 858.006835938 592.587890625 858.006835938 773.759765625 769.979492188 c 0,19,20
 1082.01660156 619.802734375 1082.01660156 619.802734375 1248.77441406 612.643554688 c 2,21,-1
 1268.11914062 611.813476562 l 1,22,-1
 1267.91601562 592.452148438 l 1,23,-1
 1266.09082031 418.783203125 l 1,24,-1
 1265.89746094 400.385742188 l 1,25,-1
 1247.54785156 399.045898438 l 2,26,27
 1211.50683594 396.415039062 1211.50683594 396.415039062 1163.70117188 380.944335938 c 128,-1,28
 1115.89453125 365.47265625 1115.89453125 365.47265625 1059.94335938 338.075195312 c 1,29,30
 1074.83886719 224.279296875 1074.83886719 224.279296875 1316.61132812 224.279296875 c 2,31,-1
 1360.53320312 224.279296875 l 2,32,33
 1374.71289062 224.086914062 1374.71289062 224.086914062 1383.51855469 216.215820312 c 128,-1,34
 1392.32421875 208.34375 1392.32421875 208.34375 1395.65820312 191.948242188 c 128,-1,35
 1398.99121094 175.553710938 1398.99121094 175.553710938 1399.74902344 164.124023438 c 128,-1,36
 1400.50585938 152.694335938 1400.50585938 152.694335938 1400.50585938 131.889648438 c 2,37,-1
 1400.50585938 108.3828125 l 2,38,39
 1400.94140625 96.2197265625 1400.94140625 96.2197265625 1400.55859375 83.4609375 c 128,-1,40
 1400.17480469 70.7021484375 1400.17480469 70.7021484375 1399.6015625 58.66015625 c 128,-1,41
 1399.02832031 46.6171875 1399.02832031 46.6171875 1396.37304688 35.9462890625 c 128,-1,42
 1393.71777344 25.275390625 1393.71777344 25.275390625 1389.61035156 17.287109375 c 128,-1,43
 1385.50195312 9.298828125 1385.50195312 9.298828125 1378.04882812 4.6494140625 c 128,-1,44
 1370.59570312 0 1370.59570312 0 1360.42773438 0 c 2,45,-1
 1301.09667969 0 l 2,46,47
 1122.84082031 0 1122.84082031 0 1018.15820312 64.5400390625 c 128,-1,48
 913.475585938 129.081054688 913.475585938 129.081054688 888.44140625 258.205078125 c 1,49,50
 874.068359375 250.90625 874.068359375 250.90625 860.06640625 243.653320312 c 128,-1,51
 846.064453125 236.400390625 846.064453125 236.400390625 831.014648438 228.461914062 c 0,52,53
 397.952148438 0 397.952148438 0 40.767578125 0 c 2,54,-1
 -6.9384765625 0 l 2,55,56
 -46.005859375 0 -46.005859375 0 -65.3916015625 29.646484375 c 128,-1,57
 -84.7783203125 59.2939453125 -84.7783203125 59.2939453125 -84.7783203125 108.313476562 c 2,58,-1
 -84.7783203125 127.157226562 l 2,59,60
 -84.9052734375 170.991210938 -84.9052734375 170.991210938 -64.96875 197.495117188 c 128,-1,61
 -45.0322265625 223.999023438 -45.0322265625 223.999023438 -6.9384765625 223.999023438 c 2,62,-1
 52.54296875 223.999023438 l 2,63,64
 378.345703125 224 378.345703125 224 859.82421875 472.607421875 c 2,65,-1
 892.591796875 489.52734375 l 1,0,1
EndSplineSet
EndChar

StartChar: uniFEAA
Encoding: 65194 65194 181
GlifName: uniF_E_A_A_
Width: 1061
VWidth: 2972
GlyphClass: 2
Flags: W
AnchorPoint: "Anchor-7" 417.24 -219.316 basechar 0
AnchorPoint: "Anchor-10" 522.848 1265.53 basechar 0
LayerCount: 2
Fore
SplineSet
337.551757812 0.8193359375 m 0,0,1
 196.494140625 1.0029296875 196.494140625 1.0029296875 97.1865234375 26.154296875 c 2,2,-1
 82.0966796875 29.9755859375 l 1,3,-1
 82.0966796875 45.5419921875 l 1,4,-1
 82.0966796875 234.252929688 l 1,5,-1
 82.0966796875 259.71875 l 1,6,-1
 106.836914062 253.682617188 l 2,7,8
 224.397460938 225.001953125 224.397460938 225.001953125 322.985351562 225.068359375 c 0,9,10
 649.528320312 225.00390625 649.528320312 225.00390625 648.358398438 369.575195312 c 0,11,12
 648.029296875 410.318359375 648.029296875 410.318359375 558.440429688 620.568359375 c 2,13,-1
 437.600585938 904.16015625 l 1,14,-1
 429.9765625 922.052734375 l 1,15,-1
 447.650390625 930.173828125 l 1,16,-1
 612.282226562 1005.81542969 l 1,17,-1
 631.47265625 1014.6328125 l 1,18,-1
 639.232421875 994.991210938 l 1,19,-1
 831.168945312 509.196289062 l 2,20,21
 888.092773438 364.81640625 888.092773438 364.81640625 944.052734375 294.404296875 c 128,-1,22
 1000.01171875 223.993164062 1000.01171875 223.993164062 1048.87988281 223.993164062 c 2,23,-1
 1068.51171875 223.993164062 l 2,24,25
 1078.31054688 223.99609375 1078.31054688 223.99609375 1085.55761719 220.223632812 c 128,-1,26
 1092.80371094 216.450195312 1092.80371094 216.450195312 1097.00488281 207.84765625 c 128,-1,27
 1101.20507812 199.245117188 1101.20507812 199.245117188 1103.75976562 191.920898438 c 128,-1,28
 1106.31445312 184.596679688 1106.31445312 184.596679688 1107.2734375 170.635742188 c 128,-1,29
 1108.23144531 156.674804688 1108.23144531 156.674804688 1108.41503906 149.50390625 c 128,-1,30
 1108.59765625 142.33203125 1108.59765625 142.33203125 1108.59765625 127.174804688 c 2,31,-1
 1108.59765625 108.364257812 l 2,32,33
 1109.02050781 96.203125 1109.02050781 96.203125 1108.62890625 83.4462890625 c 128,-1,34
 1108.23828125 70.6904296875 1108.23828125 70.6904296875 1107.66015625 58.6494140625 c 128,-1,35
 1107.08300781 46.609375 1107.08300781 46.609375 1104.42773438 35.9404296875 c 128,-1,36
 1101.7734375 25.271484375 1101.7734375 25.271484375 1097.66894531 17.2841796875 c 128,-1,37
 1093.56445312 9.2978515625 1093.56445312 9.2978515625 1086.12011719 4.6484375 c 128,-1,38
 1078.67480469 0 1078.67480469 0 1068.51757812 0 c 2,39,-1
 1048.53222656 0 l 2,40,41
 883.364257812 0 883.364257812 0 784.451171875 147.487304688 c 1,42,43
 643.202148438 0.9931640625 643.202148438 0.9931640625 337.551757812 0.8193359375 c 0,0,1
EndSplineSet
EndChar

StartChar: uniFEAE
Encoding: 65198 65198 185
GlifName: uniF_E_A_E_
Width: 870
VWidth: 2164
GlyphClass: 2
Flags: W
AnchorPoint: "Anchor-7" 322.969 -647.998 basechar 0
AnchorPoint: "Anchor-10" 507.256 946.2 basechar 0
LayerCount: 2
Fore
SplineSet
692.19140625 33.6611328125 m 1,0,1
 614.072265625 -401.475585938 614.072265625 -401.475585938 52.716796875 -507.651367188 c 2,2,-1
 36.4423828125 -510.729492188 l 1,3,-1
 30.3857421875 -495.314453125 l 1,4,-1
 -31.7451171875 -337.193359375 l 1,5,-1
 -40.5986328125 -314.662109375 l 1,6,-1
 -16.802734375 -310.21875 l 2,7,8
 155.018554688 -278.131835938 155.018554688 -278.131835938 268.21484375 -213.647460938 c 128,-1,9
 381.411132812 -149.163085938 381.411132812 -149.163085938 436.970703125 -53.1005859375 c 128,-1,10
 492.53125 42.9619140625 492.53125 42.9619140625 493.250976562 172.353515625 c 0,11,12
 493.977539062 303.940429688 493.977539062 303.940429688 416.622070312 484.109375 c 2,13,-1
 408.233398438 503.6484375 l 1,14,-1
 428.249023438 510.826171875 l 1,15,-1
 594.388671875 570.405273438 l 1,16,-1
 613.868164062 577.390625 l 1,17,-1
 620.185546875 557.68359375 l 1,18,-1
 682.224609375 364.129882812 l 2,19,20
 697.846679688 315.834960938 697.846679688 315.834960938 721.682617188 284.723632812 c 128,-1,21
 745.518554688 253.612304688 745.518554688 253.612304688 777.544921875 238.805664062 c 128,-1,22
 809.571289062 223.999023438 809.571289062 223.999023438 851.31640625 223.999023438 c 2,23,-1
 878.573242188 223.999023438 l 2,24,25
 892.729492188 224 892.729492188 224 901.55078125 216.182617188 c 128,-1,26
 910.373046875 208.365234375 910.373046875 208.365234375 913.7265625 192.08203125 c 128,-1,27
 917.080078125 175.798828125 917.080078125 175.798828125 917.859375 164.295898438 c 128,-1,28
 918.638671875 152.793945312 918.638671875 152.793945312 918.638671875 132.322265625 c 2,29,-1
 918.638671875 108.25 l 2,30,31
 918.645507812 106.5859375 918.645507812 106.5859375 918.663085938 103.221679688 c 0,32,33
 918.7890625 78.93359375 918.7890625 78.93359375 918.088867188 65.9521484375 c 128,-1,34
 917.388671875 52.9697265625 917.388671875 52.9697265625 914.072265625 34.849609375 c 128,-1,35
 910.754882812 16.728515625 910.754882812 16.728515625 901.883789062 8.3642578125 c 128,-1,36
 893.013671875 -0 893.013671875 -0 878.57421875 0 c 2,37,-1
 861.80078125 0 l 2,38,39
 746.4453125 0 746.4453125 0 692.19140625 33.6611328125 c 1,0,1
EndSplineSet
PairPos2: "'kern' Horizontal Kerning lookup 15-2" uniFBFE dx=60 dy=0 dh=60 dv=0 dx=0 dy=0 dh=0 dv=0
PairPos2: "'kern' Horizontal Kerning lookup 15-1" uniFEE7 dx=-178 dy=0 dh=-178 dv=0 dx=0 dy=0 dh=0 dv=0
PairPos2: "'kern' Horizontal Kerning lookup 15-2" uniFB90 dx=-226 dy=0 dh=-226 dv=0 dx=0 dy=0 dh=0 dv=0
PairPos2: "'kern' Horizontal Kerning lookup 15-2" uniFB8E dx=-226 dy=0 dh=-226 dv=0 dx=0 dy=0 dh=0 dv=0
PairPos2: "'kern' Horizontal Kerning lookup 15-2" uni06A9 dx=-226 dy=0 dh=-226 dv=0 dx=0 dy=0 dh=0 dv=0
PairPos2: "'kern' Horizontal Kerning lookup 15-2" uni064A dx=-60 dy=0 dh=-60 dv=0 dx=0 dy=0 dh=0 dv=0
PairPos2: "'kern' Horizontal Kerning lookup 15-2" afii57414 dx=-60 dy=0 dh=-60 dv=0 dx=0 dy=0 dh=0 dv=0
PairPos2: "'kern' Horizontal Kerning lookup 15-2" uni0649 dx=-60 dy=0 dh=-60 dv=0 dx=0 dy=0 dh=0 dv=0
PairPos2: "'kern' Horizontal Kerning lookup 15-2" uniFEEB dx=-178 dy=0 dh=-178 dv=0 dx=0 dy=0 dh=0 dv=0
PairPos2: "'kern' Horizontal Kerning lookup 15-2" uni0647 dx=-178 dy=0 dh=-178 dv=0 dx=0 dy=0 dh=0 dv=0
PairPos2: "'kern' Horizontal Kerning lookup 15-2" uni0646 dx=-60 dy=0 dh=-60 dv=0 dx=0 dy=0 dh=0 dv=0
PairPos2: "'kern' Horizontal Kerning lookup 15-2" uniFEE3 dx=-178 dy=0 dh=-178 dv=0 dx=0 dy=0 dh=0 dv=0
PairPos2: "'kern' Horizontal Kerning lookup 15-2" uni0645 dx=-178 dy=0 dh=-178 dv=0 dx=0 dy=0 dh=0 dv=0
PairPos2: "'kern' Horizontal Kerning lookup 15-2" uniFEFB dx=-143 dy=0 dh=-143 dv=0 dx=0 dy=0 dh=0 dv=0
PairPos2: "'kern' Horizontal Kerning lookup 15-2" uniFEDF dx=-143 dy=0 dh=-143 dv=0 dx=0 dy=0 dh=0 dv=0
PairPos2: "'kern' Horizontal Kerning lookup 15-2" uni0644 dx=-60 dy=0 dh=-60 dv=0 dx=0 dy=0 dh=0 dv=0
PairPos2: "'kern' Horizontal Kerning lookup 15-2" uniFEDB dx=-226 dy=0 dh=-226 dv=0 dx=0 dy=0 dh=0 dv=0
PairPos2: "'kern' Horizontal Kerning lookup 15-2" uni0643 dx=-143 dy=0 dh=-143 dv=0 dx=0 dy=0 dh=0 dv=0
PairPos2: "'kern' Horizontal Kerning lookup 15-2" uniFED7 dx=-178 dy=0 dh=-178 dv=0 dx=0 dy=0 dh=0 dv=0
PairPos2: "'kern' Horizontal Kerning lookup 15-2" uni0642 dx=-60 dy=0 dh=-60 dv=0 dx=0 dy=0 dh=0 dv=0
PairPos2: "'kern' Horizontal Kerning lookup 15-2" uniFED3 dx=-178 dy=0 dh=-178 dv=0 dx=0 dy=0 dh=0 dv=0
PairPos2: "'kern' Horizontal Kerning lookup 15-2" uni0641 dx=-178 dy=0 dh=-178 dv=0 dx=0 dy=0 dh=0 dv=0
PairPos2: "'kern' Horizontal Kerning lookup 15-2" uniFECF dx=-178 dy=0 dh=-178 dv=0 dx=0 dy=0 dh=0 dv=0
PairPos2: "'kern' Horizontal Kerning lookup 15-2" uniFECB dx=-178 dy=0 dh=-178 dv=0 dx=0 dy=0 dh=0 dv=0
PairPos2: "'kern' Horizontal Kerning lookup 15-2" uniFEC7 dx=-178 dy=0 dh=-178 dv=0 dx=0 dy=0 dh=0 dv=0
PairPos2: "'kern' Horizontal Kerning lookup 15-2" uni0638 dx=-178 dy=0 dh=-178 dv=0 dx=0 dy=0 dh=0 dv=0
PairPos2: "'kern' Horizontal Kerning lookup 15-2" uniFEC3 dx=-178 dy=0 dh=-178 dv=0 dx=0 dy=0 dh=0 dv=0
PairPos2: "'kern' Horizontal Kerning lookup 15-2" uni0637 dx=-178 dy=0 dh=-178 dv=0 dx=0 dy=0 dh=0 dv=0
PairPos2: "'kern' Horizontal Kerning lookup 15-2" uniFEBF dx=-178 dy=0 dh=-178 dv=0 dx=0 dy=0 dh=0 dv=0
PairPos2: "'kern' Horizontal Kerning lookup 15-2" uni0636 dx=-178 dy=0 dh=-178 dv=0 dx=0 dy=0 dh=0 dv=0
PairPos2: "'kern' Horizontal Kerning lookup 15-2" uniFEBB dx=-178 dy=0 dh=-178 dv=0 dx=0 dy=0 dh=0 dv=0
PairPos2: "'kern' Horizontal Kerning lookup 15-2" uni0635 dx=-178 dy=0 dh=-178 dv=0 dx=0 dy=0 dh=0 dv=0
PairPos2: "'kern' Horizontal Kerning lookup 15-2" uniFEB7 dx=-178 dy=0 dh=-178 dv=0 dx=0 dy=0 dh=0 dv=0
PairPos2: "'kern' Horizontal Kerning lookup 15-2" uni0634 dx=-178 dy=0 dh=-178 dv=0 dx=0 dy=0 dh=0 dv=0
PairPos2: "'kern' Horizontal Kerning lookup 15-2" uniFEB3 dx=-178 dy=0 dh=-178 dv=0 dx=0 dy=0 dh=0 dv=0
PairPos2: "'kern' Horizontal Kerning lookup 15-2" uni0633 dx=-178 dy=0 dh=-178 dv=0 dx=0 dy=0 dh=0 dv=0
PairPos2: "'kern' Horizontal Kerning lookup 15-2" uni0630 dx=-178 dy=0 dh=-178 dv=0 dx=0 dy=0 dh=0 dv=0
PairPos2: "'kern' Horizontal Kerning lookup 15-2" uni062F dx=-178 dy=0 dh=-178 dv=0 dx=0 dy=0 dh=0 dv=0
PairPos2: "'kern' Horizontal Kerning lookup 15-2" uniFEA7 dx=-178 dy=0 dh=-178 dv=0 dx=0 dy=0 dh=0 dv=0
PairPos2: "'kern' Horizontal Kerning lookup 15-2" uniFEA3 dx=-178 dy=0 dh=-178 dv=0 dx=0 dy=0 dh=0 dv=0
PairPos2: "'kern' Horizontal Kerning lookup 15-2" uniFE9F dx=-178 dy=0 dh=-178 dv=0 dx=0 dy=0 dh=0 dv=0
PairPos2: "'kern' Horizontal Kerning lookup 15-2" uniFE9B dx=-178 dy=0 dh=-178 dv=0 dx=0 dy=0 dh=0 dv=0
PairPos2: "'kern' Horizontal Kerning lookup 15-2" uni062B dx=-178 dy=0 dh=-178 dv=0 dx=0 dy=0 dh=0 dv=0
PairPos2: "'kern' Horizontal Kerning lookup 15-2" uniFE97 dx=-178 dy=0 dh=-178 dv=0 dx=0 dy=0 dh=0 dv=0
PairPos2: "'kern' Horizontal Kerning lookup 15-2" uni062A dx=-178 dy=0 dh=-178 dv=0 dx=0 dy=0 dh=0 dv=0
PairPos2: "'kern' Horizontal Kerning lookup 15-2" uni0629 dx=-178 dy=0 dh=-178 dv=0 dx=0 dy=0 dh=0 dv=0
PairPos2: "'kern' Horizontal Kerning lookup 15-2" uni0628 dx=-178 dy=0 dh=-178 dv=0 dx=0 dy=0 dh=0 dv=0
PairPos2: "'kern' Horizontal Kerning lookup 15-2" uni0627 dx=-143 dy=0 dh=-143 dv=0 dx=0 dy=0 dh=0 dv=0
PairPos2: "'kern' Horizontal Kerning lookup 15-2" uni0623 dx=-143 dy=0 dh=-143 dv=0 dx=0 dy=0 dh=0 dv=0
PairPos2: "'kern' Horizontal Kerning lookup 15-2" uni0622 dx=-143 dy=0 dh=-143 dv=0 dx=0 dy=0 dh=0 dv=0
PairPos2: "'kern' Horizontal Kerning lookup 15-2" uni0621 dx=-178 dy=0 dh=-178 dv=0 dx=0 dy=0 dh=0 dv=0
PairPos2: "'kern' Horizontal Kerning lookup 15-2" uniFB94 dx=-226 dy=0 dh=-226 dv=0 dx=0 dy=0 dh=0 dv=0
PairPos2: "'kern' Horizontal Kerning lookup 15-2" uniFB92 dx=-226 dy=0 dh=-226 dv=0 dx=0 dy=0 dh=0 dv=0
PairPos2: "'kern' Horizontal Kerning lookup 15-2" uni06AF dx=-226 dy=0 dh=-226 dv=0 dx=0 dy=0 dh=0 dv=0
PairPos2: "'kern' Horizontal Kerning lookup 15-2" afii57506 dx=-178 dy=0 dh=-178 dv=0 dx=0 dy=0 dh=0 dv=0
PairPos2: "'kern' Horizontal Kerning lookup 15-2" afii57440 dx=-178 dy=0 dh=-178 dv=0 dx=0 dy=0 dh=0 dv=0
PairPos2: "'kern' Horizontal Kerning lookup 15-2" uniFE8B dx=-178 dy=0 dh=-178 dv=0 dx=0 dy=0 dh=0 dv=0
EndChar

StartChar: uniFEB2
Encoding: 65202 65202 189
GlifName: uniF_E_B_2
Width: 2559
VWidth: 2972
GlyphClass: 2
Flags: W
AnchorPoint: "Anchor-7" 671.902 -736.086 basechar 0
AnchorPoint: "Anchor-10" 1800.53 1110.1 basechar 0
LayerCount: 2
Fore
SplineSet
1544.55761719 224.9921875 m 0,0,1
 1626.11230469 224.536132812 1626.11230469 224.536132812 1664.04785156 263.303710938 c 128,-1,2
 1701.98242188 302.0703125 1701.98242188 302.0703125 1701.96777344 386.374023438 c 0,3,4
 1701.97851562 412.110351562 1701.97851562 412.110351562 1701.77050781 432.673828125 c 128,-1,5
 1701.56347656 453.23828125 1701.56347656 453.23828125 1701.15722656 467.840820312 c 128,-1,6
 1700.75195312 482.444335938 1700.75195312 482.444335938 1700.15625 491.314453125 c 2,7,-1
 1694.66503906 573.07421875 l 1,8,-1
 1693.38964844 592.05859375 l 1,9,-1
 1712.28808594 594.27734375 l 1,10,-1
 1877.09472656 613.625 l 1,11,-1
 1897.92382812 616.0703125 l 1,12,-1
 1899.37890625 595.1484375 l 1,13,-1
 1915.453125 363.948242188 l 2,14,15
 1920.28125 291.489257812 1920.28125 291.489257812 1953.58398438 258.11328125 c 128,-1,16
 1986.88769531 224.736328125 1986.88769531 224.736328125 2053.20996094 224.520507812 c 0,17,18
 2082.75683594 224.623046875 2082.75683594 224.623046875 2104.60449219 234.805664062 c 128,-1,19
 2126.453125 244.989257812 2126.453125 244.989257812 2141.92480469 266.689453125 c 128,-1,20
 2157.39648438 288.388671875 2157.39648438 288.388671875 2165.27246094 323.345703125 c 128,-1,21
 2173.14746094 358.302734375 2173.14746094 358.302734375 2173.51269531 406.953125 c 0,22,23
 2173.9921875 471.024414062 2173.9921875 471.024414062 2168.52832031 532.419921875 c 2,24,-1
 2163.11035156 593.296875 l 1,25,-1
 2161.38769531 612.65234375 l 1,26,-1
 2180.68457031 614.932617188 l 1,27,-1
 2345.51269531 634.405273438 l 1,28,-1
 2366.04589844 636.831054688 l 1,29,-1
 2367.78808594 616.228515625 l 1,30,-1
 2383.77734375 427.133789062 l 2,31,32
 2392.89648438 321.684570312 2392.89648438 321.684570312 2433.828125 272.850585938 c 128,-1,33
 2474.75976562 224.016601562 2474.75976562 224.016601562 2549.36230469 224 c 2,34,-1
 2567.43261719 223.99609375 l 2,35,36
 2577.23339844 223.998046875 2577.23339844 223.998046875 2584.48046875 220.22265625 c 128,-1,37
 2591.72851562 216.447265625 2591.72851562 216.447265625 2595.9296875 207.840820312 c 128,-1,38
 2600.13183594 199.235351562 2600.13183594 199.235351562 2602.68652344 191.90625 c 128,-1,39
 2605.2421875 184.577148438 2605.2421875 184.577148438 2606.20117188 170.609375 c 128,-1,40
 2607.16015625 156.642578125 2607.16015625 156.642578125 2607.34277344 149.463867188 c 128,-1,41
 2607.52636719 142.284179688 2607.52636719 142.284179688 2607.52636719 127.1171875 c 2,42,-1
 2607.52636719 108.131835938 l 2,43,44
 2607.47460938 105.158203125 2607.47460938 105.158203125 2607.39257812 99.1015625 c 0,45,46
 2607.06835938 75.42578125 2607.06835938 75.42578125 2606.17089844 62.9111328125 c 128,-1,47
 2605.2734375 50.3974609375 2605.2734375 50.3974609375 2601.78808594 33.076171875 c 128,-1,48
 2598.30371094 15.755859375 2598.30371094 15.755859375 2589.74023438 7.849609375 c 128,-1,49
 2581.17675781 -0.056640625 2581.17675781 -0.056640625 2567.4453125 -0.056640625 c 2,50,-1
 2551.11425781 -0.056640625 l 2,51,52
 2365.96289062 -0.00390625 2365.96289062 -0.00390625 2299.5 118.799804688 c 1,53,54
 2220.2890625 0 2220.2890625 0 2062.5 0 c 0,55,56
 1879.39453125 0 1879.39453125 0 1808.33300781 123.217773438 c 1,57,58
 1774.23144531 82.0771484375 1774.23144531 82.0771484375 1733.16796875 54.640625 c 128,-1,59
 1692.10449219 27.2041015625 1692.10449219 27.2041015625 1644.54199219 13.57421875 c 128,-1,60
 1596.97949219 -0.0556640625 1596.97949219 -0.0556640625 1542.79394531 -0.0810546875 c 0,61,62
 1490.55371094 -0.046875 1490.55371094 -0.046875 1447.00292969 9.640625 c 128,-1,63
 1403.45117188 19.328125 1403.45117188 19.328125 1368.95507812 38.810546875 c 1,64,65
 1362.37988281 -101.26953125 1362.37988281 -101.26953125 1311.84472656 -205.751953125 c 0,66,67
 1157.453125 -520.0078125 1157.453125 -520.0078125 727.338867188 -519.724609375 c 0,68,69
 407.588867188 -519.865234375 407.588867188 -519.865234375 244.477539062 -368.444335938 c 128,-1,70
 81.3662109375 -217.022460938 81.3662109375 -217.022460938 81.7529296875 81.0673828125 c 0,71,72
 82.0048828125 293.983398438 82.0048828125 293.983398438 174.545898438 517.767578125 c 2,73,-1
 182.180664062 536.228515625 l 1,74,-1
 200.649414062 528.616210938 l 1,75,-1
 359.169921875 463.278320312 l 1,76,-1
 377.272460938 455.81640625 l 1,77,-1
 370.197265625 437.560546875 l 2,78,79
 298.005859375 251.275390625 298.005859375 251.275390625 298.268554688 82.869140625 c 0,80,81
 298.139648438 -112.223632812 298.139648438 -112.223632812 405.3359375 -207.6640625 c 128,-1,82
 512.532226562 -303.104492188 512.532226562 -303.104492188 734.391601562 -303.203125 c 0,83,84
 949.639648438 -303.104492188 949.639648438 -303.104492188 1054.72070312 -198.263671875 c 128,-1,85
 1159.80175781 -93.4228515625 1159.80175781 -93.4228515625 1160.5546875 121.982421875 c 0,86,87
 1160.98925781 301.408203125 1160.98925781 301.408203125 1072.46875 483.004882812 c 2,88,-1
 1062.61035156 503.228515625 l 1,89,-1
 1083.84960938 510.649414062 l 1,90,-1
 1256.49121094 570.966796875 l 1,91,-1
 1275.8125 577.716796875 l 1,92,-1
 1282.11621094 558.245117188 l 1,93,-1
 1342.03515625 373.135742188 l 2,94,95
 1354.19140625 335.266601562 1354.19140625 335.266601562 1372.50488281 307.471679688 c 128,-1,96
 1390.81933594 279.67578125 1390.81933594 279.67578125 1415.95703125 261.298828125 c 128,-1,97
 1441.09570312 242.922851562 1441.09570312 242.922851562 1473.03515625 233.95703125 c 128,-1,98
 1504.97460938 224.9921875 1504.97460938 224.9921875 1544.55761719 224.9921875 c 0,0,1
EndSplineSet
EndChar

StartChar: uniFEB3
Encoding: 65203 65203 190
GlifName: uniF_E_B_3
Width: 1569
VWidth: 2972
GlyphClass: 2
Flags: W
AnchorPoint: "Anchor-10" 859.961 1103.67 basechar 0
AnchorPoint: "Anchor-7" 759.534 -216.974 basechar 0
LayerCount: 2
Fore
SplineSet
797.54296875 354.905273438 m 0,0,1
 802.998046875 381.983398438 802.998046875 381.983398438 802.953125 421.454101562 c 0,2,3
 802.999023438 465.44140625 802.999023438 465.44140625 798.860351562 511.981445312 c 2,4,-1
 793.459960938 572.697265625 l 1,5,-1
 791.736328125 592.065429688 l 1,6,-1
 811.049804688 594.33203125 l 1,7,-1
 975.775390625 613.665039062 l 1,8,-1
 996.603515625 616.110351562 l 1,9,-1
 998.05859375 595.188476562 l 1,10,-1
 1014.13085938 364.001953125 l 2,11,12
 1019.10742188 291.517578125 1019.10742188 291.517578125 1052.33300781 258.131835938 c 128,-1,13
 1085.55859375 224.74609375 1085.55859375 224.74609375 1151.49511719 224.538085938 c 0,14,15
 1190.52539062 224.66796875 1190.52539062 224.66796875 1216.2734375 243.887695312 c 128,-1,16
 1242.02148438 263.107421875 1242.02148438 263.107421875 1256.00585938 306.740234375 c 128,-1,17
 1269.99121094 350.374023438 1269.99121094 350.374023438 1269.98632812 419.401367188 c 0,18,19
 1270 519.168945312 1270 519.168945312 1226.76855469 668.754882812 c 2,20,-1
 1221.10449219 688.354492188 l 1,21,-1
 1240.81347656 693.627929688 l 1,22,-1
 1411.76464844 739.368164062 l 1,23,-1
 1430.22753906 744.30859375 l 1,24,-1
 1436 726.087890625 l 2,25,26
 1487.02246094 565.021484375 1487.02246094 565.021484375 1486.01953125 425.919921875 c 0,27,28
 1486 422.935546875 1486 422.935546875 1486 420.456054688 c 0,29,30
 1484.95996094 183.900390625 1484.95996094 183.900390625 1357.53125 72.2060546875 c 0,31,32
 1276.54199219 1 1276.54199219 1 1154.72460938 0.9931640625 c 0,33,34
 978.133789062 1 978.133789062 1 907.004882812 123.564453125 c 1,35,36
 803.014648438 0 803.014648438 0 636.321289062 0 c 0,37,38
 443.65234375 0.9423828125 443.65234375 0.9423828125 369.94140625 121.57421875 c 1,39,40
 276.690429688 0 276.690429688 0 48.849609375 0 c 2,41,-1
 -6.9384765625 0 l 2,42,43
 -46.005859375 0 -46.005859375 0 -65.3916015625 29.646484375 c 128,-1,44
 -84.7783203125 59.2939453125 -84.7783203125 59.2939453125 -84.7783203125 108.313476562 c 2,45,-1
 -84.7783203125 127.157226562 l 2,46,47
 -84.9052734375 170.991210938 -84.9052734375 170.991210938 -64.96875 197.495117188 c 128,-1,48
 -45.0322265625 223.999023438 -45.0322265625 223.999023438 -6.9384765625 223.999023438 c 2,49,-1
 51.00390625 223.999023438 l 2,50,51
 116.521484375 223.999023438 116.521484375 223.999023438 161.765625 238.971679688 c 128,-1,52
 207.009765625 253.943359375 207.009765625 253.943359375 232.5859375 282.6953125 c 128,-1,53
 258.162109375 311.447265625 258.162109375 311.447265625 267.344726562 355.104492188 c 0,54,55
 272.985351562 382.006835938 272.985351562 382.006835938 272.716796875 421.467773438 c 0,56,57
 272.9921875 462.880859375 272.9921875 462.880859375 268.624023438 511.99609375 c 2,58,-1
 263.223632812 572.711914062 l 1,59,-1
 261.5 592.080078125 l 1,60,-1
 280.813476562 594.346679688 l 1,61,-1
 445.5390625 613.6796875 l 1,62,-1
 466.3671875 616.125 l 1,63,-1
 467.822265625 595.203125 l 1,64,-1
 483.892578125 364.037109375 l 2,65,66
 488.940429688 291.626953125 488.940429688 291.626953125 526.047851562 257.833007812 c 128,-1,67
 563.155273438 224.040039062 563.155273438 224.040039062 638.07421875 224.073242188 c 0,68,69
 684.032226562 224.05078125 684.032226562 224.05078125 716.265625 238.08984375 c 128,-1,70
 748.499023438 252.12890625 748.499023438 252.12890625 768.552734375 280.990234375 c 128,-1,71
 788.606445312 309.852539062 788.606445312 309.852539062 797.54296875 354.905273438 c 0,0,1
EndSplineSet
EndChar

StartChar: uniFEB4
Encoding: 65204 65204 191
GlifName: uniF_E_B_4
Width: 1658
VWidth: 2965
GlyphClass: 2
Flags: W
AnchorPoint: "Anchor-7" 759.534 -216.974 basechar 0
AnchorPoint: "Anchor-10" 873.961 1103.67 basechar 0
LayerCount: 2
Fore
SplineSet
1014.12988281 364.018554688 m 2,0,1
 1016.6640625 327.555664062 1016.6640625 327.555664062 1026.20605469 301.33203125 c 128,-1,2
 1035.74804688 275.107421875 1035.74804688 275.107421875 1053.02539062 258.03515625 c 128,-1,3
 1070.30175781 240.961914062 1070.30175781 240.961914062 1095.06640625 232.818359375 c 128,-1,4
 1119.83203125 224.674804688 1119.83203125 224.674804688 1153.36621094 224.579101562 c 0,5,6
 1213.48925781 224.760742188 1213.48925781 224.760742188 1243.08398438 267.225585938 c 128,-1,7
 1272.67773438 309.690429688 1272.67773438 309.690429688 1272.38769531 404.139648438 c 0,8,9
 1272.00585938 481.709960938 1272.00585938 481.709960938 1267.48828125 532.4765625 c 2,10,-1
 1262.0703125 593.353515625 l 1,11,-1
 1260.34765625 612.708984375 l 1,12,-1
 1279.64453125 614.989257812 l 1,13,-1
 1444.47265625 634.461914062 l 1,14,-1
 1465.00585938 636.887695312 l 1,15,-1
 1466.74804688 616.28515625 l 1,16,-1
 1482.73632812 427.192382812 l 2,17,18
 1491.87792969 321.685546875 1491.87792969 321.685546875 1532.81054688 272.837890625 c 128,-1,19
 1573.7421875 223.990234375 1573.7421875 223.990234375 1648.31640625 223.998046875 c 2,20,-1
 1666.39648438 224 l 2,21,22
 1676.19433594 224 1676.19433594 224 1683.44042969 220.224609375 c 128,-1,23
 1690.68652344 216.448242188 1690.68652344 216.448242188 1694.88769531 207.850585938 c 128,-1,24
 1699.08886719 199.251953125 1699.08886719 199.251953125 1701.64453125 191.921875 c 128,-1,25
 1704.20019531 184.591796875 1704.20019531 184.591796875 1705.16015625 170.640625 c 128,-1,26
 1706.11914062 156.688476562 1706.11914062 156.688476562 1706.30273438 149.504882812 c 128,-1,27
 1706.48632812 142.321289062 1706.48632812 142.321289062 1706.48632812 127.173828125 c 2,28,-1
 1706.48632812 108.306640625 l 2,29,30
 1706.47363281 106.014648438 1706.47363281 106.014648438 1706.45800781 101.364257812 c 0,31,32
 1706.37597656 77.33984375 1706.37597656 77.33984375 1705.58398438 64.5703125 c 128,-1,33
 1704.79199219 51.7998046875 1704.79199219 51.7998046875 1701.39355469 34.048828125 c 128,-1,34
 1697.99511719 16.2978515625 1697.99511719 16.2978515625 1689.26074219 8.1484375 c 128,-1,35
 1680.52636719 0 1680.52636719 0 1666.40527344 0 c 2,36,-1
 1650.08007812 0 l 2,37,38
 1464.02734375 0 1464.02734375 0 1398.296875 118.752929688 c 1,39,40
 1318.22949219 0 1318.22949219 0 1154 0 c 0,41,42
 985.15234375 0 985.15234375 0 907.880859375 124.614257812 c 1,43,44
 804.095703125 0 804.095703125 0 636.321289062 0 c 0,45,46
 443.65234375 0.9423828125 443.65234375 0.9423828125 369.94140625 121.57421875 c 1,47,48
 276.690429688 0 276.690429688 0 48.849609375 0 c 2,49,-1
 -6.9384765625 0 l 2,50,51
 -46.005859375 0 -46.005859375 0 -65.3916015625 29.646484375 c 128,-1,52
 -84.7783203125 59.2939453125 -84.7783203125 59.2939453125 -84.7783203125 108.313476562 c 2,53,-1
 -84.7783203125 127.157226562 l 2,54,55
 -84.9052734375 170.991210938 -84.9052734375 170.991210938 -64.96875 197.495117188 c 128,-1,56
 -45.0322265625 223.999023438 -45.0322265625 223.999023438 -6.9384765625 223.999023438 c 2,57,-1
 51.00390625 223.999023438 l 2,58,59
 149.123046875 223.999023438 149.123046875 223.999023438 201.827148438 256.715820312 c 128,-1,60
 254.53125 289.431640625 254.53125 289.431640625 268.352539062 355.142578125 c 0,61,62
 272.987304688 377.033203125 272.987304688 377.033203125 272.716796875 421.475585938 c 0,63,64
 272.854492188 442.259765625 272.854492188 442.259765625 271.836914062 464.786132812 c 128,-1,65
 270.819335938 487.3125 270.819335938 487.3125 268.624023438 511.99609375 c 2,66,-1
 263.223632812 572.711914062 l 1,67,-1
 261.5 592.080078125 l 1,68,-1
 280.813476562 594.346679688 l 1,69,-1
 445.5390625 613.6796875 l 1,70,-1
 466.3671875 616.125 l 1,71,-1
 467.822265625 595.203125 l 1,72,-1
 483.892578125 364.037109375 l 2,73,74
 487.270507812 315.588867188 487.270507812 315.588867188 504.71484375 284.795898438 c 128,-1,75
 522.159179688 254.002929688 522.159179688 254.002929688 555.028320312 239.026367188 c 128,-1,76
 587.896484375 224.05078125 587.896484375 224.05078125 638.07421875 224.073242188 c 0,77,78
 707.32421875 224.040039062 707.32421875 224.040039062 746.254882812 255.798828125 c 128,-1,79
 785.184570312 287.557617188 785.184570312 287.557617188 798.543945312 354.908203125 c 0,80,81
 802.998046875 376.987304688 802.998046875 376.987304688 802.953125 421.455078125 c 0,82,83
 802.9765625 443.456054688 802.9765625 443.456054688 801.954101562 466.0703125 c 128,-1,84
 800.931640625 488.68359375 800.931640625 488.68359375 798.860351562 511.981445312 c 2,85,-1
 793.459960938 572.697265625 l 1,86,-1
 791.736328125 592.065429688 l 1,87,-1
 811.049804688 594.33203125 l 1,88,-1
 975.775390625 613.665039062 l 1,89,-1
 996.603515625 616.110351562 l 1,90,-1
 998.05859375 595.188476562 l 1,91,-1
 1014.12988281 364.018554688 l 2,0,1
EndSplineSet
EndChar

StartChar: uniFEBA
Encoding: 65210 65210 197
GlifName: uniF_E_B_A_
Width: 2616
VWidth: 2972
GlyphClass: 2
Flags: W
AnchorPoint: "Anchor-7" 671.902 -736.086 basechar 0
AnchorPoint: "Anchor-10" 2048.53 1233.1 basechar 0
LayerCount: 2
Fore
SplineSet
1414.13476562 256.010742188 m 1,0,1
 1761.52929688 837.125 1761.52929688 837.125 2109.66113281 831.422851562 c 0,2,3
 2186.46484375 830.161132812 2186.46484375 830.161132812 2250.99511719 808.299804688 c 128,-1,4
 2315.52539062 786.438476562 2315.52539062 786.438476562 2366.75976562 743.939453125 c 0,5,6
 2505.02148438 629.383789062 2505.02148438 629.383789062 2504.59667969 443.802734375 c 0,7,8
 2504.97851562 329.427734375 2504.97851562 329.427734375 2444.6875 235.884765625 c 1,9,10
 2488.91210938 224 2488.91210938 224 2605.73828125 224 c 2,11,-1
 2624.37109375 224 l 2,12,13
 2634.16992188 224 2634.16992188 224 2641.41992188 220.221679688 c 128,-1,14
 2648.66894531 216.443359375 2648.66894531 216.443359375 2652.87402344 207.858398438 c 128,-1,15
 2657.078125 199.272460938 2657.078125 199.272460938 2659.63769531 191.924804688 c 128,-1,16
 2662.19726562 184.577148438 2662.19726562 184.577148438 2663.15917969 170.651367188 c 128,-1,17
 2664.12207031 156.7265625 2664.12207031 156.7265625 2664.30761719 149.5078125 c 128,-1,18
 2664.49316406 142.288085938 2664.49316406 142.288085938 2664.49316406 127.174804688 c 2,19,-1
 2664.49316406 108.25 l 2,20,21
 2664.48046875 105.958984375 2664.48046875 105.958984375 2664.46386719 101.311523438 c 0,22,23
 2664.38085938 77.3017578125 2664.38085938 77.3017578125 2663.58789062 64.5390625 c 128,-1,24
 2662.79492188 51.775390625 2662.79492188 51.775390625 2659.39550781 34.033203125 c 128,-1,25
 2655.99609375 16.291015625 2655.99609375 16.291015625 2647.26367188 8.1455078125 c 128,-1,26
 2638.53027344 0 2638.53027344 0 2624.41210938 0 c 2,27,-1
 2600.2265625 0 l 2,28,29
 2366.28808594 0 2366.28808594 0 2253.00292969 83.890625 c 1,30,31
 2091.39453125 0 2091.39453125 0 1763.15136719 0 c 2,32,-1
 1712.34082031 0 l 2,33,34
 1487.33789062 0 1487.33789062 0 1369.25195312 45.7353515625 c 1,35,36
 1363.57910156 -98.7900390625 1363.57910156 -98.7900390625 1311.84472656 -205.751953125 c 0,37,38
 1157.453125 -520.0078125 1157.453125 -520.0078125 727.338867188 -519.724609375 c 0,39,40
 407.588867188 -519.865234375 407.588867188 -519.865234375 244.477539062 -368.444335938 c 128,-1,41
 81.3662109375 -217.022460938 81.3662109375 -217.022460938 81.7529296875 81.0673828125 c 0,42,43
 82.0048828125 293.983398438 82.0048828125 293.983398438 174.545898438 517.767578125 c 2,44,-1
 182.180664062 536.228515625 l 1,45,-1
 200.649414062 528.616210938 l 1,46,-1
 359.169921875 463.278320312 l 1,47,-1
 377.272460938 455.81640625 l 1,48,-1
 370.197265625 437.560546875 l 2,49,50
 298.005859375 251.275390625 298.005859375 251.275390625 298.268554688 82.869140625 c 0,51,52
 298.139648438 -112.223632812 298.139648438 -112.223632812 405.3359375 -207.6640625 c 128,-1,53
 512.532226562 -303.104492188 512.532226562 -303.104492188 734.391601562 -303.203125 c 0,54,55
 949.639648438 -303.104492188 949.639648438 -303.104492188 1054.72070312 -198.263671875 c 128,-1,56
 1159.80175781 -93.4228515625 1159.80175781 -93.4228515625 1160.5546875 121.982421875 c 0,57,58
 1160.98925781 301.408203125 1160.98925781 301.408203125 1072.46875 483.004882812 c 2,59,-1
 1062.61035156 503.228515625 l 1,60,-1
 1083.84960938 510.649414062 l 1,61,-1
 1256.49121094 570.966796875 l 1,62,-1
 1275.8125 577.716796875 l 1,63,-1
 1282.11621094 558.245117188 l 1,64,-1
 1342.03710938 373.129882812 l 2,65,66
 1373.95800781 273.474609375 1373.95800781 273.474609375 1414.13476562 256.010742188 c 1,0,1
2111.96777344 604.57421875 m 0,67,68
 2009.49707031 605.211914062 2009.49707031 605.211914062 1893.45703125 510.556640625 c 128,-1,69
 1777.41601562 415.901367188 1777.41601562 415.901367188 1651.43457031 224.447265625 c 1,70,-1
 1758.73828125 224.534179688 l 2,71,72
 2282.05761719 224.982421875 2282.05761719 224.982421875 2282.66113281 435.440429688 c 0,73,74
 2282.96484375 526.533203125 2282.96484375 526.533203125 2213.64355469 574.424804688 c 0,75,76
 2170.69140625 604.0546875 2170.69140625 604.0546875 2111.96777344 604.57421875 c 0,67,68
EndSplineSet
EndChar

StartChar: uniFEBB
Encoding: 65211 65211 198
GlifName: uniF_E_B_B_
Width: 1680
VWidth: 2972
GlyphClass: 2
Flags: W
AnchorPoint: "Anchor-10" 1118.91 1222.52 basechar 0
AnchorPoint: "Anchor-7" 699.209 -220.348 basechar 0
LayerCount: 2
Fore
SplineSet
1597.57910156 443.73046875 m 0,0,1
 1596.74902344 220.888671875 1596.74902344 220.888671875 1408.68457031 110.444335938 c 128,-1,2
 1220.62011719 0 1220.62011719 0 856.133789062 0 c 2,3,-1
 805.323242188 0 l 2,4,5
 453.54296875 0 453.54296875 0 347.325195312 131.724609375 c 1,6,7
 233.989257812 0 233.989257812 0 9.984375 0 c 2,8,-1
 -6.9384765625 0 l 2,9,10
 -46.005859375 0 -46.005859375 0 -65.3916015625 29.646484375 c 128,-1,11
 -84.7783203125 59.2939453125 -84.7783203125 59.2939453125 -84.7783203125 108.313476562 c 2,12,-1
 -84.7783203125 127.157226562 l 2,13,14
 -84.861328125 155.872070312 -84.861328125 155.872070312 -76.3212890625 177.380859375 c 128,-1,15
 -67.78125 198.888671875 -67.78125 198.888671875 -49.7470703125 211.444335938 c 128,-1,16
 -31.7138671875 224 -31.7138671875 224 -5.9384765625 224 c 2,17,-1
 10.1103515625 224 l 2,18,19
 81.7919921875 224 81.7919921875 224 130.453125 237.788085938 c 128,-1,20
 179.11328125 251.577148438 179.11328125 251.577148438 204.505859375 276.889648438 c 128,-1,21
 229.897460938 302.203125 229.897460938 302.203125 236.899414062 339.8984375 c 0,22,23
 247.803710938 396.873046875 247.803710938 396.873046875 240.049804688 512.340820312 c 2,24,-1
 234.559570312 594.096679688 l 1,25,-1
 233.284179688 613.08203125 l 1,26,-1
 252.182617188 615.299804688 l 1,27,-1
 416.989257812 634.647460938 l 1,28,-1
 437.666992188 637.075195312 l 1,29,-1
 439.262695312 616.317382812 l 1,30,-1
 457.109375 384.16796875 l 2,31,32
 464.75 281.875 464.75 281.875 508.177734375 257.798828125 c 1,33,34
 854.827148438 837.135742188 854.827148438 837.135742188 1202.64355469 831.422851562 c 0,35,36
 1357.35839844 828.881835938 1357.35839844 828.881835938 1459.74121094 743.940429688 c 0,37,38
 1598.02246094 629.383789062 1598.02246094 629.383789062 1597.57910156 443.73046875 c 0,0,1
1204.99316406 604.573242188 m 0,39,40
 996.395507812 604.963867188 996.395507812 604.963867188 744.538085938 224.447265625 c 1,41,-1
 851.720703125 224.534179688 l 2,42,43
 1375.05566406 224.982421875 1375.05566406 224.982421875 1375.64355469 435.444335938 c 0,44,45
 1375.69824219 451.005859375 1375.69824219 451.005859375 1373.84667969 465.107421875 c 128,-1,46
 1371.99414062 479.208007812 1371.99414062 479.208007812 1368.19628906 491.981445312 c 128,-1,47
 1364.3984375 504.754882812 1364.3984375 504.754882812 1358.69042969 516.198242188 c 128,-1,48
 1352.98339844 527.642578125 1352.98339844 527.642578125 1345.26953125 537.920898438 c 128,-1,49
 1337.5546875 548.198242188 1337.5546875 548.198242188 1327.93261719 557.276367188 c 128,-1,50
 1318.30957031 566.354492188 1318.30957031 566.354492188 1306.62304688 574.426757812 c 0,51,52
 1263.68945312 604.0546875 1263.68945312 604.0546875 1204.99316406 604.573242188 c 0,39,40
EndSplineSet
EndChar

StartChar: uniFEBC
Encoding: 65212 65212 199
GlifName: uniF_E_B_C_
Width: 1719
VWidth: 2972
GlyphClass: 2
Flags: W
AnchorPoint: "Anchor-7" 699.209 -220.348 basechar 0
AnchorPoint: "Anchor-10" 1148.91 1222.52 basechar 0
LayerCount: 2
Fore
SplineSet
1597.57910156 443.859375 m 0,0,1
 1597.77832031 386.663085938 1597.77832031 386.663085938 1582.75488281 334.586914062 c 128,-1,2
 1567.73242188 282.51171875 1567.73242188 282.51171875 1537.67382812 235.885742188 c 1,3,4
 1559.07714844 230.134765625 1559.07714844 230.134765625 1599.6953125 227.067382812 c 128,-1,5
 1640.31347656 224 1640.31347656 224 1698.72070312 224 c 2,6,-1
 1717.35351562 224 l 2,7,8
 1727.15234375 224 1727.15234375 224 1734.40234375 220.221679688 c 128,-1,9
 1741.65136719 216.443359375 1741.65136719 216.443359375 1745.85644531 207.858398438 c 128,-1,10
 1750.06054688 199.272460938 1750.06054688 199.272460938 1752.62011719 191.924804688 c 128,-1,11
 1755.1796875 184.577148438 1755.1796875 184.577148438 1756.14160156 170.651367188 c 128,-1,12
 1757.10449219 156.7265625 1757.10449219 156.7265625 1757.29003906 149.5078125 c 128,-1,13
 1757.47558594 142.288085938 1757.47558594 142.288085938 1757.47558594 127.174804688 c 2,14,-1
 1757.47558594 108.251953125 l 2,15,16
 1757.46289062 105.973632812 1757.46289062 105.973632812 1757.44824219 101.352539062 c 0,17,18
 1757.36816406 77.3359375 1757.36816406 77.3359375 1756.57714844 64.568359375 c 128,-1,19
 1755.78613281 51.80078125 1755.78613281 51.80078125 1752.38867188 34.0498046875 c 128,-1,20
 1748.99121094 16.2998046875 1748.99121094 16.2998046875 1740.25488281 8.1494140625 c 128,-1,21
 1731.51953125 0 1731.51953125 0 1717.39453125 0 c 2,22,-1
 1693.20898438 0 l 2,23,24
 1459.28710938 0 1459.28710938 0 1345.98632812 83.890625 c 1,25,26
 1184.39355469 0 1184.39355469 0 856.133789062 0 c 2,27,-1
 805.323242188 0 l 2,28,29
 456.798828125 0 456.798828125 0 347.606445312 132.051757812 c 1,30,31
 233.989257812 0 233.989257812 0 9.984375 0 c 2,32,-1
 -6.9384765625 0 l 2,33,34
 -46.005859375 0 -46.005859375 0 -65.3916015625 29.646484375 c 128,-1,35
 -84.7783203125 59.2939453125 -84.7783203125 59.2939453125 -84.7783203125 108.313476562 c 2,36,-1
 -84.7783203125 127.157226562 l 2,37,38
 -84.9052734375 170.991210938 -84.9052734375 170.991210938 -64.96875 197.495117188 c 128,-1,39
 -45.0322265625 224 -45.0322265625 224 -6.9384765625 224 c 2,40,-1
 9.1103515625 224 l 2,41,42
 116.115234375 224 116.115234375 224 171.216796875 253.463867188 c 128,-1,43
 226.317382812 282.927734375 226.317382812 282.927734375 236.899414062 339.8984375 c 0,44,45
 247.803710938 396.873046875 247.803710938 396.873046875 240.049804688 512.340820312 c 2,46,-1
 234.559570312 594.096679688 l 1,47,-1
 233.284179688 613.08203125 l 1,48,-1
 252.182617188 615.299804688 l 1,49,-1
 416.989257812 634.647460938 l 1,50,-1
 437.666992188 637.075195312 l 1,51,-1
 439.262695312 616.317382812 l 1,52,-1
 457.109375 384.16796875 l 2,53,54
 459.138671875 357.0078125 459.138671875 357.0078125 463.849609375 335.172851562 c 128,-1,55
 468.560546875 313.336914062 468.560546875 313.336914062 475.387695312 298.182617188 c 128,-1,56
 482.213867188 283.02734375 482.213867188 283.02734375 490.362304688 273.092773438 c 128,-1,57
 498.509765625 263.158203125 498.509765625 263.158203125 508.2109375 257.780273438 c 1,58,59
 856.614257812 837.068359375 856.614257812 837.068359375 1202.64160156 831.422851562 c 0,60,61
 1279.93164062 830.162109375 1279.93164062 830.162109375 1344.50390625 808.288085938 c 128,-1,62
 1409.07519531 786.4140625 1409.07519531 786.4140625 1459.78027344 743.908203125 c 0,63,64
 1528.00195312 687.481445312 1528.00195312 687.481445312 1562.63964844 611.958007812 c 128,-1,65
 1597.27636719 536.434570312 1597.27636719 536.434570312 1597.57910156 443.859375 c 0,0,1
1204.86132812 604.57421875 m 0,66,67
 1103.34960938 606.106445312 1103.34960938 606.106445312 987.387695312 511.51953125 c 128,-1,68
 871.426757812 416.931640625 871.426757812 416.931640625 744.466796875 224.447265625 c 1,69,-1
 851.720703125 224.534179688 l 2,70,71
 1375.05566406 224.982421875 1375.05566406 224.982421875 1375.64355469 435.444335938 c 0,72,73
 1375.69824219 451.005859375 1375.69824219 451.005859375 1373.84667969 465.107421875 c 128,-1,74
 1371.99414062 479.208007812 1371.99414062 479.208007812 1368.19628906 491.981445312 c 128,-1,75
 1364.3984375 504.754882812 1364.3984375 504.754882812 1358.69042969 516.198242188 c 128,-1,76
 1352.98339844 527.642578125 1352.98339844 527.642578125 1345.26953125 537.920898438 c 128,-1,77
 1337.5546875 548.198242188 1337.5546875 548.198242188 1327.93261719 557.276367188 c 128,-1,78
 1318.30957031 566.354492188 1318.30957031 566.354492188 1306.62304688 574.426757812 c 0,79,80
 1263.68945312 604.0546875 1263.68945312 604.0546875 1204.86132812 604.57421875 c 0,66,67
EndSplineSet
EndChar

StartChar: uniFEC2
Encoding: 65218 65218 205
GlifName: uniF_E_C_2
Width: 1515
VWidth: 2972
GlyphClass: 2
Flags: W
AnchorPoint: "Anchor-7" 641.602 -216.453 basechar 0
AnchorPoint: "Anchor-10" 475.36 1524.78 basechar 0
LayerCount: 2
Fore
SplineSet
1003.62109375 831.423828125 m 0,0,1
 1157 830 1157 830 1260.84667969 743.934570312 c 0,2,3
 1329 687 1329 687 1363.69628906 611.962890625 c 0,4,5
 1398 536 1398 536 1398.67773438 443.846679688 c 0,6,7
 1399 334 1399 334 1337.63867188 234.345703125 c 1,8,9
 1381 224 1381 224 1504.70800781 224 c 2,10,-1
 1523.34082031 224 l 2,11,12
 1533 224 1533 224 1540.29296875 220.283203125 c 0,13,14
 1547 217 1547 217 1551.69238281 207.807617188 c 0,15,16
 1556 199 1556 199 1558.42675781 192.002929688 c 128,-1,17
 1561 185 1561 185 1561.97070312 170.623046875 c 0,18,19
 1563 156 1563 156 1563.17089844 149.611328125 c 0,20,21
 1563 140 1563 140 1563.46289062 127.234375 c 2,22,-1
 1563.46289062 108.313476562 l 2,23,24
 1563 106 1563 106 1563.46875 102.467773438 c 0,25,26
 1564 78 1564 78 1562.76367188 65.3828125 c 0,27,28
 1562 52 1562 52 1558.66992188 34.5166015625 c 0,29,30
 1555 17 1555 17 1546.50195312 8.2744140625 c 0,31,32
 1537.99899658 -0.0009765625 1537.99899658 -0.0009765625 1523.38183594 -0.0009765625 c 2,33,-1
 1499.19628906 -0.0009765625 l 2,34,35
 1371 -0 1371 -0 1280.27441406 19.263671875 c 0,36,37
 1189 39 1189 39 1133.84765625 78.1552734375 c 1,38,39
 1053 38 1053 38 934.904296875 19.2099609375 c 0,40,41
 816.992297574 -0.00125494403468 816.992297574 -0.00125494403468 658.232421875 -0.0009765625 c 2,42,-1
 101.302734375 0 l 1,43,-1
 81.302734375 0 l 1,44,-1
 81.302734375 20 l 1,45,-1
 81.302734375 204.221679688 l 1,46,-1
 81.302734375 224.208007812 l 1,47,-1
 101.2890625 224.221679688 l 1,48,-1
 312.434570312 224.370117188 l 1,49,-1
 374.638671875 324.40234375 l 1,50,-1
 374.638671875 1388.87304688 l 5,51,-1
 374.638671875 1408.87304688 l 5,52,-1
 394.638671875 1408.87304688 l 5,53,-1
 568.950195312 1408.87304688 l 5,54,-1
 588.950195312 1408.87304688 l 5,55,-1
 588.950195312 1388.87304688 l 5,56,-1
 588.950195312 618.915039062 l 1,57,58
 685 726 685 726 788.141601562 779.391601562 c 0,59,60
 892 833 892 833 1003.62109375 831.423828125 c 0,0,1
1006.37597656 604.573242188 m 0,61,62
 788.974609375 602.215820312 788.974609375 602.215820312 546.0625 224.533203125 c 1,63,-1
 653.819335938 224.533203125 l 2,64,65
 1176.06445312 224.982421875 1176.06445312 224.982421875 1176.7421875 435.423828125 c 0,66,67
 1176.97363281 526.533203125 1176.97363281 526.533203125 1107.76367188 574.396484375 c 0,68,69
 1092.75683594 584.619140625 1092.75683594 584.619140625 1076.63183594 591.34765625 c 128,-1,70
 1060.50683594 598.077148438 1060.50683594 598.077148438 1042.9609375 601.389648438 c 128,-1,71
 1025.4140625 604.703125 1025.4140625 604.703125 1006.37597656 604.573242188 c 0,61,62
EndSplineSet
EndChar

StartChar: uniFEC3
Encoding: 65219 65219 206
GlifName: uniF_E_C_3
Width: 1300
VWidth: 2972
GlyphClass: 2
Flags: W
AnchorPoint: "Anchor-7" 481.602 -216.453 basechar 0
AnchorPoint: "Anchor-10" 292.36 1533.78 basechar 0
LayerCount: 2
Fore
SplineSet
1217.015625 443.78125 m 0,0,1
 1217 221 1217 221 1028.92675781 110.432617188 c 128,-1,2
 840.964955997 -0.0205931344165 840.964955997 -0.0205931344165 475.5703125 -0.01171875 c 2,3,-1
 -6.9384765625 0 l 2,4,5
 -46 0 -46 0 -65.3916015625 29.646484375 c 0,6,7
 -84.7783203125 58.6681484114 -84.7783203125 58.6681484114 -84.7783203125 108.313476562 c 2,8,-1
 -84.7783203125 127.157226562 l 2,9,10
 -85 171 -85 171 -64.970703125 197.495117188 c 128,-1,11
 -45 224 -45 224 -6.943359375 224 c 2,12,-1
 128.296875 224 l 1,13,-1
 192.9765625 323.793945312 l 1,14,-1
 192.9765625 1388.87402344 l 5,15,-1
 192.9765625 1408.87402344 l 5,16,-1
 212.9765625 1408.87402344 l 5,17,-1
 386.288085938 1408.87402344 l 5,18,-1
 406.288085938 1408.87402344 l 5,19,-1
 406.288085938 1388.87402344 l 5,20,-1
 406.288085938 618.306640625 l 1,21,22
 502 724 502 724 605.752929688 777.62890625 c 0,23,24
 712.481314653 832.270352026 712.481314653 832.270352026 821.8125 831.4140625 c 0,25,26
 976 830 976 830 1079.21875 743.895507812 c 0,27,28
 1217 629 1217 629 1217.015625 443.78125 c 0,0,1
824.474609375 604.561523438 m 0,29,30
 720.841796875 604.309570312 720.841796875 604.309570312 604.720703125 509.609375 c 128,-1,31
 488.598632812 414.909179688 488.598632812 414.909179688 363.779296875 224.522460938 c 1,32,-1
 471.157226562 224.522460938 l 2,33,34
 995.006835938 224.982421875 995.006835938 224.982421875 995.080078125 435.346679688 c 0,35,36
 995.04296875 481.845703125 995.04296875 481.845703125 977.973632812 516.03125 c 128,-1,37
 960.903320312 550.217773438 960.903320312 550.217773438 926.068359375 574.408203125 c 0,38,39
 882.734375 604.053710938 882.734375 604.053710938 824.474609375 604.561523438 c 0,29,30
EndSplineSet
EndChar

